<?xml version="1.0" encoding="UTF-8"?>
<svg width="58px" height="58px" viewBox="0 0 58 58" version="1.1" xmlns="http://www.w3.org/2000/svg" xmlns:xlink="http://www.w3.org/1999/xlink">
    <title>购物袋</title>
    <defs>
        <polygon id="path-1" points="2.7936453 0 2.04881325 9.88304766 0 23.5601868 0 37.9180487 6.1245947 40.0817564 6.1245947 24.9187067 3.06229735 9.88304766 3.51004317 0.75910704"></polygon>
        <linearGradient x1="50%" y1="0%" x2="50%" y2="96.4606974%" id="linearGradient-3">
            <stop stop-color="#3C3630" offset="0%"></stop>
            <stop stop-color="#111111" offset="100%"></stop>
        </linearGradient>
        <polygon id="path-4" points="0 9.87333076 0.540088695 2.53726125 2.05940832 0.499863563 9.65081254 0 11.5600902 2.128132 11.0302425 8.97494033 9.12205225 9.13493438 9.65081254 2.128132 2.57028032 2.53726125 2.05940832 9.72050532"></polygon>
        <polygon id="path-6" points="0.540088695 2.53726125 2.05940832 0.499863563 9.65081254 0 11.5600902 2.128132 9.65081254 2.128132 2.57028032 2.53726125"></polygon>
        <filter x="-4.5%" y="-19.7%" width="109.1%" height="178.8%" filterUnits="objectBoundingBox" id="filter-7">
            <feOffset dx="0" dy="1" in="SourceAlpha" result="shadowOffsetOuter1"></feOffset>
            <feColorMatrix values="0 0 0 0 0.0862745098   0 0 0 0 0.0862745098   0 0 0 0 0.0862745098  0 0 0 0.1 0" type="matrix" in="shadowOffsetOuter1"></feColorMatrix>
        </filter>
        <polygon id="path-8" points="0.447745817 2.0852705 25.6029508 0 25.2256901 8.70833554 27.9377026 22.8240267 27.9377026 38.0156914 3.06229735 41.4079198 3.06229735 26.2448701 0 11.2092111"></polygon>
    </defs>
    <g id="菜单" stroke="none" stroke-width="1" fill="none" fill-rule="evenodd">
        <g id="菜单_特价/预估到手" transform="translate(-9.000000, -1472.000000)">
            <g id="购物车操作栏" transform="translate(0.000000, 1472.000000)">
                <g id="编组-4" transform="translate(9.000000, 0.000000)">
                    <rect id="矩形" x="0" y="0" width="58" height="58"></rect>
                    <g id="编组-29" transform="translate(14.000000, 5.197738)">
                        <g id="编组-20" transform="translate(0.000000, 9.720505)">
                            <mask id="mask-2" fill="white">
                                <use xlink:href="#path-1"></use>
                            </mask>
                            <use id="路径-3" stroke="#3A3B3C" stroke-width="0.25" fill="#FFFCFC" xlink:href="#path-1"></use>
                            <polygon id="路径-8" stroke="#3A3B3C" stroke-width="0.25" fill="#FFFCFC" mask="url(#mask-2)" points="0 37.9180487 2.7936453 35.6204907 6.1245947 40.0817564"></polygon>
                            <polygon id="路径-9" stroke="#3A3B3C" stroke-width="0.25" fill="#E6E6E6" mask="url(#mask-2)" points="2.7936453 35.6204907 3.06229735 24.407299 2.45510439 11.0707605 3.06229735 0.392824918 2.81092463 0 1.53114868 11.0707605 -0.223361157 23.5506513 -3.10862447e-14 37.9180487"></polygon>
                        </g>
                        <polygon id="路径-6" stroke="#3A3B3C" stroke-width="0.25" fill="#29130C" points="2.89970398 9.53790315 3.51004317 10.4796124 28.5268237 8.39434186 27.7009204 7.58779217"></polygon>
                        <polygon id="路径-7备份" fill="#111111" points="9.3 10.1721999 9.8400887 2.53952293 11.3594083 0.502125238 18.9508125 0.00226167503 20.8600902 2.13039367 20.3302425 9.27380949 18.4220523 9.43380355 18.9508125 2.13039367 11.8702803 2.53952293 11.3594083 10.0193745"></polygon>
                        <g id="编组-3" transform="translate(9.883476, 0.000000)">
                            <mask id="mask-5" fill="white">
                                <use xlink:href="#path-4"></use>
                            </mask>
                            <use id="路径-7" fill="url(#linearGradient-3)" xlink:href="#path-4"></use>
                            <g id="路径-7" mask="url(#mask-5)">
                                <use fill="black" fill-opacity="1" filter="url(#filter-7)" xlink:href="#path-6"></use>
                                <use fill="#272727" fill-rule="evenodd" xlink:href="#path-6"></use>
                            </g>
                        </g>
                        <g id="编组-28" transform="translate(3.062297, 8.394342)">
                            <mask id="mask-9" fill="white">
                                <use xlink:href="#path-8"></use>
                            </mask>
                            <use id="路径-5" stroke="#3A3B3C" stroke-width="0.25" fill="#FFFCFC" xlink:href="#path-8"></use>
                            <g id="@" mask="url(#mask-9)" fill="#CD4444" fill-rule="nonzero">
                                <g transform="translate(21.194967, 18.818484) rotate(30.000000) translate(-21.194967, -18.818484) translate(9.840833, 7.950786)" id="形状">
                                    <path d="M11.3897275,21.7353967 C9.68126839,21.7353967 8.13099992,21.4625178 6.73892211,20.91676 C5.34684431,20.3710022 4.14855006,19.6077323 3.14403937,18.6269502 C2.13952868,17.6461681 1.36439444,16.4913763 0.818636665,15.1625748 C0.272878888,13.8337732 -7.10542736e-14,12.3863287 -7.10542736e-14,10.8202411 C-7.10542736e-14,9.26997267 0.272878888,7.8383472 0.818636665,6.52536472 C1.36439444,5.21238225 2.14348344,4.06549996 3.15590367,3.08471787 C4.16832389,2.10393578 5.37848244,1.34462061 6.78637931,0.806772366 C8.19427619,0.268924122 9.76036372,0 11.4846419,0 C13.1456438,0 14.6642742,0.257059822 16.0405329,0.771179467 C17.4167917,1.28529911 18.6032216,2.00902138 19.5998228,2.94234628 C20.5964239,3.87567117 21.3636486,4.97114149 21.9014969,6.22875724 C22.4393451,7.48637298 22.7082692,8.85867696 22.7082692,10.3456692 C22.7082692,11.753566 22.5065761,12.9558151 22.10319,13.9524162 C21.6998038,14.9490174 21.1342722,15.7083325 20.4065951,16.2303617 C19.6789181,16.7523909 18.8246885,17.0134055 17.8439064,17.0134055 C16.76821,17.0134055 15.9139804,16.6970242 15.2812178,16.0642615 C14.6484551,15.4314989 14.3320738,14.5060835 14.3320738,13.2880154 L14.3320738,12.1964999 L14.4032596,10.9151555 L14.1897022,7.47450868 L14.1897022,5.19656318 L17.4167917,5.19656318 L17.4167917,12.8846293 C17.4167917,13.4541156 17.5275251,13.8495923 17.748992,14.0710592 C17.970459,14.2925261 18.2393831,14.4032596 18.5557644,14.4032596 C18.9196029,14.4032596 19.2320295,14.260888 19.4930441,13.9761448 C19.7540587,13.6914016 19.9557518,13.2524225 20.0981234,12.6592076 C20.2404949,12.0659926 20.3116807,11.3106322 20.3116807,10.3931264 C20.3116807,9.19087734 20.1020781,8.09145226 19.6828729,7.0948511 C19.2636676,6.09824994 18.6625431,5.23611085 17.8794993,4.50843381 C17.0964556,3.78075677 16.1631307,3.2231347 15.0795247,2.83556758 C13.9959186,2.44800046 12.7976244,2.2542169 11.4846419,2.2542169 C10.1716594,2.2542169 8.96941042,2.4677743 7.87789487,2.89488908 C6.78637931,3.32200386 5.85305442,3.9191736 5.07792019,4.6863983 C4.30278595,5.453623 3.70561621,6.35926453 3.28641096,7.40332289 C2.86720571,8.44738124 2.65760309,9.58635399 2.65760309,10.8202411 C2.65760309,12.0857664 2.86325095,13.244513 3.27454666,14.2964809 C3.68584238,15.3484488 4.27510259,16.2580451 5.04232729,17.0252698 C5.80955199,17.7924945 6.73101258,18.3896642 7.80670907,18.816779 C8.88240556,19.2438938 10.076745,19.4574512 11.3897275,19.4574512 C12.1490427,19.4574512 12.9320865,19.3744011 13.7388588,19.2083009 C14.5456312,19.0422007 15.3207654,18.7772313 16.0642615,18.4133928 L16.8235767,20.5964239 C16.0958997,20.9602624 15.2456249,21.2410509 14.2727523,21.4387892 C13.2998797,21.6365275 12.3388715,21.7353967 11.3897275,21.7353967 Z M10.535498,17.0134055 C9.52307773,17.0134055 8.60161714,16.7642552 7.77111617,16.2659546 C6.94061521,15.767654 6.2801692,15.0637056 5.78977816,14.1541093 C5.29938711,13.244513 5.05419159,12.1964999 5.05419159,11.0100699 C5.05419159,9.82363998 5.29543234,8.77958163 5.77791386,7.87789487 C6.26039537,6.9762081 6.91688661,6.27621443 7.74738757,5.77791386 C8.57788854,5.27961328 9.50725866,5.03046299 10.535498,5.03046299 C11.5795563,5.03046299 12.4733335,5.26774898 13.2168296,5.74232096 C13.9603257,6.21689294 14.5298121,6.89711277 14.9252888,7.78298047 C15.3207654,8.66884817 15.5185037,9.74454465 15.5185037,11.0100699 C15.5185037,12.2597761 15.328675,13.3354726 14.9490174,14.2371594 C14.5693598,15.1388462 14.0117377,15.8269755 13.2761511,16.3015475 C12.5405646,16.7761195 11.6270135,17.0134055 10.535498,17.0134055 Z M11.2710845,14.2846166 C11.8405709,14.2846166 12.3507358,14.1541093 12.8015792,13.8930947 C13.2524225,13.6320801 13.6043968,13.2563773 13.8575018,12.7659863 C14.1106069,12.2755952 14.2371594,11.6902898 14.2371594,11.0100699 C14.2371594,10.314031 14.1106069,9.72872559 13.8575018,9.25415361 C13.6043968,8.77958163 13.2524225,8.41574311 12.8015792,8.16263805 C12.3507358,7.909533 11.8405709,7.78298047 11.2710845,7.78298047 C10.7015981,7.78298047 10.195388,7.909533 9.75245419,8.16263805 C9.30952034,8.41574311 8.96150089,8.7835364 8.70839583,9.26601791 C8.45529078,9.74849942 8.32873825,10.3298501 8.32873825,11.0100699 C8.32873825,11.6902898 8.45529078,12.2716404 8.70839583,12.754122 C8.96150089,13.2366035 9.30952034,13.6123063 9.75245419,13.8812304 C10.195388,14.1501545 10.7015981,14.2846166 11.2710845,14.2846166 Z"></path>
                                </g>
                            </g>
                        </g>
                        <path d="M15.9664435,41.2909714 C17.5184293,41.0591845 18.7765625,42.1161646 18.7765625,43.6518027 C18.7765625,45.1874408 17.5184293,46.6202219 15.9664435,46.8520089 C14.4144577,47.0837959 13.1563245,46.0268157 13.1563245,44.4911776 C13.1563245,42.9555395 14.4144577,41.5227584 15.9664435,41.2909714 Z M17.8682412,43.7593732 C17.8683553,42.7154461 17.0213525,41.9913553 15.9664435,42.1335529 C15.4570986,42.2095667 14.969017,42.4845686 14.6115335,42.8969557 C14.25405,43.3093428 14.0570437,43.8246468 14.0646458,44.327435 C14.0492866,44.831014 14.2398619,45.2886032 14.5928734,45.5957592 C14.9458849,45.9029151 15.4312042,46.0334057 15.9380585,45.9574947 C16.4523068,45.8883453 16.947763,45.6155921 17.3114326,45.2014396 C17.6751022,44.7872871 17.8759756,44.2670497 17.8682412,43.7593732 Z M24.5954956,41.0975901 L23.2613988,41.2968356 L23.2613988,40.3980821 L26.8379138,39.8639344 L26.8379138,40.7346019 L25.532202,40.9296082 L25.532202,45.1986875 L24.5954956,45.3385833 L24.5954956,41.0975901 Z M22.693698,41.381621 L21.3596011,41.5808665 L21.3596011,45.8218598 L20.4512798,45.9575163 L20.4512798,41.7446091 L19.0887979,41.948094 L19.0887979,41.0774265 L22.693698,40.5390395 L22.693698,41.381621 Z M28.1152406,39.6731674 L28.9384068,39.5502286 L28.9384068,44.6899754 L28.1152406,44.8129142 L28.1152406,39.6731674 Z M11.6803025,45.1609963 C11.4598436,46.0387712 10.6887326,46.7435176 9.80688984,46.8731764 C9.30003562,46.9491047 8.81471626,46.8185968 8.46170474,46.5114409 C8.10869323,46.2042849 7.91811793,45.7466957 7.9334772,45.2431168 C7.92587503,44.7403286 8.12288133,44.2250245 8.48036488,43.8126374 C8.83784842,43.4002504 9.32593001,43.1252484 9.83527488,43.0492346 C10.7065348,42.9297893 11.4625376,43.4038046 11.6803025,44.2060707 L12.6170088,44.0661749 C12.3706918,42.7572453 11.1890477,41.9534861 9.80688984,42.1547203 C9.05659309,42.2741232 8.34042605,42.6850228 7.817918,43.2958896 C7.29540995,43.9067564 7.00996093,44.6668511 7.02515592,45.4068594 C7.02515592,46.9424975 8.28328903,47.9994776 9.83527488,47.7676907 C11.2109108,47.5548275 12.3831676,46.3973807 12.6170088,45.0211005 L11.6803025,45.1609963 Z" id="形状结合" fill="#000000" fill-rule="nonzero"></path>
                    </g>
                </g>
            </g>
        </g>
    </g>
</svg>