<?xml version="1.0" encoding="UTF-8"?>
<svg width="20px" height="20px" viewBox="0 0 20 20" version="1.1" xmlns="http://www.w3.org/2000/svg" xmlns:xlink="http://www.w3.org/1999/xlink">
    <title>icon_more_mendian</title>
    <g id="1.6确认订单" stroke="none" stroke-width="1" fill="none" fill-rule="evenodd">
        <g id="确认订单-确认支付-选择门店（通用）" transform="translate(-302.000000, -640.000000)">
            <g id="编组-13备份" transform="translate(-0.000000, 564.000000)">
                <g id="编组-13备份-7" transform="translate(16.000000, 48.000000)">
                    <g id="编组-11" transform="translate(272.000000, 28.000000)">
                        <g id="图标_网点备份-2" transform="translate(14.000000, 0.000000)">
                            <rect id="bounds" fill-opacity="0.338428442" fill="#1C8FF8" opacity="0" x="0" y="0" width="20" height="20"></rect>
                            <g id="编组-2" transform="translate(1.236068, 2.000000)">
                                <path d="M16.0730649,7.71235707 L16.0730649,13.5278469 C16.0730649,14.6324164 15.1776344,15.5278469 14.0730649,15.5278469 L3.45254636,15.5278469 C2.34797686,15.5278469 1.45254636,14.6324164 1.45254636,13.5278469 L1.45254636,7.71235707 L1.45254636,7.71235707" id="路径" stroke="#333333" stroke-width="1.4" stroke-linecap="round"></path>
                                <path d="M14.527864,0.7 C14.7740659,0.7 15.0097023,0.769550772 15.2113145,0.894153949 C15.4129267,1.01875713 15.5805146,1.19841271 15.6906194,1.41862233 L16.6906194,3.41862233 C16.8511624,3.73970835 16.866361,4.0954701 16.7611523,4.4110961 C16.6559437,4.72672209 16.4303277,5.00221234 16.1092417,5.16275535 C15.9287297,5.25301138 15.7296827,5.3 15.5264466,5.30000144 L14.5290404,5.3020211 C14.3925216,5.87403738 13.8780788,6.3 13.263932,6.3 C12.6494664,6.3 12.1348084,5.87359505 11.9986113,5.30113023 L2,5.3 C1.64101491,5.3 1.31601491,5.15449254 1.08076118,4.91923882 C0.845507456,4.68398509 0.7,4.35898509 0.7,4 C0.7,3.79818138 0.746988619,3.59913439 0.837244652,3.41862233 L1.83724465,1.41862233 C1.94734946,1.19841271 2.11493738,1.01875713 2.31654955,0.894153949 C2.51816173,0.769550772 2.75379816,0.7 3,0.7 Z" id="形状结合" stroke="#333333" stroke-width="1.4" fill-rule="nonzero"></path>
                                <path d="M9.5385557,10.3851692 C9.7836945,9.78400469 9.56738,9.29109901 9.08609347,9.0814159 C8.59819586,8.86899898 8.113736,9.07294109 7.87441495,9.66016316 C7.63218503,10.2544931 7.82655074,10.7621614 8.31444836,10.9748517 C8.79573489,11.1845348 9.29077247,10.9934416 9.5385557,10.3851692 M12.0036948,11.2312829 C11.4996661,12.4680579 10.6640257,12.9341722 9.84187199,12.5760433 C9.38755866,12.3781156 9.15114648,12.0309219 9.17124416,11.5757428 C8.77960386,11.860879 8.31127504,11.9092674 7.78344651,11.6790808 C6.92109739,11.3034555 6.52654821,10.301788 6.95203724,9.25829331 C7.37435295,8.2219065 8.33692602,7.81101508 9.20562177,8.18964756 C9.64671295,8.3818343 9.92966712,8.69212157 10.0491954,9.0942648 L10.2152657,8.68638057 L11.1244213,9.08250942 L10.211828,11.3212252 C10.0766975,11.6528362 10.171897,11.8245194 10.3522473,11.9032531 C10.6597947,12.0372097 10.9961663,11.7523468 11.3230181,10.9507942 C11.8947442,9.54807701 11.2862605,8.14399296 9.80273441,7.49772062 C8.31206837,6.8484411 6.888042,7.46491492 6.29939155,8.90918596 C5.69937004,10.3807951 6.24994068,11.8491236 7.73399564,12.4956694 C8.15498914,12.6791079 8.66615775,12.7961149 9.17468192,12.7652229 L9.12946215,13.4943296 C8.63442457,13.5306893 7.99156327,13.389078 7.4634703,13.1588913 C5.53197752,12.317425 4.80713885,10.407313 5.55075299,8.58304261 C6.28590495,6.77954913 8.12510706,5.99412594 10.0700864,6.8413332 C11.9484261,7.65956209 12.7105513,9.49668141 12.0036948,11.2312829" id="Fill-1" fill="#E35E51"></path>
                            </g>
                        </g>
                    </g>
                </g>
            </g>
        </g>
    </g>
</svg>