<?xml version="1.0" encoding="UTF-8"?>
<svg width="38px" height="15px" viewBox="0 0 38 15" version="1.1" xmlns="http://www.w3.org/2000/svg" xmlns:xlink="http://www.w3.org/1999/xlink">
    <title>推荐</title>
    <g id="页面-1" stroke="none" stroke-width="1" fill="none" fill-rule="evenodd">
        <g id="确认订单-可用优惠券备份" transform="translate(-321.000000, -569.000000)">
            <g id="全场任饮" transform="translate(16.000000, 569.000000)">
                <g id="编组-8" transform="translate(105.000000, 0.000000)">
                    <g id="推荐" transform="translate(200.000000, 0.000000)">
                        <path d="M32,0.25 C33.5878187,0.25 35.0253187,0.893590672 36.065864,1.93413601 C37.1064093,2.97468134 37.75,4.41218134 37.75,6 L37.75,14.75 L6,14.75 C4.41218134,14.75 2.97468134,14.1064093 1.93413601,13.065864 C0.893590672,12.0253187 0.25,10.5878187 0.25,9 L0.25,0.25 Z" id="矩形" stroke="#FFFFFF" stroke-width="0.5" fill="#FBE7E5"></path>
                        <g transform="translate(9.330000, 2.780000)" fill="#CD4444" fill-rule="nonzero" id="形状">
                            <g>
                                <path d="M4.93,4.61 L6.48,4.61 L6.48,5.72 L4.93,5.72 L4.93,4.61 Z M4.93,6.6 L6.48,6.6 L6.48,7.84 L4.93,7.84 L4.93,6.6 Z M4.93,8.75 L9.16,8.75 L9.16,7.84 L7.42,7.84 L7.42,6.6 L8.85,6.6 L8.85,5.72 L7.42,5.72 L7.42,4.61 L8.85,4.61 L8.85,3.72 L7.42,3.72 L7.42,2.57 L9.05,2.57 L9.05,1.66 L7.52,1.66 C7.4,1.16 7.22,0.61 7,0 L6.09,0.24 C6.29,0.7 6.47,1.18 6.63,1.66 L5.1,1.66 C5.3,1.2 5.47,0.72 5.61,0.22 L4.69,0.04 C4.37,1.3 3.81,2.45 3.02,3.51 L3.34,4.51 C3.57,4.23 3.79,3.95 3.99,3.66 L3.99,9.2 L4.93,9.2 L4.93,8.75 Z M6.48,2.57 L6.48,3.72 L4.93,3.72 L4.93,2.57 L6.48,2.57 Z M3.19,4.06 C2.91,4.2 2.63,4.33 2.34,4.45 L2.34,2.7 L3.27,2.7 L3.27,1.78 L2.34,1.78 L2.34,0.02 L1.39,0.02 L1.39,1.78 L0.19,1.78 L0.19,2.7 L1.39,2.7 L1.39,4.8 C0.93,4.94 0.47,5.06 0,5.16 L0.24,6.12 C0.62,6.01 1.01,5.89 1.39,5.76 L1.39,7.88 C1.39,8.12 1.26,8.24 1,8.24 C0.75,8.24 0.49,8.22 0.22,8.18 L0.43,9.1 L1.33,9.1 C2,9.1 2.34,8.77 2.34,8.12 L2.34,5.4 C2.62,5.28 2.91,5.16 3.19,5.03 L3.19,4.06 Z"></path>
                                <path d="M10.3,0.66 L10.3,1.53 L12.5,1.53 L12.5,2.17 L13.46,2.17 L13.46,1.53 L15.88,1.53 L15.88,2.18 L16.84,2.18 L16.84,1.53 L19.04,1.53 L19.04,0.66 L16.84,0.66 L16.84,0.03 L15.88,0.03 L15.88,0.66 L13.46,0.66 L13.46,0.03 L12.5,0.03 L12.5,0.66 L10.3,0.66 Z M10.46,2.75 L10.46,3.62 L12.72,3.62 C12.08,4.54 11.21,5.36 10.09,6.08 L10.69,6.86 C11.11,6.58 11.5,6.28 11.87,5.96 L11.87,9.27 L12.78,9.27 L12.78,5.07 C13.18,4.61 13.53,4.13 13.83,3.62 L18.99,3.62 L18.99,2.75 L14.26,2.75 C14.33,2.58 14.4,2.41 14.46,2.23 L13.54,2.07 C13.45,2.29 13.35,2.52 13.24,2.75 L10.46,2.75 Z M16,5.73 L16,6.21 L13.35,6.21 L13.35,7.11 L16,7.11 L16,8.08 C16,8.28 15.89,8.38 15.69,8.38 C15.42,8.38 15.05,8.36 14.58,8.32 L14.86,9.24 L16.07,9.24 C16.66,9.24 16.96,8.94 16.96,8.35 L16.96,7.11 L19.05,7.11 L19.05,6.21 L16.96,6.21 L16.96,5.98 C17.5,5.58 17.99,5.22 18.41,4.89 L18.41,4.21 L14.05,4.21 L14.05,5.07 L17.05,5.07 C16.61,5.34 16.26,5.56 16,5.73 Z"></path>
                            </g>
                        </g>
                    </g>
                </g>
            </g>
        </g>
    </g>
</svg>