<?xml version="1.0" encoding="UTF-8"?>
<svg width="20px" height="20px" viewBox="0 0 20 20" version="1.1" xmlns="http://www.w3.org/2000/svg" xmlns:xlink="http://www.w3.org/1999/xlink">
    <title>icon_more_mendian</title>
    <defs>
        <path d="M4,0 L339,0 C341.209139,-4.05812251e-16 343,1.790861 343,4 L343,91 C343,93.209139 341.209139,95 339,95 L4,95 C1.790861,95 2.04689834e-15,93.209139 0,91 L0,4 C-2.705415e-16,1.790861 1.790861,2.18216909e-15 4,0 Z" id="path-1"></path>
    </defs>
    <g id="确认订单" stroke="none" stroke-width="1" fill="none" fill-rule="evenodd">
        <g id="确认订单-确认支付-门店过远（外卖）" transform="translate(-302.000000, -640.000000)">
            <g id="编组-13" transform="translate(-0.000000, 564.000000)">
                <g id="编组-12" transform="translate(16.000000, 48.000000)">
                    <mask id="mask-2" fill="white">
                        <use xlink:href="#path-1"></use>
                    </mask>
                    <path stroke="#CD4444" stroke-width="1.2" d="M339,0.6 C339.938884,0.6 340.788884,0.980557963 341.404163,1.59583694 C342.019442,2.21111593 342.4,3.06111593 342.4,4 L342.4,91 C342.4,91.9388841 342.019442,92.7888841 341.404163,93.4041631 C340.788884,94.019442 339.938884,94.4 339,94.4 L4,94.4 C3.06111593,94.4 2.21111593,94.019442 1.59583694,93.4041631 C0.980557963,92.7888841 0.6,91.9388841 0.6,91 L0.6,4 C0.6,3.06111593 0.980557963,2.21111593 1.59583694,1.59583694 C2.21111593,0.980557963 3.06111593,0.6 4,0.6 Z"></path>
                    <g id="服务地址配置" mask="url(#mask-2)">
                        <g transform="translate(292.660000, 34.080000)"></g>
                    </g>
                    <path d="M301,30 C302.104569,30 303,30.8954305 303,32 L303,44 C303,45.1045695 302.104569,46 301,46 L291,46 C289.895431,46 289,45.1045695 289,44 L289,42.221 C289,41.8344007 289.313401,41.521 289.7,41.521 C290.086599,41.521 290.4,41.8344007 290.4,42.221 L290.4,44 L290.4,44 C290.4,44.3313708 290.668629,44.6 291,44.6 L301,44.6 C301.331371,44.6 301.6,44.3313708 301.6,44 L301.6,32 C301.6,31.6686292 301.331371,31.4 301,31.4 L291,31.4 C290.668629,31.4 290.4,31.6686292 290.4,32 L290.4,33.8 C290.4,34.1865993 290.086599,34.5 289.7,34.5 C289.313401,34.5 289,34.1865993 289,33.8 L289,32 L289,32 C289,30.8954305 289.895431,30 291,30 L301,30 Z" id="路径" fill="#333333" fill-rule="nonzero" mask="url(#mask-2)"></path>
                    <path d="M295.997811,34.3027488 C296.822521,34.3027488 297.567329,34.6638695 298.107157,35.2422575 C298.659043,35.8335637 298.997811,36.6511369 298.997811,37.5527488 C298.997811,38.778643 297.935825,40.2206435 295.96643,41.9198218 C294.036724,40.2205125 292.997811,38.7780141 292.997811,37.5527488 C292.997811,36.6511369 293.336579,35.8335637 293.888465,35.2422575 C294.428294,34.6638695 295.173102,34.3027488 295.997811,34.3027488 Z" id="椭圆形" stroke="#CD4444" mask="url(#mask-2)"></path>
                    <path d="M295.57944,36.8843772 C296.161196,36.7110821 296.309112,36.7773066 296.416183,36.8843772 C296.523253,36.9914479 296.589478,37.1393645 296.589478,37.3027488 C296.589478,37.466133 296.523253,37.6140497 296.416183,37.7211203 C296.309112,37.8281909 296.161196,37.8944154 295.997811,37.8944154 C295.834427,37.8944154 295.68651,37.8281909 295.57944,37.7211203 C295.472369,37.6140497 295.406145,37.466133 295.406145,37.3027488 C295.406145,37.1393645 295.472369,36.9914479 295.57944,36.8843772 Z" id="椭圆形" stroke="#CD4444" stroke-width="0.816666667" fill="#E45E51" mask="url(#mask-2)"></path>
                    <g id="编组-14" mask="url(#mask-2)" fill="#333333">
                        <g transform="translate(288.197220, 35.552749)">
                            <path d="M0.5,0 L2.5,0 C2.77614237,-5.07265313e-17 3,0.223857625 3,0.5 C3,0.776142375 2.77614237,1 2.5,1 L0.5,1 C0.223857625,1 3.38176876e-17,0.776142375 0,0.5 C-3.38176876e-17,0.223857625 0.223857625,5.07265313e-17 0.5,0 Z" id="矩形"></path>
                            <path d="M0.5,2 L2.5,2 C2.77614237,2 3,2.22385763 3,2.5 C3,2.77614237 2.77614237,3 2.5,3 L0.5,3 C0.223857625,3 3.38176876e-17,2.77614237 0,2.5 C-3.38176876e-17,2.22385763 0.223857625,2 0.5,2 Z" id="矩形备份-2"></path>
                            <path d="M0.5,4 L2.5,4 C2.77614237,4 3,4.22385763 3,4.5 C3,4.77614237 2.77614237,5 2.5,5 L0.5,5 C0.223857625,5 3.38176876e-17,4.77614237 0,4.5 C-3.38176876e-17,4.22385763 0.223857625,4 0.5,4 Z" id="矩形备份-3"></path>
                        </g>
                    </g>
                </g>
            </g>
        </g>
    </g>
</svg>