<?xml version="1.0" encoding="UTF-8"?>
<svg width="10px" height="10px" viewBox="0 0 10 10" version="1.1" xmlns="http://www.w3.org/2000/svg" xmlns:xlink="http://www.w3.org/1999/xlink">
    <title>提醒</title>
    <g id="确认订单" stroke="none" stroke-width="1" fill="none" fill-rule="evenodd">
        <g id="确认订单-可用优惠券" transform="translate(-203.000000, -703.000000)" fill-rule="nonzero">
            <g id="编组" transform="translate(0.000000, 291.000000)">
                <g id="全部门店可用，部分特价商品不适用-+-全场任饮备份-蒙版" transform="translate(16.000000, 348.000000)">
                    <g id="问题" transform="translate(192.000000, 69.000000) scale(1, -1) translate(-192.000000, -69.000000) translate(187.000000, 64.000000)">
                        <rect id="矩形" fill="#000000" opacity="0" x="0.333333333" y="0.333333333" width="9.33333333" height="9.33333333"></rect>
                        <path d="M7.65285498,2.34723743 C9.11571501,3.81022067 9.11571501,6.19041102 7.65285498,7.65339426 C6.9201617,8.38362251 5.96008085,8.75 5,8.75 C4.03991915,8.75 3.07731177,8.38362251 2.34714502,7.65339426 C0.884284992,6.19041102 0.884284992,3.81022067 2.34714502,2.34723743 C3.81000505,0.88425419 6.18999495,0.88425419 7.65285498,2.34723743 Z M5,1.87979028 C4.20161698,1.87979028 3.40070743,2.18299924 2.79434058,2.79194391 C1.57655382,4.00983324 1.57655382,5.98827171 2.79434058,7.20616104 C3.40323396,7.8151057 4.20161698,8.11831466 5,8.11831466 C5.79838302,8.11831466 6.59676604,7.8151057 7.20565942,7.20616104 C8.42344618,5.98827171 8.42344618,4.00983324 7.20565942,2.79194391 C6.59676604,2.18299924 5.79838302,1.87979028 5,1.87979028 Z M5.41357175,6.32432831 L5.41357175,6.90547882 L4.65639212,6.90547882 L4.65639212,6.32432831 L5.41357175,6.32432831 Z M5.41357175,2.9384949 L5.41357175,5.71791038 L4.65639212,5.71791038 L4.65639212,2.9384949 L5.41357175,2.9384949 Z" id="形状结合" fill="#C67F06"></path>
                    </g>
                </g>
            </g>
        </g>
    </g>
</svg>