<?xml version="1.0" encoding="UTF-8"?>
<svg width="18px" height="18px" viewBox="0 0 18 18" version="1.1" xmlns="http://www.w3.org/2000/svg" xmlns:xlink="http://www.w3.org/1999/xlink">
    <title>形状备份</title>
    <g id="我的-优惠券-10.31" stroke="none" stroke-width="1" fill="none" fill-rule="evenodd">
        <g id="确认订单-可用优惠券备份" transform="translate(-331.000000, -470.000000)" fill-rule="nonzero">
            <g id="编组" transform="translate(0.000000, 350.000000)">
                <g id="全场任饮" transform="translate(16.000000, 90.000000)">
                    <g id="编组-4" transform="translate(0.000000, 0.000000)">
                        <g id="编组-8" transform="translate(105.000000, 0.000000)">
                            <g id="编组-23" transform="translate(210.000000, 30.000000)">
                                <path d="M12.8364098,6 L11.8743275,6 C11.66509,6 11.4661092,6.0924601 11.3430283,6.25096313 L8.118309,10.3644941 L6.65774912,8.50019656 C6.53466823,8.34358047 6.33773881,8.24923343 6.12644995,8.24923343 L5.16436766,8.24923343 C5.03103003,8.24923343 4.9530788,8.38886705 5.03103003,8.48887491 L7.58700983,11.7495086 C7.84753105,12.0834971 8.38703561,12.0834971 8.64755683,11.7495086 L12.967696,6.23964148 C13.0476986,6.13963362 12.9697474,6 12.8364098,6 Z" id="路径备份" fill="#CD4444"></path>
                                <path d="M9,1.375 C11.105385,1.375 13.0116442,2.22854199 14.3915511,3.60844889 C15.771458,4.98835578 16.625,6.89461496 16.625,9 C16.625,11.105385 15.771458,13.0116442 14.3915511,14.3915511 C13.0116442,15.771458 11.105385,16.625 9,16.625 C6.89461496,16.625 4.98835578,15.771458 3.60844889,14.3915511 C2.22854199,13.0116442 1.375,11.105385 1.375,9 C1.375,6.89461496 2.22854199,4.98835578 3.60844889,3.60844889 C4.98835578,2.22854199 6.89461496,1.375 9,1.375 Z" id="形状备份" stroke="#CD4444" stroke-width="1.25"></path>
                            </g>
                        </g>
                    </g>
                </g>
            </g>
        </g>
    </g>
</svg>