<?xml version="1.0" encoding="UTF-8"?>
<svg width="18px" height="18px" viewBox="0 0 18 18" version="1.1" xmlns="http://www.w3.org/2000/svg" xmlns:xlink="http://www.w3.org/1999/xlink">
    <title>形状备份</title>
    <g id="确认订单" stroke="none" stroke-width="1" fill="none" fill-rule="evenodd">
        <g id="确认订单-可用抵用券" transform="translate(-333.000000, -485.000000)" fill="#CD4444" fill-rule="nonzero">
            <g id="编组" transform="translate(0.000000, 330.000000)">
                <g id="抖音券" transform="translate(16.000000, 120.000000)">
                    <g id="编组-8" transform="translate(97.000000, 12.000000)">
                        <g id="编组-23" transform="translate(220.000000, 23.000000)">
                            <path d="M9,0.75 C13.5559809,0.75 17.25,4.44401906 17.25,9 C17.25,13.5559809 13.5559809,17.25 9,17.25 C4.44401906,17.25 0.75,13.5559809 0.75,9 C0.75,4.44401906 4.44401906,0.75 9,0.75 Z M12.8364098,6 L11.8743275,6 C11.66509,6 11.4661092,6.0924601 11.3430283,6.25096313 L8.118309,10.3644941 L6.65774912,8.50019656 C6.53466823,8.34358047 6.33773881,8.24923343 6.12644995,8.24923343 L5.16436766,8.24923343 C5.03103003,8.24923343 4.9530788,8.38886705 5.03103003,8.48887491 L7.58700983,11.7495086 C7.84753105,12.0834971 8.38703561,12.0834971 8.64755683,11.7495086 L12.967696,6.23964148 C13.0476986,6.13963362 12.9697474,6 12.8364098,6 Z" id="形状结合"></path>
                        </g>
                    </g>
                </g>
            </g>
        </g>
    </g>
</svg>