<?xml version="1.0" encoding="UTF-8"?>
<svg width="13px" height="13px" viewBox="0 0 13 13" version="1.1" xmlns="http://www.w3.org/2000/svg" xmlns:xlink="http://www.w3.org/1999/xlink">
    <title>配送费</title>
    <g id="确认订单" stroke="none" stroke-width="1" fill="none" fill-rule="evenodd">
        <g id="确认订单-到店自取（外卖配送）备份" transform="translate(-285.000000, -241.000000)">
            <g id="编组-18备份-2" transform="translate(285.000000, 240.500000)">
                <g id="编组-11" transform="translate(0.500000, 0.000000)">
                    <path d="M5.97520935,1 C5.97520935,1 9.71000487,3.00457339 11.4529005,3.06923483 C11.5953669,3.84177249 11.4834625,8.220775 10.1347879,10.3331175 C9.15959276,11.7341566 7.00935515,12.6135962 6.04783112,12.984319 C5.94873922,13.022513 5.90258758,12.9789237 5.90258758,12.9789237 C5.15792265,12.6961778 2.66633723,11.5832661 1.85591961,10.3331037 C0.631733665,8.47942075 0.392563463,3.8236458 0.537807002,3.06923483 C2.28070263,3.0045734 5.91295829,1 5.91295829,1 L5.91295829,1 Z M8.23044128,4.2067497 L5.35359692,7.89593042 L3.81927993,6.46944721 L3.10006883,7.40403965 L5.49743914,9.66673716 L9.09349459,5.04296401 L8.23044128,4.2067497 Z" id="形状结合" fill="#CD4444" fill-rule="nonzero"></path>
                    <rect id="矩形" x="0" y="0" width="12" height="13"></rect>
                </g>
            </g>
        </g>
    </g>
</svg>