<?xml version="1.0" encoding="UTF-8"?>
<svg width="49px" height="49px" viewBox="0 0 49 49" version="1.1" xmlns="http://www.w3.org/2000/svg" xmlns:xlink="http://www.w3.org/1999/xlink">
    <title>登录@3x</title>
    <defs>
        <linearGradient x1="9.25467041%" y1="-0.97549066%" x2="100%" y2="65.4509633%" id="linearGradient-1">
            <stop stop-color="#E5E6E7" offset="0%"></stop>
            <stop stop-color="#C4C5C6" offset="100%"></stop>
        </linearGradient>
    </defs>
    <g id="确认订单" stroke="none" stroke-width="1" fill="none" fill-rule="evenodd">
        <g id="确认订单-到店自取-不支持堂食" transform="translate(-283.000000, -161.000000)">
            <g id="地址导航" transform="translate(264.000000, 146.715729)">
                <g id="Default/收货地址" transform="translate(19.000000, 0.000000)">
                    <g id="登录" transform="translate(0.000000, 14.284271)" fill-rule="nonzero">
                        <g>
                            <path d="M37.5857896,25.2978341 C39.106616,25.2978341 40.3497734,26.4866762 40.4366305,27.9857292 L40.4414782,28.1535226 L40.4414782,39.2858955 C40.4414782,40.8067218 39.2526361,42.0498792 37.753583,42.1367363 L37.5857896,42.1415841 L12.9969309,42.1415841 C11.4761046,42.1415841 10.2329472,40.9527419 10.1460901,39.4536889 L10.1412424,39.2858955 L10.1412424,28.1535226 C10.1412424,26.6326963 11.3300845,25.3895389 12.8291376,25.3026818 L12.9969309,25.2978341 L37.5857896,25.2978341 Z M18.8902424,36.9518341 L11.447668,39.7961598 C11.6475759,40.4034694 12.1946169,40.8531484 12.8540005,40.9104065 L12.9969309,40.9165841 L20.4902424,40.9158341 L18.8902424,36.9518341 Z M32.2152424,31.8618341 L20.0352424,36.5148341 L21.8112424,40.9158341 L35.8502424,40.9158341 L32.2152424,31.8618341 Z M39.2162424,29.1868341 L33.3592424,31.4248341 L37.1702424,40.9158341 L37.5857896,40.9165841 C38.4389938,40.9165841 39.1391549,40.2613285 39.2104926,39.4265975 L39.2164782,39.2858955 L39.2162424,29.1868341 Z M14.6812424,26.5228341 L12.9969309,26.5228341 C12.1437267,26.5228341 11.4435657,27.1780896 11.372228,28.0128206 L11.3662424,28.1535226 L11.3662424,38.5138341 L18.4312424,35.8148341 L14.6812424,26.5228341 Z M37.5857896,26.5228341 L16.0022424,26.5228341 L19.5762424,35.3778341 L39.194368,27.8843553 C39.0735762,27.1570994 38.4715212,26.5924913 37.7264917,26.5288197 L37.5857896,26.5228341 Z" id="形状" fill="url(#linearGradient-1)"></path>
                            <g id="定位" transform="translate(16.000000, 15.595517)" fill="#CD4444">
                                <path d="M6.45183824,0 C10.0150901,0 12.9036765,2.83168778 12.9036765,6.32475167 C12.9036765,7.52271739 12.5639252,8.64289303 11.9737277,9.59773271 L11.9747897,9.59710367 L11.957103,9.62447901 C11.92795,9.67112089 11.8981975,9.71736371 11.867856,9.76319718 L7.73723438,16.100767 C7.45709763,16.5307371 6.97260271,16.7909483 6.45216531,16.7909483 C5.93172791,16.7909483 5.44723298,16.5307371 5.16709624,16.100767 L1.0813896,9.83107591 C1.03469581,9.76248407 0.989333067,9.6929472 0.945337559,9.62250079 L0.929540924,9.59710367 C0.339751265,8.64289303 0,7.52271739 0,6.32475167 C0,2.83168778 2.88858637,0 6.45183824,0 Z M6.45183824,3.94439293 C5.11078674,3.94439293 4.0236497,5.01011584 4.0236497,6.32475167 C4.0236497,7.63938749 5.11078674,8.7051104 6.45183824,8.7051104 C7.79288973,8.7051104 8.88002677,7.63938749 8.88002677,6.32475167 C8.88002677,5.01011584 7.79288973,3.94439293 6.45183824,3.94439293 Z" id="形状结合"></path>
                            </g>
                        </g>
                    </g>
                    <polygon id="矩形" fill="#FBE7E5" transform="translate(22.750000, 14.142136) rotate(45.000000) translate(-22.750000, -14.142136) " points="32.75 4.14213562 32.75 24.1421356 12.75 24.1421356"></polygon>
                </g>
            </g>
        </g>
    </g>
</svg>