<?xml version="1.0" encoding="UTF-8"?>
<svg width="18px" height="18px" viewBox="0 0 18 18" version="1.1" xmlns="http://www.w3.org/2000/svg" xmlns:xlink="http://www.w3.org/1999/xlink">
    <title>形状备份 2</title>
    <g id="我的-优惠券-10.31" stroke="none" stroke-width="1" fill="none" fill-rule="evenodd">
        <g id="确认订单-可用优惠券备份" transform="translate(-331.000000, -569.000000)" fill-rule="nonzero" stroke="#979797" stroke-width="1.25">
            <g id="编组" transform="translate(0.000000, 350.000000)">
                <g id="全部门店可用，部分特价商品不适用-+-全场任饮备份-蒙版" transform="translate(16.000000, 189.000000)">
                    <g id="全场任饮备份" transform="translate(0.000000, 0.000000)">
                        <g id="编组-8" transform="translate(105.000000, 12.000000)">
                            <g id="形状备份-3" transform="translate(212.000000, 20.000000)">
                                <path d="M7,-0.625 C9.10538504,-0.625 11.0116442,0.228541992 12.3915511,1.60844889 C13.771458,2.98835578 14.625,4.89461496 14.625,7 C14.625,9.10538504 13.771458,11.0116442 12.3915511,12.3915511 C11.0116442,13.771458 9.10538504,14.625 7,14.625 C4.89461496,14.625 2.98835578,13.771458 1.60844889,12.3915511 C0.228541992,11.0116442 -0.625,9.10538504 -0.625,7 C-0.625,4.89461496 0.228541992,2.98835578 1.60844889,1.60844889 C2.98835578,0.228541992 4.89461496,-0.625 7,-0.625 Z" id="形状备份-2"></path>
                            </g>
                        </g>
                    </g>
                </g>
            </g>
        </g>
    </g>
</svg>