<?xml version="1.0" encoding="UTF-8"?>
<svg width="171px" height="19px" viewBox="0 0 171 19" version="1.1" xmlns="http://www.w3.org/2000/svg" xmlns:xlink="http://www.w3.org/1999/xlink">
    <title>编组 17</title>
    <g id="首页" stroke="none" stroke-width="1" fill="none" fill-rule="evenodd">
        <g id="首页_拓宽" transform="translate(-102.000000, -1547.000000)">
            <g id="编组-17" transform="translate(102.000000, 1547.001519)">
                <g id="编组-18" transform="translate(24.996000, 3.242631)">
                    <g id="EVERY-DAY" transform="translate(0.000000, 3.357369)" fill="#3A3B3C" fill-rule="nonzero">
                        <path d="M1.788,3.384 L5.832,3.384 L5.832,4.896 L1.788,4.896 L1.788,3.384 Z M1.932,6.84 L6.504,6.84 L6.504,8.4 L0,8.4 L0,0 L6.348,0 L6.348,1.56 L1.932,1.56 L1.932,6.84 Z" id="形状"></path>
                        <polygon id="路径" points="10.452 8.4 6.828 0 8.928 0 12.096 7.44 10.86 7.44 14.076 0 16.008 0 12.372 8.4"></polygon>
                        <path d="M18.492,3.384 L22.536,3.384 L22.536,4.896 L18.492,4.896 L18.492,3.384 Z M18.636,6.84 L23.208,6.84 L23.208,8.4 L16.704,8.4 L16.704,0 L23.052,0 L23.052,1.56 L18.636,1.56 L18.636,6.84 Z" id="形状"></path>
                        <path d="M24.756,8.4 L24.756,0 L28.392,0 C29.144,0 29.792,0.122 30.336,0.366 C30.88,0.61 31.3,0.96 31.596,1.416 C31.892,1.872 32.04,2.416 32.04,3.048 C32.04,3.672 31.892,4.21 31.596,4.662 C31.3,5.114 30.88,5.46 30.336,5.7 C29.792,5.94 29.144,6.06 28.392,6.06 L25.836,6.06 L26.7,5.208 L26.7,8.4 L24.756,8.4 Z M30.096,8.4 L27.996,5.352 L30.072,5.352 L32.196,8.4 L30.096,8.4 Z M26.7,5.424 L25.836,4.512 L28.284,4.512 C28.884,4.512 29.332,4.382 29.628,4.122 C29.924,3.862 30.072,3.504 30.072,3.048 C30.072,2.584 29.924,2.224 29.628,1.968 C29.332,1.712 28.884,1.584 28.284,1.584 L25.836,1.584 L26.7,0.66 L26.7,5.424 Z" id="形状"></path>
                        <polygon id="路径" points="35.544 8.4 35.544 4.968 35.988 6.144 32.292 0 34.356 0 37.188 4.716 36 4.716 38.844 0 40.752 0 37.056 6.144 37.488 4.968 37.488 8.4"></polygon>
                        <path d="M44.964,8.4 L44.964,0 L48.78,0 C49.692,0 50.496,0.174 51.192,0.522 C51.888,0.87 52.432,1.356 52.824,1.98 C53.216,2.604 53.412,3.344 53.412,4.2 C53.412,5.048 53.216,5.786 52.824,6.414 C52.432,7.042 51.888,7.53 51.192,7.878 C50.496,8.226 49.692,8.4 48.78,8.4 L44.964,8.4 Z M46.908,6.804 L48.684,6.804 C49.244,6.804 49.73,6.698 50.142,6.486 C50.554,6.274 50.874,5.972 51.102,5.58 C51.33,5.188 51.444,4.728 51.444,4.2 C51.444,3.664 51.33,3.202 51.102,2.814 C50.874,2.426 50.554,2.126 50.142,1.914 C49.73,1.702 49.244,1.596 48.684,1.596 L46.908,1.596 L46.908,6.804 Z" id="形状"></path>
                        <path d="M53.652,8.4 L57.396,0 L59.316,0 L63.072,8.4 L61.032,8.4 L57.96,0.984 L58.728,0.984 L55.644,8.4 L53.652,8.4 Z M55.524,6.6 L56.04,5.124 L60.36,5.124 L60.888,6.6 L55.524,6.6 Z" id="形状"></path>
                        <polygon id="路径" points="65.52 8.4 65.52 4.968 65.964 6.144 62.268 0 64.332 0 67.164 4.716 65.976 4.716 68.82 0 70.728 0 67.032 6.144 67.464 4.968 67.464 8.4"></polygon>
                    </g>
                    <g id="@" transform="translate(77.397508, 7.634541) rotate(30.000000) translate(-77.397508, -7.634541) translate(71.652599, 2.135757)" fill="#CD4444" fill-rule="nonzero">
                        <path d="M5.76291754,10.9975676 C4.89847991,10.9975676 4.1140828,10.8594977 3.40972621,10.5833579 C2.70536962,10.3072181 2.09906267,9.92102262 1.59080536,9.42477139 C1.08254805,8.92852015 0.690349496,8.34422435 0.414209698,7.67188397 C0.138069899,6.99954359 0,6.26717282 0,5.47477166 C0,4.69037455 0.138069899,3.96600783 0.414209698,3.3016715 C0.690349496,2.63733518 1.08454906,2.0570414 1.5968084,1.56079017 C2.10906774,1.06453893 2.72137773,0.680344431 3.43373836,0.408206659 C4.146099,0.136068886 4.93850017,3.41060513e-13 5.81094185,3.41060513e-13 C6.65136732,3.41060513e-13 7.41975633,0.130065847 8.11610886,0.390197541 C8.8124614,0.650329236 9.41276531,1.01651462 9.91702059,1.4887537 C10.4212759,1.96099277 10.8094724,2.51527338 11.0816102,3.15159553 C11.353748,3.78791767 11.4898168,4.48226919 11.4898168,5.23465009 C11.4898168,5.94701073 11.3877652,6.5553187 11.1836618,7.05957398 C10.9795585,7.56382927 10.6934136,7.94802377 10.3252273,8.21215749 C9.95704085,8.47629121 9.52482204,8.60835807 9.02857081,8.60835807 C8.48429526,8.60835807 8.05207645,8.44827703 7.73191436,8.12811494 C7.41175227,7.80795286 7.25167123,7.33971581 7.25167123,6.72340379 L7.25167123,6.17112419 L7.28768947,5.52279597 L7.17963476,3.78191463 L7.17963476,2.62933113 L8.8124614,2.62933113 L8.8124614,6.51930046 C8.8124614,6.80744634 8.86848976,7.00754764 8.98054649,7.11960437 C9.09260322,7.2316611 9.22867211,7.28768947 9.38875315,7.28768947 C9.57284635,7.28768947 9.73092638,7.215653 9.86299324,7.07158006 C9.9950601,6.92750712 10.0971118,6.70539467 10.1691482,6.40524272 C10.2411847,6.10509076 10.2772029,5.72289727 10.2772029,5.25866225 C10.2772029,4.65035429 10.1711492,4.09407267 9.95904187,3.58981738 C9.74693448,3.0855621 9.4427805,2.64934126 9.04657992,2.28115486 C8.65037934,1.91296846 8.17814027,1.63082562 7.6298627,1.43472634 C7.08158512,1.23862707 6.47527818,1.14057743 5.81094185,1.14057743 C5.14660552,1.14057743 4.53829756,1.24863213 3.98601796,1.46474154 C3.43373836,1.68085095 2.96149929,1.98300392 2.56930073,2.37120044 C2.17710218,2.75939697 1.87494921,3.21762896 1.66284183,3.7458964 C1.45073445,4.27416384 1.34468076,4.85045559 1.34468076,5.47477166 C1.34468076,6.11509583 1.44873344,6.70139265 1.65683879,7.23366212 C1.86494415,7.76593158 2.16309509,8.22616458 2.55129162,8.61436111 C2.93948815,9.00255764 3.40572418,9.3047106 3.94999973,9.52082001 C4.49427527,9.73692942 5.09858121,9.84498412 5.76291754,9.84498412 C6.14711204,9.84498412 6.54331262,9.80296285 6.95151928,9.7189203 C7.35972594,9.63487775 7.75192449,9.50080988 8.12811494,9.31671668 L8.51230944,10.4212759 C8.14412305,10.6053691 7.71390524,10.747441 7.22165604,10.8474917 C6.72940683,10.9475423 6.24316066,10.9975676 5.76291754,10.9975676 Z M5.33069872,8.60835807 C4.81843938,8.60835807 4.35220335,8.48229425 3.93199061,8.23016661 C3.51177787,7.97803896 3.1776087,7.62185864 2.92948308,7.16162565 C2.68135746,6.70139265 2.55729466,6.17112419 2.55729466,5.57082028 C2.55729466,4.97051637 2.67935645,4.44224893 2.92348004,3.98601796 C3.16760363,3.52978699 3.4997718,3.17560768 3.91998453,2.92348004 C4.34019727,2.6713524 4.81043533,2.54528858 5.33069872,2.54528858 C5.85896616,2.54528858 6.31119511,2.66534936 6.68738556,2.90547092 C7.06357601,3.14559249 7.35172188,3.48976673 7.55182319,3.93799365 C7.75192449,4.38622057 7.85197514,4.93049611 7.85197514,5.57082028 C7.85197514,6.2031404 7.75592652,6.74741595 7.56382927,7.20364692 C7.37173201,7.65987789 7.08958918,8.00805416 6.71740075,8.24817572 C6.34521233,8.48829729 5.88297832,8.60835807 5.33069872,8.60835807 Z M5.70288714,7.22765908 C5.99103302,7.22765908 6.2491637,7.16162565 6.47727919,7.02955879 C6.70539467,6.89749193 6.88348483,6.70739569 7.01154967,6.45927007 C7.1396145,6.21114446 7.20364692,5.91499453 7.20364692,5.57082028 C7.20364692,5.21864199 7.1396145,4.92249206 7.01154967,4.6823705 C6.88348483,4.44224893 6.70539467,4.25815573 6.47727919,4.1300909 C6.2491637,4.00202607 5.99103302,3.93799365 5.70288714,3.93799365 C5.41474127,3.93799365 5.1586116,4.00202607 4.93449814,4.1300909 C4.71038468,4.25815573 4.53429553,4.44424995 4.4062307,4.68837354 C4.27816586,4.93249713 4.21413345,5.22664604 4.21413345,5.57082028 C4.21413345,5.91499453 4.27816586,6.20914344 4.4062307,6.45326703 C4.53429553,6.69739062 4.71038468,6.88748686 4.93449814,7.02355575 C5.1586116,7.15962463 5.41474127,7.22765908 5.70288714,7.22765908 Z" id="形状"></path>
                    </g>
                    <path d="M89.5051947,4.55588086 C90.6811139,4.55588086 91.6808888,5.307276 92.051751,6.3559113 L93.9164142,6.3559113 C93.4992704,4.30186456 91.682868,2.75585042 89.5051947,2.75585042 C87.0192308,2.75585042 85.004,4.77063041 85.004,7.25585042 C85.004,9.74107043 87.0192308,11.7558504 89.5051947,11.7558504 C91.682868,11.7558504 93.4992704,10.2096841 93.9164142,8.15578954 L92.051751,8.15578954 C91.6808888,9.20427265 90.6811139,9.95566779 89.5051947,9.95566779 C88.0136773,9.95566779 86.804417,8.74692155 86.804417,7.25585042 C86.804417,5.7646271 88.0136773,4.55588086 89.5051947,4.55588086 M99.3712849,9.95574388 C97.8797674,9.95574388 96.6705072,8.74699765 96.6705072,7.25577432 C96.6705072,5.7647032 97.8797674,4.55595696 99.3712849,4.55595696 C100.862955,4.55595696 102.072063,5.7647032 102.072063,7.25577432 C102.072063,8.74699765 100.862955,9.95574388 99.3712849,9.95574388 M99.3712849,2.75592652 C96.885321,2.75592652 94.8700902,4.77055431 94.8700902,7.25577432 C94.8700902,9.74114653 96.885321,11.7557743 99.3712849,11.7557743 C101.857249,11.7557743 103.87248,9.74114653 103.87248,7.25577432 C103.87248,4.77055431 101.857249,2.75592652 99.3712849,2.75592652 M106.785574,3.0018764 L104.394001,3.0018764 L104.394001,4.80190684 L106.785574,4.80190684 L106.785574,11.5096722 L108.586144,11.5096722 L108.586144,4.80190684 L110.977717,4.80190684 L110.977717,3.0018764 L108.586144,3.0018764 L106.785574,3.0018764 Z M114.241593,3.0018764 L111.850172,3.0018764 L111.850172,4.80190684 L114.241593,4.80190684 L114.241593,11.5096722 L116.042163,11.5096722 L116.042163,4.80190684 L118.433736,4.80190684 L118.433736,3.0018764 L116.042163,3.0018764 L114.241593,3.0018764 Z M120.203431,11.5096418 L122.004,11.5096418 L122.004,3.00184596 L120.203431,3.00184596 L120.203431,11.5096418 Z" id="形状结合" fill="#3A3B3C"></path>
                </g>
                <rect id="矩形" fill="#9A9F9C" x="0" y="10.0043053" width="12" height="1"></rect>
                <rect id="矩形备份-8" fill="#9A9F9C" x="159" y="10.0043053" width="12" height="1"></rect>
            </g>
        </g>
    </g>
</svg>