<?xml version="1.0" encoding="UTF-8"?>
<svg width="28px" height="28px" viewBox="0 0 28 28" version="1.1" xmlns="http://www.w3.org/2000/svg" xmlns:xlink="http://www.w3.org/1999/xlink">
    <title>微信</title>
    <g id="商品详情" stroke="none" stroke-width="1" fill="none" fill-rule="evenodd">
        <g id="商品详情_App" transform="translate(-295.000000, -56.000000)">
            <g id="Wechatsystem-default-@3x-Copy-9" transform="translate(295.000000, 56.000000)">
                <rect id="Rectangle-2" stroke-opacity="0.2" stroke="#5E5E5E" stroke-width="0.5" fill-opacity="0.596637228" fill="#FFFFFF" transform="translate(14.000000, 14.000000) scale(-1, 1) translate(-14.000000, -14.000000) " x="0.25" y="0.25" width="27.5" height="27.5" rx="13.75"></rect>
                <g id="微信" transform="translate(5.000000, 5.000000)" fill="#000000" fill-rule="nonzero">
                    <rect id="矩形" opacity="0" x="0" y="0" width="18" height="18"></rect>
                    <path d="M8.77248677,6.11640211 C9.25925926,6.11640211 9.57671958,5.78835977 9.57671958,5.3121693 C9.57671958,4.83597882 9.24867724,4.50793649 8.77248677,4.50793649 C8.30687831,4.50793649 7.8095238,4.8148148 7.8095238,5.3121693 C7.8095238,5.7989418 8.30687831,6.11640211 8.77248677,6.11640211 Z M5.26984126,5.3015873 C5.26984126,4.82539683 4.94179893,4.49735449 4.46560845,4.49735449 C3.99999999,4.49735449 3.50264549,4.8042328 3.50264549,5.3015873 C3.50264549,5.7989418 3.99999999,6.10582011 4.46560845,6.10582011 C4.95238096,6.11640211 5.26984126,5.78835979 5.26984126,5.3015873 Z M18,10.994709 C18,9.80952381 17.4708995,8.66666667 16.5185185,7.77777776 C15.5767196,6.89947089 14.3174603,6.35978835 12.984127,6.24338622 C12.984127,6.22222219 12.984127,6.20105818 12.984127,6.17989416 C12.4232804,3.57671955 9.62962965,1.60846559 6.47619049,1.60846559 C2.8994709,1.60846559 0,4.0952381 0,7.15343915 C0,8.78306878 0.82539682,10.2645503 2.4021164,11.4179894 L1.86243386,13.047619 C1.82010582,13.1746032 1.86243386,13.3015873 1.95767195,13.3862434 C2.05291004,13.4708995 2.20105819,13.4814815 2.30687829,13.4285714 L4.35978835,12.4021164 L4.60317459,12.4550264 L4.61375661,12.4550264 C5.24867723,12.5820106 5.79894179,12.6984127 6.47619047,12.6984127 C6.6031746,12.6984127 7.08994709,12.6560846 7.24867724,12.5820106 C8.03174602,14.4867725 10.1269841,15.7671957 12.4761905,15.7671957 C13.0687831,15.7671957 13.6719577,15.6296296 14.2751323,15.4814815 L15.8518518,16.3386243 C15.8941799,16.3597884 15.9470899,16.3809524 16,16.3809524 C16.0740741,16.3809524 16.1481482,16.3597883 16.2010582,16.3068783 C16.3068783,16.2222222 16.3386243,16.0952381 16.3068783,15.968254 L15.9047619,14.6455026 C17.2486772,13.5767196 18,12.2751323 18,10.994709 Z M15.0897794,14.0526755 C14.985354,14.1257733 14.9435838,14.2615263 14.985354,14.3763943 L15.2046473,15.1178148 L14.2648186,14.6061302 C14.2230484,14.5852451 14.1708357,14.5643601 14.118623,14.5643601 C14.0977379,14.5643601 14.0664103,14.5643601 14.0455252,14.5748026 C13.502513,14.7105556 12.9386157,14.8567512 12.385161,14.8567512 C9.8476233,14.8567512 7.78,13.1128467 7.78,10.9721256 C7.78,8.83140451 9.8476233,7.0875 12.385161,7.0875 C14.8809285,7.0875 16.9798795,8.86273213 16.9798795,10.9721256 C16.990322,12.0372649 16.3219993,13.1337318 15.0897794,14.0526755 Z M3.23822702,11.0466715 C3.2783302,10.9234858 3.23822702,10.7900347 3.12794325,10.7079109 C1.8630662,9.94416962 0.91,9 0.91,7.07393275 C0.91,4.21064242 3.80969747,2.43379768 6.7472561,2.43379768 C9.59190924,2.43379768 11.5609517,4.21329886 12.0622416,6.33825215 C9.32519888,6.399845 6.967827,8.27499333 6.967827,10.6873799 C6.967827,11.0056097 7.00792981,11.3341049 7.098162,11.6626 C7.0881362,11.6626 7.0680853,11.6626 7.0580595,11.6626 C6.89764675,11.6728655 6.58163656,11.6626 6.411198,11.6626 C5.83972755,11.6626 5.27346391,11.5599453 4.74209664,11.4470251 L4.42127113,11.3854322 C4.36111635,11.3751668 4.29093576,11.3854322 4.23078098,11.4059632 L2.89734992,12.09375 L3.23822702,11.0466715 Z M10.7724868,8.96296296 C10.4444444,8.96296296 10.1164021,9.2910053 10.1164021,9.61904762 C10.1164021,9.94708995 10.4444445,10.2751323 10.7724868,10.2751323 C11.2698413,10.2751323 11.5767196,9.93650794 11.5767196,9.61904762 C11.5767196,9.30158729 11.2698413,8.96296296 10.7724868,8.96296296 Z M14.1481481,8.96296296 C13.8201058,8.96296296 13.5026455,9.2910053 13.5026455,9.61904762 C13.5026455,9.94708995 13.8201058,10.2751323 14.1481481,10.2751323 C14.6455027,10.2751323 14.952381,9.93650794 14.952381,9.61904762 C14.952381,9.30158729 14.6455027,8.96296296 14.1481481,8.96296296 Z" id="形状"></path>
                </g>
            </g>
        </g>
    </g>
</svg>