<?xml version="1.0" encoding="UTF-8"?>
<svg width="131px" height="126px" viewBox="0 0 131 126" version="1.1" xmlns="http://www.w3.org/2000/svg" xmlns:xlink="http://www.w3.org/1999/xlink">
    <title>形状@3x</title>
    <g id="开业引导" stroke="none" stroke-width="1" fill="none" fill-rule="evenodd" opacity="0.373955305">
        <g id="点餐2-已经订阅" transform="translate(-230.000000, -453.000000)" fill="#FBE7E5">
            <g id="编组-44" transform="translate(14.000000, 193.000000)">
                <g id="编组-17" transform="translate(190.828240, 233.292342)">
                    <path d="M137.000429,119.113546 L137.000429,62.2937583 L115.979644,62.2937583 L115.979644,70.943935 C115.296041,69.4174333 106.580106,60.428034 93.0789514,60.428034 C71.8872656,60.428034 58.21521,78.5764439 58.21521,100.286691 C58.21521,123.862663 76.3306836,139.466903 95.4715611,139.466903 C105.042,139.466903 114.270637,135.396232 120.935764,126.06761 L121.277566,128.102946 C123.499275,137.261956 131.018905,141.163016 141.272947,141.163016 C160.242924,141.163016 174.08588,124.880331 174.08588,99.6082461 C174.08588,57.8838643 142.811053,27.3538291 101.111284,27.3538291 C59.2406143,27.3538291 26.0858799,59.4103661 26.0858799,100.625914 C26.0858799,141.163016 57.5316073,171.353829 99.0604756,171.353829 C112.219829,171.353829 129.138998,166.435101 139.051238,158.802592 L131.189806,145.233688 C121.619367,152.357362 108.801815,155.579977 99.0604756,155.579977 C67.2729469,155.579977 43.0050485,132.173617 43.0050485,100.625914 C43.0050485,68.7389881 68.9819537,42.788458 101.111284,42.788458 C136.487727,42.788458 157.337612,67.8909315 157.337612,100.11708 C157.337612,116.230154 150.330684,127.4245 143.323755,127.4245 C139.56394,127.4245 137.000429,125.219553 137.000429,119.113546 Z M98.4309483,78.82931 C109.652926,78.82931 116.421738,87.60431 116.421738,98.5730601 C116.421738,109.87931 109.831053,119.32931 98.7872014,119.32931 C88.2777299,119.32931 81.6870444,109.54181 81.6870444,98.40431 C81.6870444,87.77306 88.4558566,78.82931 98.4309483,78.82931 Z" id="形状" transform="translate(100.085880, 99.353829) rotate(-330.000000) translate(-100.085880, -99.353829) "></path>
                </g>
            </g>
        </g>
    </g>
</svg>