<?xml version="1.0" encoding="UTF-8"?>
<svg width="48px" height="19px" viewBox="0 0 48 19" version="1.1" xmlns="http://www.w3.org/2000/svg" xmlns:xlink="http://www.w3.org/1999/xlink">
    <title>慢必赔（选中）</title>
    <g id="点餐" stroke="none" stroke-width="1" fill="none" fill-rule="evenodd">
        <g id="菜单-有购物车休息中-1" transform="translate(-316.000000, -104.000000)">
            <g id="编组-18" transform="translate(316.000000, 104.000000)">
                <path d="M2,0 L46,0 C47.1045695,-2.02906125e-16 48,0.8954305 48,2 L48,15 L48,15 L2,15 C0.8954305,15 1.3527075e-16,14.1045695 0,13 L0,2 C-1.3527075e-16,0.8954305 0.8954305,2.02906125e-16 2,0 Z" id="矩形" fill="#FBE7E5"></path>
                <g id="慢必赔" transform="translate(15.370000, 2.750000)" fill="#CD4444" fill-rule="nonzero">
                    <path d="M3.73,0.3 L3.73,3.1 L8.35,3.1 L8.35,0.3 L3.73,0.3 Z M7.46,2.44 L4.63,2.44 L4.63,2 L7.46,2 L7.46,2.44 Z M4.63,1.39 L4.63,0.95 L7.46,0.95 L7.46,1.39 L4.63,1.39 Z M1.43,0.08 L1.43,9.28 L2.3,9.28 L2.3,0.08 L1.43,0.08 Z M0.37,2.01 C0.34,2.95 0.22,3.85 0,4.7 L0.73,4.9 C0.94,4 1.05,3.06 1.07,2.06 L0.37,2.01 Z M2.94,1.65 L2.31,1.87 C2.48,2.39 2.63,2.94 2.75,3.52 L3.43,3.34 C3.29,2.7 3.12,2.14 2.94,1.65 Z M3.2,3.53 L3.2,5.59 L8.92,5.59 L8.92,3.53 L3.2,3.53 Z M8.12,4.97 L7.21,4.97 L7.21,4.15 L8.12,4.15 L8.12,4.97 Z M6.49,4.97 L5.61,4.97 L5.61,4.15 L6.49,4.15 L6.49,4.97 Z M4.88,4.97 L3.97,4.97 L3.97,4.15 L4.88,4.15 L4.88,4.97 Z M3.3,6.08 L3.3,6.82 L3.81,6.82 C4.19,7.26 4.65,7.65 5.21,8 C4.52,8.24 3.74,8.41 2.88,8.52 L3.27,9.3 C4.35,9.13 5.31,8.86 6.15,8.5 C6.9,8.84 7.78,9.11 8.79,9.31 L9.3,8.57 C8.46,8.43 7.71,8.25 7.05,8.03 C7.66,7.66 8.18,7.22 8.62,6.72 L8.62,6.08 L3.3,6.08 Z M4.77,6.82 L7.4,6.82 C7.02,7.13 6.58,7.41 6.09,7.65 C5.57,7.41 5.13,7.13 4.77,6.82 Z" id="形状"></path>
                    <path d="M13.59,0.07 L12.94,0.69 C13.77,1.36 14.42,1.98 14.88,2.56 L15.54,1.9 C15.02,1.29 14.37,0.68 13.59,0.07 Z M16.6,0.38 C15.92,2.82 14.9,4.77 13.56,6.24 L13.56,2.14 L12.61,2.14 L12.61,7.15 C11.97,7.68 11.27,8.12 10.49,8.48 L11.04,9.28 C11.62,9.02 12.17,8.7 12.7,8.32 C12.84,8.71 13.18,8.91 13.73,8.91 L15.81,8.91 C16.28,8.91 16.63,8.78 16.86,8.54 C17.1,8.27 17.27,7.45 17.36,6.08 L16.46,5.77 C16.41,6.86 16.31,7.51 16.17,7.71 C16.06,7.9 15.88,8 15.64,8 L14.03,8 C13.73,8 13.58,7.87 13.56,7.62 C15.28,6.06 16.59,3.77 17.48,0.77 L16.6,0.38 Z M11.12,3.03 C10.89,4.41 10.51,5.69 9.99,6.89 L10.81,7.4 C11.34,6.23 11.75,4.84 12.03,3.22 L11.12,3.03 Z M17.81,3.19 L16.91,3.48 C17.47,4.61 17.99,5.9 18.45,7.36 L19.3,6.98 C18.88,5.64 18.38,4.37 17.81,3.19 Z" id="形状"></path>
                    <path d="M23.77,0.41 L20.38,0.41 L20.38,6.94 L21.21,6.94 L21.21,1.26 L22.97,1.26 L22.97,6.8 L23.77,6.8 L23.77,0.41 Z M21.73,1.92 L21.73,5.18 C21.71,6.06 21.57,6.77 21.33,7.31 C21.09,7.82 20.62,8.24 19.94,8.58 L20.42,9.33 C21.12,8.99 21.62,8.5 21.93,7.88 C22.25,7.21 22.43,6.31 22.45,5.18 L22.45,1.92 L21.73,1.92 Z M22.85,7.03 L22.29,7.58 C22.85,8.16 23.28,8.7 23.58,9.21 L24.22,8.57 C23.84,8.06 23.39,7.55 22.85,7.03 Z M24.22,0.96 L24.22,1.86 L28.95,1.86 L28.95,0.96 L27.06,0.96 C26.95,0.6 26.84,0.28 26.73,0 L25.78,0.16 C25.9,0.4 26.02,0.67 26.13,0.96 L24.22,0.96 Z M24.08,3.68 L24.08,4.6 L29.17,4.6 L29.17,3.68 L28.04,3.68 C28.24,3.29 28.42,2.85 28.59,2.37 L27.7,2.05 C27.53,2.62 27.34,3.16 27.12,3.68 L26.2,3.68 C26.03,3.06 25.84,2.52 25.62,2.07 L24.75,2.4 C24.95,2.8 25.13,3.22 25.28,3.68 L24.08,3.68 Z M28.64,5.34 L24.63,5.34 L24.63,9.24 L25.52,9.24 L25.52,8.75 L27.75,8.75 L27.75,9.24 L28.64,9.24 L28.64,5.34 Z M25.52,7.85 L25.52,6.23 L27.75,6.23 L27.75,7.85 L25.52,7.85 Z" id="形状"></path>
                </g>
                <g id="配送费" transform="translate(4.000000, 2.500000)" fill="#CD4444" fill-rule="nonzero">
                    <g id="赔">
                        <path d="M4.47971674,0 C4.47971674,0 4.69701394,0.118789534 5.04275778,0.294035995 L5.32476111,0.435082567 C6.33579613,0.934030407 8.0107937,1.68843934 8.96146404,1.72436236 C9.07802744,2.36814374 8.98646935,6.0173125 7.88300826,7.77759788 C7.08512135,8.94513048 5.32583603,9.67799681 4.53913455,9.9869325 C4.45805937,10.0187608 4.42029893,9.98243639 4.42029893,9.98243639 C3.81102762,9.74681486 1.77245773,8.81938843 1.10938877,7.77758641 C0.10778209,6.23285062 -0.0879026213,2.35303817 0.0309330019,1.72436236 C1.45693851,1.67047784 4.42878405,0 4.42878405,0 L4.42878405,0 Z M6.3249065,2.67229142 L3.97112475,5.74660868 L2.71577449,4.55787267 L2.12732904,5.33669971 L4.08881384,7.22228096 L7.03104103,3.36913667 L6.3249065,2.67229142 Z" id="形状结合"></path>
                    </g>
                </g>
                <path d="M48,15 L44.7627765,18.237362 C44.2313478,17.0622318 43.5423902,15.9735817 42.7228363,14.9983441 L48,15 Z" id="形状结合" fill="#F5B1AB"></path>
            </g>
        </g>
    </g>
</svg>