<?xml version="1.0" encoding="UTF-8"?>
<svg width="18px" height="18px" viewBox="0 0 18 18" version="1.1" xmlns="http://www.w3.org/2000/svg" xmlns:xlink="http://www.w3.org/1999/xlink">
    <title>矩形@3x</title>
    <g id="V1.4" stroke="none" stroke-width="1" fill="none" fill-rule="evenodd">
        <g id="菜单_特价/预估到手" transform="translate(-345.000000, -717.000000)" fill-rule="nonzero">
            <g id="热狗区域" transform="translate(75.000000, 321.000000)">
                <g id="至尊芝士热狗" transform="translate(12.000000, 298.000000)">
                    <g id="加购按钮-2" transform="translate(204.000000, 98.000000)">
                        <g id="加号" transform="translate(54.000000, 0.000000)">
                            <rect id="矩形" fill="#000000" opacity="0" x="5.68434189e-14" y="1.13686838e-13" width="18" height="18"></rect>
                            <path d="M16.5,0 C17.3284271,0 18,0.671572873 18,1.5 L18,16.5 C18,17.3284271 17.3284271,18 16.5,18 L0,18 L0,16.2271896 L0,1.5 L0,0 L1.5,0 L16.5,0 Z M8.24999999,4.5 L8.24999999,8.24899999 L4.5,8.24999999 L4.5,9.75000001 L8.24999999,9.749 L8.24999999,13.5 L9.75000001,13.5 L9.75000001,9.749 L13.5,9.75000001 L13.5,8.24999999 L9.75000001,8.24899999 L9.75000001,4.5 L8.24999999,4.5 Z" id="形状" fill="#CD4444"></path>
                        </g>
                    </g>
                </g>
            </g>
        </g>
    </g>
</svg>