<?xml version="1.0" encoding="UTF-8"?>
<svg width="22px" height="22px" viewBox="0 0 22 22" version="1.1" xmlns="http://www.w3.org/2000/svg" xmlns:xlink="http://www.w3.org/1999/xlink">
    <title>形状结合</title>
    <g id="开业引导" stroke="none" stroke-width="1" fill="none" fill-rule="evenodd">
        <g id="菜单_即将开业展开极限" transform="translate(-339.000000, -324.000000)" fill="#5E5E5E" fill-rule="nonzero">
            <g id="即将开业" transform="translate(0.000000, 314.000000)">
                <g id="编组-13" transform="translate(20.000000, 10.000000)">
                    <g id="右箭头" transform="translate(319.000000, 0.000000)">
                        <path d="M11,0.75 C16.6609187,0.75 21.25,5.33908131 21.25,11 C21.25,16.6609187 16.6609187,21.25 11,21.25 C5.33908131,21.25 0.75,16.6609187 0.75,11 C0.75,5.33908131 5.33908131,0.75 11,0.75 Z M11,1.25 C5.61522369,1.25 1.25,5.61522369 1.25,11 C1.25,16.3847763 5.61522369,20.75 11,20.75 C16.3847763,20.75 20.75,16.3847763 20.75,11 C20.75,5.61522369 16.3847763,1.25 11,1.25 Z M6.13946179,8.5 L10.9862465,13.3 L15.8330312,8.5 L17,9.54043107 L10.9862465,15.5 L5,9.54043107 L6.13946179,8.5 Z" id="形状结合"></path>
                    </g>
                </g>
            </g>
        </g>
    </g>
</svg>