<?xml version="1.0" encoding="UTF-8"?>
<svg width="17px" height="15px" viewBox="0 0 17 15" version="1.1" xmlns="http://www.w3.org/2000/svg" xmlns:xlink="http://www.w3.org/1999/xlink">
    <title>形状</title>
    <g id="确认订单" stroke="none" stroke-width="1" fill="none" fill-rule="evenodd">
        <g id="确认订单-到店自取备份-8" transform="translate(-222.000000, -791.000000)" fill="#CD4444"
            fill-rule="nonzero">
            <g id="订单备注" transform="translate(16.000000, 774.000000)">
                <g id="银行卡" transform="translate(206.000000, 17.000000)">
                    <path d="M17,1 L4.54747351e-13,1 L4.54747351e-13,4.17665798 L17,4.17665798 L17,1 Z M17,5.46597162 L0,5.46597162 L0,15 L17,15 L17,5.46597162 Z M7.99598304,10.5482189 L7.62843115,12.6524761 C7.60834635,12.7680278 7.50792234,12.8531712 7.39143048,12.8531712 L6.59607231,12.8531712 C6.44543629,12.8531712 6.33296139,12.7173472 6.35907164,12.5673328 L6.72662352,10.4630756 C6.74670832,10.3475239 6.84713234,10.2623805 6.96362419,10.2623805 L7.75898237,10.2623805 C7.90961839,10.2644078 8.02209328,10.4002317 7.99598304,10.5482189 Z M10.5688462,10.5482189 L10.2012944,12.6524761 C10.1812096,12.7680278 10.0807855,12.8531712 9.96429368,12.8531712 L9.16893551,12.8531712 C9.01829949,12.8531712 8.90582459,12.7173472 8.93193484,12.5673328 L9.29948672,10.4630756 C9.31957152,10.3475239 9.41999554,10.2623805 9.53648739,10.2623805 L10.3318456,10.2623805 C10.4824816,10.2644078 10.5949565,10.4002317 10.5688462,10.5482189 Z M14.0575764,12.6524761 C14.0374916,12.7680278 13.9370676,12.8531712 13.8205758,12.8531712 L11.7417987,12.8531712 C11.5911627,12.8531712 11.4786878,12.7173472 11.504798,12.5673328 L11.8723499,10.4630756 C11.8924347,10.3475239 11.9928587,10.2623805 12.1093506,10.2623805 L14.1881277,10.2623805 C14.3367552,10.2644078 14.4512386,10.4002317 14.4251283,10.5482189 L14.0575764,12.6524761 Z" id="形状"></path>
                </g>
            </g>
        </g>
    </g>
</svg>