<?xml version="1.0" encoding="UTF-8"?>
<svg width="22px" height="22px" viewBox="0 0 22 22" version="1.1" xmlns="http://www.w3.org/2000/svg" xmlns:xlink="http://www.w3.org/1999/xlink">
    <title>radio_unselected备份</title>
    <g id="订单" stroke="none" stroke-width="1" fill="none" fill-rule="evenodd">
        <g id="取消原因-输入中" transform="translate(-333.000000, -272.000000)" fill="#979797" fill-rule="nonzero">
            <g id="我要催单" transform="translate(0.000000, 180.000000)">
                <g id="编组-3" transform="translate(0.000000, 78.000000)">
                    <g id="原因2备份-5" transform="translate(0.000000, 14.000000)">
                        <g id="编组-2" transform="translate(333.000000, 0.000000)">
                            <path d="M11,0 C17.075904,0 22,4.92409598 22,11 C22,17.075904 17.0734732,22 11,22 C4.92652679,22 0,17.0734732 0,11 C0,4.92652679 4.92409598,0 11,0 Z M11,1.14285714 C5.55615705,1.14285714 1.14285714,5.55683074 1.14285714,11 C1.14285714,16.4422906 5.55770936,20.8571429 11,20.8571429 C16.4431693,20.8571429 20.8571429,16.4438429 20.8571429,11 C20.8571429,5.55527855 16.4447214,1.14285714 11,1.14285714 Z" id="Shape"></path>
                        </g>
                    </g>
                </g>
            </g>
        </g>
    </g>
</svg>