<?xml version="1.0" encoding="UTF-8"?>
<svg width="22px" height="22px" viewBox="0 0 22 22" version="1.1" xmlns="http://www.w3.org/2000/svg" xmlns:xlink="http://www.w3.org/1999/xlink">
    <title>radio_selected@3x</title>
    <g id="订单" stroke="none" stroke-width="1" fill="none" fill-rule="evenodd">
        <g id="取消原因-输入中" transform="translate(-333.000000, -572.000000)" fill="#CD4444">
            <g id="我要催单" transform="translate(0.000000, 180.000000)">
                <g id="编组-3" transform="translate(0.000000, 78.000000)">
                    <g id="原因2备份-5" transform="translate(0.000000, 14.000000)">
                        <g id="编组" transform="translate(333.000000, 300.000000)">
                            <path d="M11,22 C4.93492502,22 2.50111043e-12,17.0653546 2.50111043e-12,10.999496 C2.50111043e-12,4.9337633 4.93492502,-3.55271368e-15 11,-3.55271368e-15 C17.065075,-3.55271368e-15 22,4.93464539 22,10.999496 C22,17.0644725 17.0660846,22 11,22 M5.94010288,10.5251282 L5.94010291,10.5251282 C5.6046747,10.1574147 5.03466669,10.1312435 4.66695318,10.4666725 C4.29923967,10.8021008 4.27306845,11.3721088 4.60849748,11.7398223 C4.62720217,11.7603272 4.64684408,11.7799571 4.66736044,11.7986493 L8.37653441,15.5078233 L8.37653438,15.5078232 C8.72845438,15.8596364 9.29891627,15.8596364 9.65083422,15.5078233 L18.1347407,7.02469723 L18.1347407,7.02469722 C18.4961902,6.68190418 18.5113142,6.11100072 18.1685202,5.74955122 C17.8257271,5.38810171 17.2548237,5.37297773 16.8933741,5.7157718 C16.8810183,5.72748988 16.8689969,5.73955551 16.8573241,5.75195413 L9.01212016,13.5963776 L5.94086834,10.5251258 L5.94010288,10.5251282 Z" id="取消选中"></path>
                        </g>
                    </g>
                </g>
            </g>
        </g>
    </g>
</svg>