<?xml version="1.0" encoding="UTF-8"?>
<svg width="18px" height="18px" viewBox="0 0 18 18" version="1.1" xmlns="http://www.w3.org/2000/svg" xmlns:xlink="http://www.w3.org/1999/xlink">
    <title>编组 9</title>
    <g id="-----F-我的-地址管理" stroke="none" stroke-width="1" fill="none" fill-rule="evenodd">
        <g id="地址管理备份" transform="translate(-222.000000, -736.000000)" fill-rule="nonzero">
            <g id="编组-6" transform="translate(0.000000, 722.000000)">
                <g id="编组-17" transform="translate(193.000000, 0.000000)">
                    <g id="编组-9" transform="translate(29.000000, 14.000000)">
                        <path d="M9.0087882,0.651830879 C11.3141215,0.651830879 13.401402,1.58646055 14.9123531,3.0974116 C16.4233041,4.60836266 17.3579338,6.69564319 17.3579338,9.00097646 C17.3579338,11.3063097 16.4233041,13.3935903 14.9123531,14.9045413 C13.401402,16.4154924 11.3141215,17.3501221 9.0087882,17.3501221 C6.70345492,17.3501221 4.6161744,16.4154924 3.10522334,14.9045413 C1.59427229,13.3935903 0.659642617,11.3063097 0.659642617,9.00097646 C0.659642617,6.69564319 1.59427229,4.60836266 3.10522334,3.0974116 C4.6161744,1.58646055 6.70345492,0.651830879 9.0087882,0.651830879 Z" id="路径" stroke="#CD4444" stroke-width="0.8"></path>
                        <polygon id="路径" fill="#CD4444" points="4.1264525 8.41509619 13.8911239 8.41509619 13.8911239 9.41509619 4.1264525 9.41509619"></polygon>
                        <polygon id="路径" fill="#CD4444" points="8.42290791 4.11864076 9.42290791 4.11864076 9.42290791 13.8833122 8.42290791 13.8833122"></polygon>
                    </g>
                </g>
            </g>
        </g>
    </g>
</svg>