<?xml version="1.0" encoding="UTF-8"?>
<svg width="14px" height="14px" viewBox="0 0 14 14" version="1.1" xmlns="http://www.w3.org/2000/svg" xmlns:xlink="http://www.w3.org/1999/xlink">
    <title>矩形</title>
    <g id="确认订单；订单列表；评价" stroke="none" stroke-width="1" fill="none" fill-rule="evenodd">
        <g id="评价页面微调修改备份" transform="translate(-96.000000, -424.000000)" fill-rule="nonzero">
            <g id="close-circle-outlined" transform="translate(96.000000, 424.000000)">
                <rect id="矩形" fill="#000000" opacity="0" x="0" y="0" width="14" height="14"></rect>
                <g id="形状结合-2" transform="translate(0.875000, 0.875000)">
                    <path d="M6.125,12.25 C2.74307796,12.25 0,9.50692204 0,6.125 C0,2.74307796 2.74307796,0 6.125,0 C9.50692204,0 12.25,2.74307796 12.25,6.125 C12.25,9.50692204 9.50692204,12.25 6.125,12.25 Z" id="路径" fill="#666666"></path>
                    <path d="M8.98004032,3.52022849 C8.98004032,3.44778226 8.92076613,3.38850806 8.84831989,3.38850806 L7.76162634,3.39344758 L6.125,5.34455645 L4.49002016,3.39509409 L3.40168011,3.39015457 C3.32923387,3.39015457 3.26995968,3.44778226 3.26995968,3.521875 C3.26995968,3.5531586 3.28148522,3.5827957 3.30124328,3.60749328 L5.44334677,6.15957661 L3.30124328,8.71001344 C3.28148522,8.73471102 3.26995968,8.76434812 3.26995968,8.79563172 C3.26995968,8.86807796 3.32923387,8.92735215 3.40168011,8.92735215 L4.49002016,8.92241263 L6.125,6.97130376 L7.75997984,8.92076613 L8.84667339,8.92570565 C8.91911962,8.92570565 8.97839382,8.86807796 8.97839382,8.79398522 C8.97839382,8.76270161 8.96686828,8.73306452 8.94711022,8.70836694 L6.80829973,6.15793011 L8.95040323,3.60584677 C8.97016129,3.5827957 8.98004032,3.5515121 8.98004032,3.52022849 Z" id="路径" fill="#F5F6F7"></path>
                </g>
            </g>
        </g>
    </g>
</svg>