<?xml version="1.0" encoding="UTF-8"?>
<svg width="30px" height="30px" viewBox="0 0 30 30" version="1.1" xmlns="http://www.w3.org/2000/svg" xmlns:xlink="http://www.w3.org/1999/xlink">
    <title>推荐</title>
    <g id="去评价" stroke="none" stroke-width="1" fill="none" fill-rule="evenodd">
        <g id="不满意-1备份" transform="translate(-110.000000, -186.000000)" stroke="#5E5E5E">
            <g id="编组-8" transform="translate(16.000000, 100.000000)">
                <g id="编组-6" transform="translate(88.000000, 86.000000)">
                    <g id="推荐-选中" transform="translate(6.000000, 0.000000)">
                        <circle id="椭圆形" stroke-width="0.9375" fill="#F9F6F6" cx="15" cy="15" r="14.53125"></circle>
                        <g id="嘴" transform="translate(7.000000, 15.000000)">
                            <path d="M7.96875,0.5 C9.82224564,0.5 12.0239853,0.765199377 13.5992286,1.39919823 C14.1917552,1.6376764 14.6932492,1.92534258 15.0314637,2.28246639 C15.2827924,2.54784669 15.4375,2.85230549 15.4375,3.20723684 C15.4375,4.36863728 14.4112309,5.92142193 12.8821592,7.10491394 C11.5659341,8.12366408 9.84927758,8.875 7.96875,8.875 C6.08822242,8.875 4.37156594,8.12366408 3.05534076,7.10491394 C1.52626908,5.92142193 0.5,4.36863728 0.5,3.20723684 C0.5,2.85230549 0.654707623,2.54784669 0.906036319,2.28246639 C1.24425079,1.92534258 1.74574483,1.6376764 2.33827136,1.39919823 C3.91351466,0.765199377 6.11525436,0.5 7.96875,0.5 Z" id="椭圆形" fill="#5E5E5E"></path>
                            <path d="M7.96875,5.625 C9.01493856,5.625 9.98353012,5.86685843 10.7710791,6.28157185 C11.4061607,6.61599787 11.9240543,7.06226728 12.2559033,7.58589514 C11.0396258,8.36846629 9.56274357,8.90625 7.96875,8.90625 C6.37482119,8.90625 4.89799567,8.36850569 3.68160119,7.58569463 C4.01393517,7.06208063 4.53181161,6.61584596 5.16678533,6.28147379 C5.954294,5.86677791 6.92273644,5.625 7.96875,5.625 Z" id="形状结合" stroke-width="0.9375" fill="#FFFFFF"></path>
                        </g>
                        <polyline id="路径-3" stroke-linejoin="bevel" points="7 7.9435994 12.1048643 11.1022599 7 12.5499376"></polyline>
                        <polyline id="路径-3" stroke-linejoin="bevel" transform="translate(20.452432, 10.246768) scale(-1, 1) translate(-20.452432, -10.246768) " points="17.9 7.9435994 23.0048643 11.1022599 17.9 12.5499376"></polyline>
                    </g>
                </g>
            </g>
        </g>
    </g>
</svg>