<?xml version="1.0" encoding="UTF-8"?>
<svg width="192px" height="64px" viewBox="0 0 192 64" version="1.1" xmlns="http://www.w3.org/2000/svg" xmlns:xlink="http://www.w3.org/1999/xlink">
    <title>视觉锤</title>
    <defs>
        <polygon id="path-1" points="0 0 24.2489994 0 24.2489994 10.5404915 0 10.5404915"></polygon>
        <polygon id="path-3" points="0 0 17.1437729 0 17.1437729 16.975524 0 16.975524"></polygon>
        <polygon id="path-5" points="1.42108547e-14 64 192 64 192 0 1.42108547e-14 0"></polygon>
    </defs>
    <g id="温馨提示" stroke="none" stroke-width="1" fill="none" fill-rule="evenodd">
        <g id="温馨提示-1" transform="translate(-92.000000, -118.000000)">
            <g id="编组" transform="translate(92.000000, 118.000000)">
                <g transform="translate(40.910022, 0.000000)">
                    <mask id="mask-2" fill="white">
                        <use xlink:href="#path-1"></use>
                    </mask>
                    <g id="Clip-2"></g>
                    <path d="M20.5926547,10.5219896 C20.60354,10.5274313 20.6144252,10.5339614 20.6242219,10.5404915 L24.2489994,3.96798912 C16.5389997,-0.28307797 7.83735671,-1.00573761 0,1.2612805 L2.08343066,8.46611002 C8.06376923,6.73129156 14.7081061,7.278728 20.5926547,10.5219896" id="Fill-1" fill="#E7DBD4" mask="url(#mask-2)"></path>
                </g>
                <path d="M73.1340764,25.1242853 L80.3923395,23.024872 C78.1260372,15.1888037 72.8684771,8.21687952 65.159566,3.96798912 L61.5347885,10.5404915 C67.4182486,13.7946365 71.4218317,19.1307814 73.1340764,25.1242853" id="Fill-3" fill="#B3A698"></path>
                <path d="M38.0718107,53.0917575 L34.3751908,59.794861 C42.0851904,64.0448397 50.7879219,64.7685877 58.6252787,62.5015696 L56.4972186,55.1443721 C50.5408275,56.8596004 43.9313233,56.3110756 38.0718107,53.0917575" id="Fill-5" fill="#A43524"></path>
                <polygon id="Fill-7" fill="#221714" points="14.7908337 27.0926622 15.0183348 30.0431596 2.71477328 30.9900179 1.49127482 15.1013009 13.4998469 14.1783862 13.727348 17.1288836 5.37403195 17.7720942 5.63963126 21.2210526 13.0165433 20.654026 13.2364247 23.514191 5.85951266 24.0812176 6.14252832 27.7576397"></polygon>
                <polygon id="Fill-9" fill="#221714" points="30.6562562 18.0989236 22.9800007 33.6752861 19.3421609 33.4946212 13.2605898 17.2413094 17.2391369 17.4382995 21.5213815 29.0454757 26.9944689 17.9182587"></polygon>
                <polygon id="Fill-11" fill="#221714" points="40.9365823 32.1454026 40.4565442 35.0654264 28.2792512 33.0639639 30.8644904 17.3395868 42.748971 19.2931621 42.2700214 22.213186 34.0016101 20.8549341 33.4399329 24.2690656 40.7417369 25.4684194 40.2769381 28.299199 32.9751341 27.0987569 32.3764471 30.7381753"></polygon>
                <path d="M49.3258195,17.3103103 L46.324765,17.4757385 L46.6317281,23.0219335 L49.6327826,22.8565054 C51.8838457,22.731346 52.9625707,21.623413 52.8667808,19.8962129 C52.7699024,18.1461576 51.575794,17.1862393 49.3258195,17.3103103 L49.3258195,17.3103103 Z M53.4948579,30.029773 L50.1813976,25.7678225 L49.9996145,25.7765292 L46.7939179,25.9539291 L47.0388353,30.3867494 L43.3574547,30.5902695 L42.475752,14.6797857 L49.3639178,14.2988657 C53.6145953,14.0637837 56.3968569,16.1207516 56.5949679,19.6905161 C56.726679,22.0761636 55.6185638,23.8936961 53.599356,24.8938832 L57.4516345,29.8099277 L53.4948579,30.029773 Z" id="Fill-13" fill="#221714"></path>
                <polygon id="Fill-15" fill="#221714" points="63.9634982 28.9345736 62.9968909 34.4960054 59.3623167 33.8647666 60.3376322 28.2576244 56.0118467 17.1097288 59.8706564 17.7790596 62.8521175 25.4834385 68.2598936 19.237439 71.8269795 19.8567061"></polygon>
                <g transform="translate(0.000000, 34.865510)">
                    <mask id="mask-4" fill="white">
                        <use xlink:href="#path-3"></use>
                    </mask>
                    <g id="Clip-18"></g>
                    <path d="M8.90704704,12.9268887 C12.0365471,12.4534596 13.8032179,10.2756856 13.3471273,7.26097594 C12.8910367,4.24408962 10.5605116,2.68558269 7.43210005,3.15792348 L4.09904641,3.66073787 L5.57508192,13.4307914 L8.90704704,12.9268887 Z M-0.000326556529,1.21849656 L7.15888109,0.137772132 C12.3141202,-0.641481332 16.3187917,1.93027277 17.0393931,6.70265607 C17.7599946,11.4750394 14.6947173,15.1144578 9.53947819,15.8937113 L2.38135906,16.975524 L-0.000326556529,1.21849656 Z" id="Fill-17" fill="#221714" mask="url(#mask-4)"></path>
                </g>
                <path d="M24.6756999,46.8933186 L21.3426462,41.1925789 L19.6674112,47.5800629 L24.6756999,46.8933186 Z M26.2061615,49.5086064 L18.8760559,50.5142352 L17.9410157,54.0894414 L14.1975894,54.6031392 L19.0687243,37.850278 L22.6782624,37.3550821 L31.9045729,52.1750463 L28.0697107,52.7007159 L26.2061615,49.5086064 Z" id="Fill-19" fill="#221714"></path>
                <polygon id="Fill-21" fill="#221714" points="34.8062454 45.0514072 34.1498668 50.6585494 30.486991 50.2308307 31.1488123 44.5768897 26.2112775 33.6869314 30.1005658 34.1418587 33.5065504 41.6677493 38.5572914 35.1311623 42.1526788 35.5512626"></polygon>
                <path d="M70.6955699,52.2371907 C75.0453029,52.2371907 78.673346,49.1495621 79.5071536,45.044333 L75.7811436,45.044333 C75.0409488,47.1393929 73.0445999,48.6402177 70.6955699,48.6402177 C67.7162859,48.6402177 65.3008561,46.2251849 65.3008561,43.2463906 C65.3008561,40.2675963 67.7162859,37.8525636 70.6955699,37.8525636 C73.0445999,37.8525636 75.0409488,39.3533883 75.7811436,41.4473599 L79.5071536,41.4473599 C78.673346,37.3432191 75.0453029,34.2566789 70.6955699,34.2566789 C65.7297337,34.2566789 61.7043802,38.2813706 61.7043802,43.2463906 C61.7043802,48.2124989 65.7297337,52.2371907 70.6955699,52.2371907" id="Fill-23" fill="#221714"></path>
                <path d="M90.4047804,48.6405442 C87.4244078,48.6405442 85.0100666,46.2244231 85.0100666,43.2467171 C85.0100666,40.2679228 87.4244078,37.8518017 90.4047804,37.8518017 C93.382976,37.8518017 95.7994943,40.2679228 95.7994943,43.2467171 C95.7994943,46.2244231 93.382976,48.6405442 90.4047804,48.6405442 M90.4047804,34.255917 C85.4389441,34.255917 81.4125021,38.2806088 81.4125021,43.2467171 C81.4125021,48.2117371 85.4389441,52.2375172 90.4047804,52.2375172 C95.3706167,52.2375172 99.3970587,48.2117371 99.3970587,43.2467171 C99.3970587,38.2806088 95.3706167,34.255917 90.4047804,34.255917" id="Fill-25" fill="#221714"></path>
                <polygon id="Fill-27" fill="#221714" points="109.545347 31.2175903 97.0687107 35.378325 98.2073044 38.7902797 102.740998 37.2774832 106.982967 49.9915041 110.394394 48.8541859 106.153513 36.1390766 110.683941 34.6284568"></polygon>
                <polygon id="Fill-29" fill="#221714" points="123.853421 35.510341 110.842321 33.5850625 110.315476 37.1439435 115.040749 37.8426596 113.079233 51.100852 116.636522 51.6276099 118.599127 38.3683292 123.327665 39.069222"></polygon>
                <polygon id="Fill-31" fill="#221714" points="125.664831 52.3232786 129.241713 51.9456237 127.456537 35.0414829 123.879655 35.4202262"></polygon>
                <path d="M54.6695906,42.0520432 C55.5893914,40.1387365 54.9406325,38.5018689 53.3579218,37.7411173 C51.7523522,36.9694822 50.091268,37.5517456 49.1932376,39.4215186 C48.2843219,41.3119701 48.8557958,42.9945481 50.4624539,43.7661831 C52.0451646,44.5258464 53.739993,43.9871167 54.6695906,42.0520432 M62.8160874,45.2082374 C60.9253251,49.1458617 58.044008,50.5215271 55.3379429,49.2220457 C53.8434025,48.5037395 53.1053848,47.3359476 53.2447156,45.8612431 C51.8829748,46.7221223 50.3024412,46.8015713 48.5651605,45.9679007 C45.7273843,44.6042071 44.562666,41.2836732 46.1584389,37.9631392 C47.7433266,34.6643721 51.042636,33.4889618 53.9021827,34.8635388 C55.3531822,35.5600782 56.2533897,36.6157708 56.59192,37.9413723 L57.2145544,36.6429793 L60.2058123,38.0817686 L56.7813228,45.2049724 C56.2751602,46.2606649 56.566884,46.8353099 57.1612169,47.1193674 C58.1724536,47.606945 59.3491456,46.7362707 60.5748211,44.1851951 C62.7202975,39.7208129 60.9013777,35.0583522 56.018269,32.7129734 C51.11339,30.3567112 46.2302813,32.1241799 44.0216707,36.7202517 C41.7695191,41.4033909 43.3859739,46.2661066 48.2679941,48.6125738 C49.6536823,49.2786396 51.3517762,49.7422736 53.0651095,49.7270368 L52.7973331,52.0876524 C51.1275407,52.1246561 48.9907725,51.5576295 47.2534918,50.7239588 C40.8976132,47.6700689 38.7684646,41.3424437 41.5583459,35.537223 C44.3166601,29.797303 50.6213781,27.5487867 57.0218861,30.6233552 C63.2025127,33.5934427 65.4699035,39.6892509 62.8160874,45.2082374" id="Fill-33" fill="#CC4344"></path>
                <path d="M27.4565464,54.6488496 C29.4746658,56.6231035 31.7834205,58.3666287 34.3751908,59.7956228 L37.9564274,53.3003928 L27.4565464,54.6488496 Z" id="Fill-35" fill="#001628"></path>
                <path d="M21.926747,21.6254808 L24.0548071,17.7074466 L21.8483735,16.4917677 C21.4543286,17.2046323 21.0918508,17.9272919 20.7598517,18.6553932 L21.926747,21.6254808 Z" id="Fill-37" fill="#3A5972"></path>
                <path d="M25.3347998,15.3536876 L31.7363963,15.5180274 C34.8103818,12.1082493 38.7312372,9.70518833 42.9938884,8.4666542 L40.9104577,1.26182467 C33.070924,3.52775444 26.0989421,8.78336196 21.8482646,16.4920942 L24.0546982,17.7077731 L25.3347998,15.3536876 Z" id="Fill-39" fill="#C65349"></path>
                <path d="M81.3139909,36.888836 C81.9845203,32.3330329 81.6481671,27.3647479 80.392013,23.025525 L73.1337498,25.12385 C73.6551518,26.9446476 73.9610264,29.552317 74.0470196,31.4547402 C77.2886374,32.0620355 79.4885399,34.5576056 81.3139909,36.888836" id="Fill-41" fill="#B5B6B5"></path>
                <path d="M62.3445398,52.5848074 C60.5082036,53.6927404 58.5434218,54.5557963 56.4970009,55.1445897 L58.6250609,62.5006989 C63.3002619,61.1489771 67.6619686,58.726326 71.3270214,55.36117 C66.9718458,55.7192348 64.03066,54.0355684 62.3445398,52.5848074" id="Fill-43" fill="#D6D5D7"></path>
                <polygon id="Fill-45" fill="#FFFFFF" points="153.909031 63.8306539 146.658388 10.8033262 190.273278 10.8033262 183.022634 63.8306539"></polygon>
                <path d="M190.466926,10.6346331 L190.079412,10.6346331 L146.853124,10.6346331 L146.463434,10.6346331 L146.516771,11.0188181 L153.720608,63.7076711 L153.760884,63.999347 L154.056961,63.999347 L182.874487,63.999347 L183.170565,63.999347 L183.21084,63.7076711 L190.414677,11.0188181 L190.466926,10.6346331 Z M190.079412,10.9731077 L182.874487,63.6619607 L154.056961,63.6619607 L146.853124,10.9731077 L190.079412,10.9731077 Z" id="Fill-47" fill="#252627"></path>
                <polygon id="Fill-49" fill="#CC4344" points="147.79143 17.8396803 153.301527 58.1312201 183.631009 58.1312201 189.140018 17.8396803"></polygon>
                <polygon id="Fill-51" fill="#252627" points="151.81809 47.6638653 154.617768 47.6638653 154.617768 55.4955803 156.726235 55.4955803 156.726235 47.6638653 159.523735 47.6638653 159.523735 45.561187 151.81809 45.561187"></polygon>
                <polygon id="Fill-53" fill="#252627" points="160.544333 47.6638653 163.342923 47.6638653 163.342923 55.4955803 165.450301 55.4955803 165.450301 47.6638653 168.249979 47.6638653 168.249979 45.561187 160.544333 45.561187"></polygon>
                <mask id="mask-6" fill="white">
                    <use xlink:href="#path-5"></use>
                </mask>
                <g id="Clip-56"></g>
                <polygon id="Fill-55" fill="#252627" mask="url(#mask-6)" points="170.319912 55.4956891 172.428379 55.4956891 172.428379 45.5623842 170.319912 45.5623842"></polygon>
                <polygon id="Fill-57" fill="#252627" mask="url(#mask-6)" points="157.449884 28.3085588 152.039931 28.3085588 152.039931 26.0165088 156.655263 26.0165088 156.655263 24.2316266 152.039931 24.2316266 152.039931 22.0788844 157.264835 22.0788844 157.264835 20.2384967 149.755123 20.2384967 149.755123 30.1489465 157.449884 30.1489465"></polygon>
                <path d="M161.580715,22.1079432 L163.45515,22.1079432 C164.860431,22.1079432 165.570147,22.7446238 165.570147,23.8351433 C165.570147,24.910426 164.860431,25.5623433 163.45515,25.5623433 L161.580715,25.5623433 L161.580715,22.1079432 Z M161.580715,27.3896709 L163.582507,27.3896709 L163.695713,27.3896709 L165.6126,30.1497084 L168.082456,30.1497084 L165.854251,26.9641289 C167.145238,26.4123391 167.898495,25.3218196 167.898495,23.8351433 C167.898495,21.6116589 166.236323,20.2381702 163.582507,20.2381702 L159.280669,20.2381702 L159.280669,30.1497084 L161.580715,30.1497084 L161.580715,27.3896709 Z" id="Fill-58" fill="#252627" mask="url(#mask-6)"></path>
                <polygon id="Fill-59" fill="#252627" mask="url(#mask-6)" points="175.947352 20.2384967 173.292447 24.6419318 170.637543 20.2384967 168.195988 20.2384967 172.042824 26.6096556 172.042824 30.1489465 174.342871 30.1489465 174.342871 26.6390409 178.203857 20.2384967"></polygon>
                <polygon id="Fill-60" fill="#252627" mask="url(#mask-6)" points="155.561952 37.3341859 152.907047 32.9307508 150.464404 32.9307508 154.312329 39.302998 154.312329 42.8422889 156.612375 42.8422889 156.612375 39.3302066 160.473362 32.9307508 158.215768 32.9307508"></polygon>
                <path d="M170.377168,38.7265028 C170.97259,37.3170989 170.445745,36.1623671 169.277761,35.6704362 C168.091273,35.1719752 166.914581,35.650846 166.332221,37.0265114 C165.74442,38.4195902 166.216838,39.6102372 167.402238,40.1086982 C168.572399,40.6006292 169.774127,40.152232 170.377168,38.7265028 M176.366215,40.7083751 C175.141628,43.6077204 173.111535,44.7004166 171.114097,43.8613043 C170.009248,43.3976703 169.435597,42.5835898 169.48458,41.5170139 C168.533212,42.1852564 167.394619,42.298444 166.111251,41.758626 C164.016936,40.879245 163.057948,38.5306011 164.092044,36.0850948 C165.11852,33.6559136 167.456664,32.6927302 169.568397,33.5797296 C170.639502,34.0313919 171.326359,34.7584049 171.618083,35.6998214 L172.020836,34.7442564 L174.229447,35.6726129 L172.012128,40.920602 C171.683394,41.6965904 171.91525,42.1003656 172.353924,42.2853839 C173.10065,42.5988266 173.91813,41.9305841 174.711662,40.0531928 C176.101704,36.7642207 174.623492,33.473072 171.018308,31.9580988 C167.396796,30.4355072 163.936385,31.8808265 162.506067,35.2655727 C161.048537,38.7156194 162.38633,42.1580478 165.991514,43.673021 C167.014725,44.1029164 168.256728,44.3771788 169.4922,44.3053482 L169.382259,46.0129581 C168.178354,46.0989372 166.617414,45.7680809 165.334047,45.2282629 C160.64143,43.2561857 158.880201,38.777655 160.687148,34.501556 C162.472323,30.2733441 166.942882,28.4329564 171.668155,30.419182 C176.232327,32.3368421 178.083902,36.644503 176.366215,40.7083751" id="Fill-61" fill="#FFFFFF" mask="url(#mask-6)"></path>
                <polygon id="Fill-62" fill="#252627" mask="url(#mask-6)" points="144.93123 10.9726724 192.001089 10.9726724 192.001089 8.09835898 144.93123 8.09835898"></polygon>
                <polygon id="Fill-63" fill="#252627" mask="url(#mask-6)" points="189.119009 0.453838959 148.291824 0.453838959 146.366229 8.09835898 190.565655 8.09835898"></polygon>
            </g>
        </g>
    </g>
</svg>