<?xml version="1.0" encoding="UTF-8"?>
<svg width="24px" height="24px" viewBox="0 0 24 24" version="1.1" xmlns="http://www.w3.org/2000/svg" xmlns:xlink="http://www.w3.org/1999/xlink">
    <title>我的_选中</title>
    <g id="控件" stroke="none" stroke-width="1" fill="none" fill-rule="evenodd">
        <g id="Navigation-Bar/我的选中" transform="translate(-316.000000, -5.000000)" fill-rule="nonzero">
            <g id="我的选中" transform="translate(0.000000, -0.000000)">
                <g id="我的_未选中" transform="translate(281.250000, 0.000000)">
                    <g id="icon/我的" transform="translate(34.750000, 5.000000)">
                        <g id="编组-27" transform="translate(6.000000, 3.500000)">
                            <path d="M5.74325782,-1.1 C3.22376106,-1.1 1.17184466,0.908316225 1.17184466,3.39765079 C1.17184466,5.88698535 3.22376106,7.89530157 5.74325782,7.89530157 C8.26275458,7.89530157 10.314671,5.88698535 10.314671,3.39765079 C10.314671,0.908316225 8.26275458,-1.1 5.74325782,-1.1 Z M5.74325782,1.1 C7.05817816,1.1 8.11467098,2.13404392 8.11467098,3.39765079 C8.11467098,4.66125765 7.05817816,5.69530157 5.74325782,5.69530157 C4.42833748,5.69530157 3.37184466,4.66125765 3.37184466,3.39765079 C3.37184466,2.13404392 4.42833748,1.1 5.74325782,1.1 Z" id="椭圆形" fill="#CD4444"></path>
                            <path d="M6.00586243,9.36865623 C9.83872557,9.37404814 12.9671926,12.3622937 13.0958818,16.1054582 L13.1,16.3453874 L13.1,17 L10.9,17 L10.9,16.3453874 C10.9,13.7153014 8.71379354,11.5724678 6.00431499,11.5686551 C3.36385764,11.5686551 1.21878828,13.5982976 1.10476733,16.1330237 L1.1,16.3453874 L1.1,17 L-1.1,17 L-1.1,16.3453874 C-1.1,12.4868939 2.08593518,9.36865623 6.00586243,9.36865623 Z" id="路径" fill="#000000"></path>
                        </g>
                    </g>
                </g>
            </g>
        </g>
    </g>
</svg>