<?xml version="1.0" encoding="UTF-8"?>
<svg width="24px" height="24px" viewBox="0 0 24 24" version="1.1" xmlns="http://www.w3.org/2000/svg" xmlns:xlink="http://www.w3.org/1999/xlink">
    <title>首页-未选中</title>
    <g id="控件" stroke="none" stroke-width="1" fill="none" fill-rule="evenodd">
        <g id="Navigation-Bar/首页选中" transform="translate(-35.000000, -5.000000)" fill="#CD4444" fill-rule="nonzero">
            <g id="首页选中" transform="translate(0.000000, -0.000000)">
                <g id="首页" transform="translate(0.000000, 0.000000)">
                    <g id="首页-icon" transform="translate(35.000000, 5.000000)">
                        <path d="M21.5253587,15.9676164 C19.8393261,19.4216327 17.2698933,20.6258306 14.8594725,19.4885325 C13.5242761,18.8591781 12.8655119,17.8383354 12.9917119,16.5474154 C11.7776676,17.2907474 10.3692751,17.3700362 8.81953861,16.639093 C6.2955378,15.4472839 5.25060147,12.5408556 6.67413792,9.63194943 C8.09767438,6.7230433 11.0280393,5.71706724 13.5772801,6.91878741 C14.8720925,7.5283197 15.6747248,8.45252923 15.9750809,9.61460501 L16.5303611,8.47730696 L19.1982299,9.73601592 L16.1391409,15.9676164 C15.6873448,16.8918259 15.9498409,17.3948139 16.4773571,17.645069 C17.3809493,18.0687683 18.4284097,17.3080918 19.521302,15.0756179 C21.4395426,11.1731246 19.8166101,7.08975378 15.4652327,5.0381573 C11.1138553,2.98656081 6.73723794,4.5227804 4.78113732,8.53429575 C2.76193667,12.644922 4.20061713,16.901737 8.56713853,18.9558112 C9.89675787,19.5902097 11.3543779,19.9238097 12.8326999,19.932054 L12.6055398,21.9985171 C11.1163793,22.0307282 9.21075873,21.5351735 7.66354624,20.8042303 C1.98454442,18.1307126 0.0839718145,12.590411 2.57263661,7.50849751 C5.0335374,2.48605056 10.6544872,0.516220597 16.358729,3.20708265 C21.8686228,5.80874486 23.8903474,11.1433913 21.5253587,15.9676164 Z M14.2612843,13.2123322 C15.0815846,11.5373573 14.5136844,10.1052042 13.092672,9.43868309 C11.6716595,8.77216201 10.179975,9.27762781 9.37986679,10.9104806 C8.57975853,12.5433333 9.07193869,14.0374308 10.5106191,14.7138629 C11.9492996,15.3902951 13.4334121,14.9071293 14.2612843,13.2123322 Z" id="形状"></path>
                    </g>
                </g>
            </g>
        </g>
    </g>
</svg>