<?xml version="1.0" encoding="UTF-8"?>
<svg width="12px" height="12px" viewBox="0 0 12 12" version="1.1" xmlns="http://www.w3.org/2000/svg" xmlns:xlink="http://www.w3.org/1999/xlink">
    <title>info-circle</title>
    <g id="页面-1" stroke="none" stroke-width="1" fill="none" fill-rule="evenodd">
        <g id="兑换优惠券-APP" transform="translate(-301.000000, -60.000000)" fill="#F0EED1" fill-rule="nonzero">
            <g id="Topbar/电商小程序" transform="translate(16.000000, 14.333300)">
                <g id="编辑区域" transform="translate(0.000000, 35.666700)">
                    <g id="说明" transform="translate(281.000000, 6.000000)">
                        <g id="提示" transform="translate(4.000000, 4.000000)">
                            <path d="M6,0.75 C8.89921875,0.75 11.25,3.10078125 11.25,6 C11.25,8.89921875 8.89921875,11.25 6,11.25 C3.10078125,11.25 0.75,8.89921875 0.75,6 C0.75,3.10078125 3.10078125,0.75 6,0.75 Z M6,1.640625 C3.59296875,1.640625 1.640625,3.59296875 1.640625,6 C1.640625,8.40703125 3.59296875,10.359375 6,10.359375 C8.40703125,10.359375 10.359375,8.40703125 10.359375,6 C10.359375,3.59296875 8.40703125,1.640625 6,1.640625 Z M6.28125,5.25 C6.3328125,5.25 6.375,5.2921875 6.375,5.34375 L6.375,8.53125 C6.375,8.5828125 6.3328125,8.625 6.28125,8.625 L5.71875,8.625 C5.6671875,8.625 5.625,8.5828125 5.625,8.53125 L5.625,5.34375 C5.625,5.2921875 5.6671875,5.25 5.71875,5.25 Z M6,3.375 C6.31066017,3.375 6.5625,3.62683983 6.5625,3.9375 C6.5625,4.24816017 6.31066017,4.5 6,4.5 C5.68933983,4.5 5.4375,4.24816017 5.4375,3.9375 C5.4375,3.62683983 5.68933983,3.375 6,3.375 Z" id="形状结合"></path>
                        </g>
                    </g>
                </g>
            </g>
        </g>
    </g>
</svg>