<?xml version="1.0" encoding="UTF-8"?>
<svg width="94px" height="87px" viewBox="0 0 94 87" version="1.1" xmlns="http://www.w3.org/2000/svg" xmlns:xlink="http://www.w3.org/1999/xlink">
    <title>抖音logo</title>
    <g id="页面-1" stroke="none" stroke-width="1" fill="none" fill-rule="evenodd" opacity="0.89662">
        <g id="我的-优惠券备份" transform="translate(-225.000000, -264.000000)" fill="#F5F6F7">
            <g id="抖音券备份" transform="translate(16.000000, 264.000000)">
                <g id="抖音logo" transform="translate(203.282540, -12.483716)">
                    <path d="M94.6058669,50.4081339 C86.4138493,50.4081339 78.4461369,47.7457282 71.8925228,42.8207652 L71.8925228,77.1784772 C71.8925228,94.7230482 58.3756938,108.932298 41.6990865,108.932298 C25.0224792,108.932298 11.5056502,94.7230482 11.5056502,77.1784772 C11.5056502,59.6339061 25.0224792,45.4246565 41.6990865,45.4246565 C43.3667472,45.4246565 44.9856459,45.5709426 46.5655351,45.8440098 L46.5655351,64.0419918 C45.0539128,63.4470953 43.4447664,63.1447708 41.8258677,63.1447708 C34.3847851,63.1447708 28.3480483,69.4838321 28.3480483,77.3150108 C28.3480483,85.1364371 34.3847851,91.4852508 41.8258677,91.4852508 C49.257198,91.4852508 55.2939348,85.1364371 55.2939348,77.3150108 L55.2939348,9.06770222 L72.1363329,9.06770222 C72.1363329,22.1846828 82.2495736,32.8148009 94.7228957,32.8148009 L94.7228957,50.3983815 L94.6058669,50.4081339" id="路径" transform="translate(53.114273, 59.000000) rotate(-345.000000) translate(-53.114273, -59.000000) "></path>
                </g>
            </g>
        </g>
    </g>
</svg>