<?xml version="1.0" encoding="UTF-8"?>
<svg width="42px" height="42px" viewBox="0 0 42 42" version="1.1" xmlns="http://www.w3.org/2000/svg" xmlns:xlink="http://www.w3.org/1999/xlink">
    <title>形状结合</title>
    <g id="页面-1" stroke="none" stroke-width="1" fill="none" fill-rule="evenodd">
        <g id="兑换优惠券-兑换成功" transform="translate(-166.000000, -296.000000)" fill="#FEFEFE" fill-rule="nonzero">
            <g id="编组" transform="translate(127.000000, 276.000000)">
                <path d="M60,20 C71.596875,20 81,29.403125 81,41 C81,52.596875 71.596875,62 60,62 C48.403125,62 39,52.596875 39,41 C39,29.403125 48.403125,20 60,20 Z M60,23.5625 C50.371875,23.5625 42.5625,31.371875 42.5625,41 C42.5625,50.628125 50.371875,58.4375 60,58.4375 C69.628125,58.4375 77.4375,50.628125 77.4375,41 C77.4375,31.371875 69.628125,23.5625 60,23.5625 Z M68.765625,33.546875 C69.0703125,33.546875 69.2484375,33.89375 69.065625,34.1421875 L59.19375,47.8296875 C58.5984375,48.659375 57.365625,48.659375 56.7703125,47.8296875 L50.9296875,39.7296875 C50.7515625,39.48125 50.9296875,39.134375 51.234375,39.134375 L53.4328125,39.134375 C53.915625,39.134375 54.365625,39.36875 54.646875,39.7578125 L57.984375,44.3890625 L65.353125,34.1703125 C65.634375,33.7765625 66.0890625,33.546875 66.5671875,33.546875 Z" id="形状结合"></path>
            </g>
        </g>
    </g>
</svg>