<?xml version="1.0" encoding="UTF-8"?>
<svg width="42px" height="42px" viewBox="0 0 42 42" version="1.1" xmlns="http://www.w3.org/2000/svg" xmlns:xlink="http://www.w3.org/1999/xlink">
    <title>感叹号</title>
    <g id="页面-1" stroke="none" stroke-width="1" fill="none" fill-rule="evenodd">
        <g id="兑换优惠券-兑换失败" transform="translate(-166.000000, -296.000000)" fill="#FFFFFF" fill-rule="nonzero">
            <g id="编组" transform="translate(127.000000, 276.000000)">
                <path d="M59.9976591,20 C62.8301193,20 65.5829896,20.5571906 68.1719987,21.6528428 C70.6720544,22.7110368 72.9192955,24.2234114 74.8481775,26.1525084 C76.7770594,28.0816054 78.2892654,30.3244147 79.3473414,32.8294314 C80.4428715,35.4187291 81,38.1719064 81,41.0046823 C81,43.8374582 80.4428715,46.5906355 79.3473414,49.1799331 C78.2845837,51.6755853 76.7723777,53.9230769 74.8434957,55.8474916 C72.9146138,57.7765886 70.6720544,59.2889632 68.1673169,60.3471572 C65.5829896,61.4428094 62.8301193,62 59.9976591,62 C57.165199,62 54.4123286,61.4428094 51.8233196,60.3471572 C49.3232639,59.2889632 47.0760227,57.7765886 45.1518225,55.8474916 C43.2229406,53.9230769 41.7107346,51.6755853 40.6526586,49.1752508 C39.5571285,46.5859532 39,43.8327759 39,41 C39,38.1672241 39.5571285,35.4140468 40.6526586,32.8247492 C41.7107346,30.3244147 43.2229406,28.0769231 45.1518225,26.1478261 C47.0807045,24.2187291 49.3232639,22.7063545 51.8280013,21.6481605 C54.4123286,20.5571906 57.165199,20 59.9976591,20 Z M60,23.5 C50.3487614,23.5 42.5,31.3496364 42.5,41.0019509 C42.5,50.6542655 50.3487614,58.5039019 60,58.5039019 C69.6512386,58.5039019 77.5,50.6542655 77.5,41.0019509 C77.5,31.3496364 69.6512386,23.5 60,23.5 Z M60.1193847,45.6588629 C60.9343451,45.6588629 61.6419454,45.9444816 62.2324257,46.5110368 C62.818026,47.077592 63.1157062,47.7565217 63.1157062,48.5384615 C63.1157062,49.3297659 62.822906,49.9993311 62.2324257,50.5518395 C61.7785855,50.9779264 61.2613052,51.2354515 60.675705,51.3337793 C60.4902649,51.3431438 60.3097048,51.3478261 60.1193847,51.3478261 C59.9290646,51.3478261 59.7485045,51.3431438 59.5630644,51.3337793 C58.9823441,51.2354515 58.4601839,50.9732441 58.0063436,50.5518395 C57.4207434,49.9946488 57.1230632,49.3250836 57.1230632,48.5384615 C57.1230632,47.7565217 57.4158633,47.077592 58.0063436,46.5110368 C58.5968239,45.9444816 59.3044243,45.6588629 60.1193847,45.6588629 Z M60.1242647,30.6521739 C60.9977851,30.6521739 61.7151455,30.9424749 62.2763457,31.5183946 C62.837546,32.0989967 63.1157062,32.8200669 63.1157062,33.6909699 C63.1157062,34.2310648 62.5069859,37.2387967 62.0209535,40.3737533 L61.9286111,40.9814792 C61.7779151,41.9949086 61.6448961,43.0058645 61.5541054,43.935786 L58.738344,43.935786 C58.6589021,43.0058645 58.5293142,41.9949086 58.3772004,40.9814792 L58.28345,40.3737533 C57.7873902,37.2387967 57.1279432,34.2310648 57.1279432,33.6909699 C57.1279432,32.8341137 57.4061033,32.1130435 57.9673036,31.5324415 C58.5333839,30.9471572 59.2507443,30.6521739 60.1242647,30.6521739 Z" id="感叹号"></path>
            </g>
        </g>
    </g>
</svg>