<?xml version="1.0" encoding="UTF-8"?>
<svg width="45px" height="45px" viewBox="0 0 45 45" version="1.1" xmlns="http://www.w3.org/2000/svg" xmlns:xlink="http://www.w3.org/1999/xlink">
    <title>已失效</title>
    <defs>
        <rect id="path-1" x="0" y="0" width="45" height="45"></rect>
    </defs>
    <g id="抵用券" stroke="none" stroke-width="1" fill="none" fill-rule="evenodd">
        <g id="券状态" transform="translate(-225.000000, -45.000000)">
            <g id="已失效" transform="translate(225.000000, 45.000000)">
                <mask id="mask-2" fill="white">
                    <use xlink:href="#path-1"></use>
                </mask>
                <g id="矩形"></g>
                <path d="M32.127253,-2.89618335 C34.2970884,-2.18751719 36.3018216,-1.20555054 38.1155556,-0.000913267681 L35.6766692,-0.000560853995 C34.4631982,-0.655728297 33.1804113,-1.20845899 31.838335,-1.64611759 C19.6349929,-5.62943799 6.52661502,1.03977136 2.54450012,13.2444489 C-1.43761472,25.4491265 5.23148804,38.5595628 17.4348302,42.5428833 C29.6381723,46.5262037 42.7411782,39.8317217 46.728665,27.6523168 C47.6861397,24.701687 48.0484992,21.5605782 47.782911,18.4472857 C47.499084,15.1574687 46.5286058,12.0405783 44.9997663,9.25828588 L44.9998577,6.90072689 C48.9881155,12.9262347 50.2950343,20.6414786 47.8936262,28.0386457 C45.0846757,36.6921417 37.9370298,42.7018929 29.6234723,44.4689941 C25.4287898,45.3606013 21.0536548,45.1547397 16.9636561,43.8052743 C4.08401944,39.6223156 -2.9844061,25.7514926 1.1972829,12.8704452 C4.00623339,4.21694919 11.1538793,-1.79280196 19.4674367,-3.55990314 C23.6726945,-4.45023066 28.037993,-4.22136991 32.127253,-2.89618335 Z M31.4896978,-0.932470349 C32.31849,-0.664317149 33.1210172,-0.352577562 33.8955569,-0.000611214331 L32.8794358,-0.000693562502 C27.0676322,-2.37071011 20.3805481,-2.18142574 14.597844,0.755429469 C3.75309154,6.28435967 -0.586952822,19.5471746 4.94180448,30.3952152 C10.4705618,41.2432558 23.6945542,45.5406394 34.5753301,40.0569015 C44.8741715,34.832889 49.284895,22.6229913 45.0000154,12.1140401 L45.0005536,11.0865689 C47.2706269,16.0407109 47.7528015,21.8298003 45.9169308,27.4198316 C43.3468964,35.3385858 36.7794985,40.8567867 29.1715596,42.473904 C25.31826,43.2953819 21.3159115,43.0792306 17.5732203,41.8475109 C5.76884929,38.0146922 -0.684585901,25.3020755 3.14598731,13.4952089 C5.71602176,5.57645481 12.2834214,0.058261867 19.8913602,-1.55885545 C23.7446581,-2.38034134 27.7470066,-2.16419005 31.4896978,-0.932470349 Z M25.4864043,37.7004408 L25.4612647,38.9406926 L26.3763318,39.8058116 L25.1578721,40.1992329 L24.5517171,41.3046675 L23.8153256,40.3079963 L22.5612617,40.1475437 L23.3326775,39.1216425 L23.1603564,37.8996392 C23.1603564,37.8996392 24.2083501,38.2143918 24.3117579,38.2660333 L24.3179465,38.273017 L25.4864043,37.7004408 Z M33.510492,34.4831929 L34.2054251,35.5216249 L35.419298,35.7235687 L34.6478821,36.7494699 L34.7787448,38.0132339 L33.6047786,37.6064348 L32.4699303,38.1626415 L32.527412,36.9062895 L31.684878,35.9835791 L32.8952207,35.6142881 L32.8954887,35.615549 L33.510492,34.4831929 Z M14.3454753,22.5710929 L17.868065,26.6233688 L11.8861339,31.8233821 L14.1925915,34.476658 C14.4847428,34.8127396 14.7970288,34.8608811 15.1294495,34.6210826 L15.2206089,34.548544 L20.0350986,30.363372 C20.2087676,30.2124038 20.3224655,30.0119332 20.356896,29.7787342 C20.3836763,29.5172485 20.0278599,28.918395 19.3053467,27.968352 L19.1559595,27.7736567 L20.3048627,27.283103 C21.2458603,28.5994312 21.7108735,29.4656329 21.7011634,29.8636727 C21.6600017,30.2255315 21.4955303,30.5648918 21.2012859,30.8873723 L21.0672169,31.0245611 L15.7413686,35.6542504 C14.9644285,36.3296342 14.2286325,36.3003222 13.525777,35.5734458 L13.408938,35.445842 L9.0476365,30.4287386 L9.97387098,29.6235752 L11.1229062,30.945389 L16.1689545,26.5589262 L14.1728203,24.2626365 L7.80495824,29.7981346 L7.04173048,28.9201414 L14.3454753,22.5710929 Z M38.8630027,18.2737927 C39.3075855,20.5743663 39.1846899,22.9498089 38.5047023,25.1993625 C36.2126055,32.6087432 28.3752807,36.8328951 20.8795004,34.7813059 L20.5673897,34.6921829 L20.9428418,34.3806164 C23.7193057,35.1312745 26.6867177,35.0517841 29.3976653,34.1089256 C35.7938356,31.8744153 39.6440959,25.4584626 38.5677243,18.9102374 L38.5117869,18.5933016 L38.8630027,18.2737927 Z M38.8704223,28.5097064 L39.9059203,29.1686694 L41.1164052,28.8810603 L40.814548,30.1405922 L41.43668,31.2353546 L40.1830427,31.319948 L39.3700264,32.3059279 L38.9194523,31.1022131 L37.8019111,30.6056621 L38.755106,29.7743977 L38.8704223,28.5097064 Z M25.3257245,15.0926765 L26.1057265,15.9899662 L22.9507402,18.7325539 L23.3533219,19.1956711 C23.6156244,19.5266449 23.8576371,19.8561999 24.0793599,20.184336 L24.2943195,20.5119993 L28.192223,17.1236035 L28.9638379,18.0112449 L25.5097551,21.0138332 C27.0117016,21.8469548 28.9696784,21.8497074 31.3679015,21.0209873 L31.6976592,20.9028261 L31.8920797,22.1397632 C29.1303977,23.015939 26.8516322,22.9472101 25.0448739,21.959999 C25.3312353,22.6596577 25.5009972,23.3421012 25.572195,24.0085906 C25.6714611,25.3832961 25.2501805,26.9127486 24.3024815,28.5741375 L24.1059211,28.9081676 L22.9428895,28.5640486 C24.0035033,26.7442995 24.4726707,25.2184788 24.3420047,23.9769381 C24.2769751,23.5591731 24.1711426,23.1443544 24.020213,22.7275421 L23.898493,22.414482 L20.4637068,25.4002961 L19.6920919,24.5126547 L23.3487885,21.3339369 C23.1478284,21.0004562 22.9265785,20.6655568 22.6809684,20.3327768 L22.4270874,20.0008344 L22.0245058,19.5377172 L19.8922368,21.3912703 C20.0136401,22.0988122 20.0512317,22.7672051 20.0171632,23.3858858 L19.9942136,23.6910345 L18.6256049,23.6950118 C18.815499,22.3030655 18.6260266,20.8611509 18.0571875,19.369268 L17.9191827,19.0241003 L19.0798155,18.6249847 C19.2301221,19.0024977 19.3655661,19.3738742 19.4790708,19.7309733 L19.5850003,20.0830119 L21.2445038,18.6404275 L19.8354679,17.0195172 L20.7617024,16.2143538 L22.1707382,17.8352642 L25.3257245,15.0926765 Z M29.0717815,5.89450043 L29.3808379,5.99994565 L29.0398628,6.29647165 C27.6846698,5.8596607 26.2974192,5.60231369 24.9048707,5.53192214 C16.5453146,5.11443314 9.40310583,11.545831 8.98264754,19.899994 C8.91027211,21.1548258 9.01305578,22.4015836 9.25037955,23.6461246 L9.3456032,24.112735 L9.0046281,24.409261 C8.27735348,21.4416552 8.4357717,18.3255639 9.46047994,15.4426411 C12.3121725,7.47138805 21.0273583,3.24134285 29.0717815,5.89450043 Z M43.7730027,20.3533991 L43.8634063,21.6573934 L44.8036979,22.5290122 L43.6768243,22.9794067 L43.1839459,24.1503835 L42.3736117,23.129891 L41.143773,22.9774687 L41.7915286,21.9119553 L41.4968146,20.6500705 L42.7200882,20.9897177 L43.7730027,20.3533991 Z M33.0708463,13.1875845 C33.4004044,13.9174492 33.6674692,14.6338821 33.8456183,15.3259739 C34.3089471,15.3523318 34.7674273,15.390433 35.2264027,15.4406513 L35.9159051,15.5251132 L35.8985045,16.8106708 C35.2710492,16.7124241 34.6603681,16.633474 34.0748484,16.5834686 C34.2195482,17.8128099 34.118832,19.0175009 33.7600971,20.1830439 L33.6447234,20.5315178 L32.3722184,20.1978672 C32.818685,18.9966836 32.959811,17.7560248 32.822019,16.4868005 C32.2935379,16.4634382 31.7799194,16.4462124 31.2841699,16.4468023 L30.794488,16.4537632 L30.8030605,15.2944533 C31.3936248,15.2723171 31.9925763,15.2598291 32.5806184,15.2737636 C32.4609022,14.808678 32.3119259,14.3473458 32.1244552,13.8891214 L31.9764902,13.5460257 L33.0708463,13.1875845 Z M5.25810511,16.5546612 L6.04267876,17.5661319 L7.29574332,17.7281148 L6.63987074,18.8177584 L6.9264677,20.1037734 C6.9280031,20.104765 6.90303286,20.0978077 6.86027407,20.0857402 L6.68581373,20.0360541 C6.61465951,20.0156133 6.53289843,19.9919093 6.44771215,19.9667894 L6.18905945,19.8890287 C5.96631515,19.8205034 5.76945544,19.7549487 5.72838181,19.7257747 L5.72069547,19.7155963 L4.65966401,20.3760452 L4.56926039,19.0720509 L3.62870081,18.1991712 L4.76495864,17.724377 L5.25810511,16.5546612 Z M35.5814625,5.92341313 L36.3530774,6.81105451 L35.6101602,7.45686262 C36.8258513,8.99175865 37.6049096,10.5504931 37.9376866,12.141453 C39.0670494,12.4840415 40.1534675,12.5839764 41.1824432,12.4538602 L41.4893981,12.4079365 L41.6355772,13.6868091 C40.510636,13.8346904 39.3215611,13.7334186 38.0960363,13.3758678 C38.1679484,14.5634601 38.0118938,15.7571317 37.6349061,16.9507682 L37.5010705,17.3486373 L36.2503843,16.9621417 C36.8080265,15.5965582 37.0192129,14.2611188 36.8755561,12.9461754 C36.0384228,12.6067218 35.1811728,12.1661818 34.3314897,11.6174295 C34.3981302,11.9279249 34.4499081,12.2322837 34.4873553,12.5228974 L34.5200454,12.8086474 L33.3205021,12.5979021 C33.0954292,11.0784725 32.4110527,9.40745821 31.2525119,7.58382017 L31.0144772,7.21705728 L32.055609,6.58304057 C32.3122363,6.99517363 32.5540009,7.40117013 32.7738262,7.79288934 L32.9860763,8.17954794 L35.5814625,5.92341313 Z M29.7552971,12.7835647 C30.0674437,13.8758162 30.250825,14.9243739 30.3054408,15.9292378 L30.3209641,16.3572186 L29.1167553,16.4723716 C29.1348016,15.5231523 29.0133355,14.5212177 28.7388043,13.4783489 L28.6286537,13.0853773 L29.7552971,12.7835647 Z M30.9437287,9.00634477 L31.7069565,9.88433788 L27.1819151,13.8178963 L26.4186873,12.9399032 L28.2711563,11.3295765 C27.9685586,11.1860827 27.6692598,11.0683057 27.373792,10.9686371 L27.0796209,10.8747228 L27.9006064,9.89002569 C28.1969138,10.0262834 28.5120922,10.1842497 28.8385329,10.3633925 L29.168446,10.5495745 L30.9437287,9.00634477 Z M32.5557494,11.5838631 L32.8894784,11.6343975 L32.8196737,12.7622402 C32.1543062,12.6359694 31.4865172,12.5443266 30.820601,12.4922516 L30.321582,12.4606915 L30.4031163,11.4242869 C30.9601253,11.4068523 31.6841507,11.4583761 32.5557494,11.5838631 Z M9.33763115,7.83525405 L9.78793713,9.03770791 L10.9297035,9.54228907 L9.96839156,10.3976838 L9.84549445,11.6890273 L8.77597677,10.9634908 L7.56549184,11.2510999 L7.86888441,9.99255962 L7.2464844,8.89653617 L8.49912232,8.8134732 L9.33763115,7.83525405 Z M34.7611119,8.19492902 L33.5261326,9.26848016 C33.6347241,9.52980378 33.7349286,9.78147913 33.8363942,10.0151191 C34.7938486,10.7073344 35.7169344,11.243096 36.6127775,11.6500876 C36.2606421,10.4655545 35.6522278,9.31747151 34.7611119,8.19492902 Z M16.8467861,2.28268272 L16.7811875,3.56316497 L17.6224541,4.48614475 L16.4121115,4.85543578 L16.4118434,4.85417483 L15.8223326,5.99429178 L15.1273995,4.95585982 L13.8880342,4.74615517 L14.65945,3.72025393 L14.5288553,2.45775095 L15.7025535,2.8632891 L16.8467861,2.28268272 Z M23.1026677,0.312435962 L23.9115924,1.25151579 L25.1897391,1.33831656 L24.492266,2.38803894 L24.7463787,3.60847211 L23.4990222,3.3424767 L22.4221506,3.9720261 L22.3397382,2.72432255 L21.376363,1.92482516 L22.569188,1.4419611 L23.1026677,0.312435962 Z" id="形状结合" fill="#C2C3C6" fill-rule="nonzero" mask="url(#mask-2)"></path>
            </g>
        </g>
    </g>
</svg>