
<?xml version="1.0" encoding="UTF-8"?>
<svg width="100px" height="100px" viewBox="0 0 100 100" version="1.1" xmlns="http://www.w3.org/2000/svg" xmlns:xlink="http://www.w3.org/1999/xlink">
    <title>编组@6x</title>
    <g id="关于我们" stroke="none" stroke-width="1" fill="none" fill-rule="evenodd">
        <g id="版权所有" transform="translate(-138.000000, -112.000000)">
            <g id="编组" transform="translate(138.000000, 112.000000)">
                <g id="编组-3" transform="translate(10.097656, 13.671875)">
                    <path d="M9.71491339,42.9177779 C12.2527746,42.9177779 14.4103153,44.538411 15.210822,46.8002876 L19.2352813,46.8002876 C18.33511,42.3697338 14.4147006,39.0352682 9.71491339,39.0352682 C4.34976487,39.0352682 0,43.3809866 0,48.7411441 C0,54.1016999 4.34976487,58.44702 9.71491339,58.44702 C14.4147006,58.44702 18.33511,55.1125544 19.2352813,50.682399 L15.210822,50.682399 C14.4103153,52.9438772 12.2527746,54.5649086 9.71491339,54.5649086 C6.49574454,54.5649086 3.88612482,51.9573183 3.88612482,48.7411441 C3.88612482,45.52497 6.49574454,42.9177779 9.71491339,42.9177779" id="Fill-3" fill="#000000"></path>
                    <path d="M30.9882147,54.564829 C27.7720406,54.564829 25.1648485,51.9575834 25.1648485,48.7413433 C25.1648485,45.5251031 27.7720406,42.9174593 30.9882147,42.9174593 C34.2043889,42.9174593 36.811581,45.5251031 36.811581,48.7413433 C36.811581,51.9575834 34.2043889,54.564829 30.9882147,54.564829 M30.9882147,39.0352682 C25.6280572,39.0352682 21.2823388,43.3806775 21.2823388,48.7413433 C21.2823388,54.1016107 25.6280572,58.44702 30.9882147,58.44702 C36.3487705,58.44702 40.6940906,54.1016107 40.6940906,48.7413433 C40.6940906,43.3806775 36.3487705,39.0352682 30.9882147,39.0352682" id="Fill-5" fill="#000000"></path>
                    <polygon id="Fill-7" fill="#000000" points="41.8235016 39.5646796 41.8235016 43.4477424 46.977392 43.4477424 46.977392 57.9176086 50.8578372 57.9176086 50.8578372 43.4477424 56.0117275 43.4477424 56.0117275 39.5646796"></polygon>
                    <polygon id="Fill-9" fill="#000000" points="57.9176086 39.5646796 57.9176086 43.4477424 63.071499 43.4477424 63.071499 57.9176086 66.9519441 57.9176086 66.9519441 43.4477424 72.1058345 43.4477424 72.1058345 39.5646796"></polygon>
                    <polygon id="Fill-11" fill="#000000" points="75.9175967 57.9176086 79.799947 57.9176086 79.799947 39.5646796 75.9175967 39.5646796"></polygon>
                    <path d="M21.0416852,65.0775235 C22.1314485,65.0775235 23.0580067,65.773168 23.4015755,66.7433251 L25.1293951,66.7433251 C24.7427306,64.8424546 23.0596029,63.4117219 21.0416852,63.4117219 C18.7380587,63.4117219 16.870577,65.276336 16.870577,67.5764251 C16.870577,69.8765141 18.7380587,71.7411282 21.0416852,71.7411282 C23.0596029,71.7411282 24.7427306,70.3103955 25.1293951,68.4095251 L23.4015755,68.4095251 C23.0580067,69.3796822 22.1314485,70.0753266 21.0416852,70.0753266 C19.6594295,70.0753266 18.5389405,68.9565582 18.5389405,67.5764251 C18.5389405,66.1962919 19.6594295,65.0775235 21.0416852,65.0775235" id="Fill-13" fill="#000000"></path>
                    <path d="M29.964686,70.0753266 C28.5845529,70.0753266 27.4657844,68.9565582 27.4657844,67.5764251 C27.4657844,66.1962919 28.5845529,65.0775235 29.964686,65.0775235 C31.3448191,65.0775235 32.4635875,66.1962919 32.4635875,67.5764251 C32.4635875,68.9565582 31.3448191,70.0753266 29.964686,70.0753266 M29.964686,63.4117219 C27.6645969,63.4117219 25.7999829,65.276336 25.7999829,67.5764251 C25.7999829,69.8765141 27.6645969,71.7411282 29.964686,71.7411282 C32.2647751,71.7411282 34.1293891,69.8765141 34.1293891,67.5764251 C34.1293891,65.276336 32.2647751,63.4117219 29.964686,63.4117219" id="Fill-14" fill="#000000"></path>
                    <polygon id="Fill-15" fill="#000000" points="35.3999765 63.6234865 35.3999765 65.1877271 35.3999765 71.4940695 37.069718 71.4940695 37.069718 68.3408983 40.8357218 68.3408983 40.8357218 66.7766577 37.069718 66.7766577 37.069718 65.1877271 41.5058548 65.1877271 41.5058548 63.6234865 37.069718 63.6234865"></polygon>
                    <polygon id="Fill-16" fill="#000000" points="42.5293835 63.6234865 42.5293835 65.1877271 42.5293835 71.4940695 44.199125 71.4940695 44.199125 68.3408983 47.9651288 68.3408983 47.9651288 66.7766577 44.199125 66.7766577 44.199125 65.1877271 48.6352618 65.1877271 48.6352618 63.6234865 44.199125 63.6234865"></polygon>
                    <polygon id="Fill-17" fill="#000000" points="49.6940847 63.6234865 49.6940847 65.1877271 49.6940847 69.929829 49.6940847 71.4940695 51.3638261 71.4940695 55.799963 71.4940695 55.799963 69.929829 51.3638261 69.929829 51.3638261 68.3408983 55.1298299 68.3408983 55.1298299 66.7766577 51.3638261 66.7766577 51.3638261 65.1877271 55.799963 65.1877271 55.799963 63.6234865 51.3638261 63.6234865"></polygon>
                    <polygon id="Fill-18" fill="#000000" points="62.92937 65.1877271 62.92937 63.6234865 58.4932331 63.6234865 56.8234917 63.6234865 56.8234917 65.1877271 56.8234917 69.929829 56.8234917 71.4940695 58.4932331 71.4940695 62.92937 71.4940695 62.92937 69.929829 58.4932331 69.929829 58.4932331 68.3408983 62.259237 68.3408983 62.259237 66.7766577 58.4932331 66.7766577 58.4932331 65.1877271"></polygon>
                    <path d="M43.2861377,16.6317495 C44.3709419,14.0584595 43.4135743,11.9485528 41.2829934,11.0512453 C39.1233411,10.1411988 36.9780253,11.0142225 35.9183102,13.5281962 C34.8462497,16.0720271 35.7068451,18.2456291 37.8668957,19.1556756 C39.9970783,20.0529831 42.1889881,19.2348967 43.2861377,16.6317495 M54.1986942,20.2532252 C51.9669605,25.5478967 48.2685111,27.5427538 44.6293993,26.0096876 C42.6170955,25.1621421 41.5709205,23.6764493 41.6601262,21.7285675 C39.9261917,22.9491286 37.8529573,23.1553422 35.5156902,22.1708517 C31.6985654,20.5629436 29.9522855,16.2746578 31.8347632,11.8080251 C33.7052938,7.37124959 37.9656591,5.61325941 41.8122536,7.23350851 C43.7652197,8.05597403 45.0168862,9.38441905 45.5461464,11.1049883 L46.2816946,9.36013522 L50.3059039,11.0548282 L46.2661633,20.6385818 C45.6676094,22.0581907 46.0897432,22.7934733 46.8882132,23.129864 C48.2493956,23.7031217 49.738811,22.4845511 51.1852165,19.0533651 C53.7164263,13.0488891 51.0235313,7.03844166 44.4545722,4.27127913 C37.8561432,1.49217372 31.5520133,4.13075138 28.9459345,10.312778 C26.2904741,16.613039 28.7276993,22.8989686 35.2966585,25.6661311 C37.1608172,26.4511757 39.4240118,26.9519799 41.6744628,26.8198122 L41.4741483,29.9400855 C39.2826368,30.0969352 36.4372162,29.4902375 34.0995508,28.5057471 C25.548554,24.903778 22.3407355,16.7257001 25.6321843,8.91705482 C28.8861986,1.19678678 37.0286017,-2.16552868 45.6393344,1.46112227 C53.953777,4.96396548 57.3280596,12.8287422 54.1986942,20.2532252" id="Fill-19" fill="#CD4444"></path>
                </g>
            </g>
        </g>
    </g>
</svg>