<?xml version="1.0" encoding="UTF-8"?>
<svg width="45px" height="45px" viewBox="0 0 45 45" version="1.1" xmlns="http://www.w3.org/2000/svg" xmlns:xlink="http://www.w3.org/1999/xlink">
    <title>已过期</title>
    <defs>
        <rect id="path-1" x="0" y="0" width="45" height="45"></rect>
    </defs>
    <g id="抵用券" stroke="none" stroke-width="1" fill="none" fill-rule="evenodd">
        <g id="券状态" transform="translate(-160.000000, -45.000000)">
            <g id="已过期" transform="translate(160.000000, 45.000000)">
                <mask id="mask-2" fill="white">
                    <use xlink:href="#path-1"></use>
                </mask>
                <g id="矩形"></g>
                <path d="M32.127253,-2.89618335 C33.6857673,-2.38717407 35.1591049,-1.73716826 36.5376695,-0.964927042 L34.5895813,-0.551102236 C33.7044261,-0.970535608 32.7861667,-1.33702436 31.838335,-1.64611759 C19.6349929,-5.62943799 6.52661502,1.03977136 2.54450012,13.2444489 C-1.43761472,25.4491265 5.23148804,38.5595628 17.4348302,42.5428833 C29.6381723,46.5262037 42.7411782,39.8317217 46.728665,27.6523168 C47.6861397,24.701687 48.0484992,21.5605782 47.782911,18.4472857 C47.572749,16.0113144 46.9861113,13.6701549 46.0750805,11.4894422 L46.9770937,10.5075574 C49.3510605,15.8489158 49.8383949,22.048086 47.8936262,28.0386457 C45.0846757,36.6921417 37.9370298,42.7018929 29.6234723,44.4689941 C25.4287898,45.3606013 21.0536548,45.1547397 16.9636561,43.8052743 C4.08401944,39.6223156 -2.9844061,25.7514926 1.1972829,12.8704452 C4.00623339,4.21694919 11.1538793,-1.79280196 19.4674367,-3.55990314 C23.6726945,-4.45023066 28.037993,-4.22136991 32.127253,-2.89618335 Z M31.4896978,-0.932470349 C32.0989855,-0.735337157 32.6940784,-0.514647809 33.274292,-0.271737121 L32.573943,-0.122602526 C26.8341821,-2.36325513 20.2794899,-2.13010141 14.597844,0.755429468 C3.75309154,6.28435967 -0.586952822,19.5471746 4.94180448,30.3952152 C10.4705618,41.2432558 23.6945542,45.5406394 34.5753301,40.0569015 C44.7504741,34.8956337 49.1780928,22.915285 45.1506516,12.4934242 L45.4589471,12.1593349 C47.3276306,16.865767 47.6218175,22.2286327 45.9169308,27.4198316 C43.3468964,35.3385858 36.7794985,40.8567867 29.1715596,42.473904 C25.31826,43.2953819 21.3159115,43.0792306 17.5732203,41.8475109 C5.76884929,38.0146922 -0.684585901,25.3020755 3.14598731,13.4952089 C5.71602176,5.57645481 12.2834214,0.058261867 19.8913602,-1.55885545 C23.7446581,-2.38034134 27.7470066,-2.16419005 31.4896978,-0.932470349 Z M25.4864043,37.7004408 L25.4612647,38.9406926 L26.3763318,39.8058116 L25.1578721,40.1992329 L24.5517171,41.3046675 L23.8153256,40.3079963 L22.5612617,40.1475437 L23.3326775,39.1216425 L23.1603564,37.8996392 C23.1603564,37.8996392 24.2083501,38.2143918 24.3117579,38.2660333 L24.3179465,38.273017 L25.4864043,37.7004408 Z M33.510492,34.4831929 L34.2054251,35.5216249 L35.419298,35.7235687 L34.6478821,36.7494699 L34.7787448,38.0132339 L33.6047786,37.6064348 L32.4699303,38.1626415 L32.527412,36.9062895 L31.684878,35.9835791 L32.8954887,35.615549 L33.510492,34.4831929 Z M14.472214,22.7168891 L17.9948037,26.769165 L12.0128726,31.9691783 L14.3193301,34.6224542 C14.6380406,34.9890886 14.9807131,35.0130506 15.3473476,34.6943401 L15.3473476,34.6943401 L20.1618373,30.5091681 C20.3355062,30.3582 20.4492042,30.1577293 20.4836347,29.9245304 C20.5122003,29.6456123 20.105456,28.9828446 19.2826982,27.9194529 L19.2826982,27.9194529 L20.4316014,27.4288992 C21.372599,28.7452274 21.8376122,29.6114291 21.8279021,30.0094689 C21.7808601,30.4230218 21.5727607,30.8071889 21.1939556,31.1703573 L21.1939556,31.1703573 L15.8681073,35.8000466 C15.0480039,36.5129516 14.2737431,36.4406865 13.5356767,35.5916382 L13.5356767,35.5916382 L9.17437517,30.5745347 L10.1006097,29.7693714 L11.2496449,31.0911852 L16.2956931,26.7047223 L14.299559,24.4084327 L7.93169692,29.9439307 L7.16846915,29.0659376 L14.472214,22.7168891 Z M38.8630027,18.2737927 C39.3075855,20.5743663 39.1846899,22.9498089 38.5047023,25.1993625 C36.2135023,32.6058444 28.3814124,36.8295893 20.8882984,34.783711 L20.5673897,34.6921829 L20.9428418,34.3806164 C23.7193057,35.1312745 26.6867177,35.0517841 29.3976653,34.1089256 C35.7938356,31.8744153 39.6440959,25.4584626 38.5677243,18.9102374 L38.5117869,18.5933016 L38.8630027,18.2737927 Z M38.8704223,28.5097064 L39.9059203,29.1686694 L41.1164052,28.8810603 L40.814548,30.1405922 L41.43668,31.2353546 L40.1830427,31.319948 L39.3700264,32.3059279 L38.9194523,31.1022131 L37.8019111,30.6056621 L38.755106,29.7743977 L38.8704223,28.5097064 Z M31.6969508,20.6681769 L32.2802038,21.7873151 L30.2347693,23.5653842 C29.6848176,24.0434499 29.0782374,24.553803 28.4234157,25.1060916 C27.7589459,25.6667674 27.1683197,26.0785563 26.6792209,26.3343326 C26.1733479,26.5708122 25.6150709,26.649577 25.0308123,26.5815363 C24.7531554,26.5349352 24.5509826,26.5751687 24.4352033,26.6758141 C24.2325895,26.8519436 24.2614108,27.6060876 24.5397024,28.9395074 L24.5397024,28.9395074 L23.3191604,28.8994678 C23.1150917,27.6709179 23.1227822,26.7834001 23.3325838,26.2453015 L23.3325838,26.2453015 L20.9674164,23.5244878 L19.6552509,24.6651358 L18.9004102,23.796791 L21.0905689,21.8929152 L24.2692867,25.5496117 C24.3607248,25.5378821 24.4509018,25.5441879 24.5494659,25.560142 C24.9990896,25.6097063 25.4176871,25.5846067 25.7775748,25.4919693 C26.194091,25.3670444 26.7050087,25.0584232 27.319976,24.5577184 C27.8976114,24.0725267 28.5813778,23.4950767 29.3725365,22.807333 C29.8067089,22.4299127 30.2421424,22.034457 30.6956114,21.6402624 C31.1419544,21.2183842 31.4725181,20.8971514 31.6969508,20.6681769 L31.6969508,20.6681769 Z M29.0552792,5.88906771 L29.3808379,5.99994565 L29.0398628,6.29647165 C27.6846698,5.8596607 26.2974192,5.60231369 24.9048707,5.53192214 C16.5453146,5.11443314 9.40310583,11.545831 8.98264754,19.899994 C8.91027211,21.1548258 9.01305578,22.4015836 9.25037955,23.6461246 L9.3456032,24.112735 L9.0046281,24.409261 C8.27735348,21.4416552 8.4357717,18.3255639 9.46047994,15.4426411 C12.3102226,7.47683848 21.0154428,3.24712928 29.0552792,5.88906771 Z M43.7730027,20.3533991 L43.8634063,21.6573934 L44.8036979,22.5290122 L43.6768243,22.9794067 L43.1839459,24.1503835 L42.3736117,23.129891 L41.143773,22.9774687 L41.7915286,21.9119553 L41.4968146,20.6500705 L42.7200882,20.9897177 L43.7730027,20.3533991 Z M23.3667868,14.222696 L24.658403,15.7085305 L26.0284582,14.5175597 L26.8084602,15.4148494 L25.438405,16.6058202 L28.9609947,20.658096 C29.5313187,21.3141788 29.4787911,21.9357693 28.8227083,22.5060934 L28.8227083,22.5060934 L27.4623014,23.688677 L26.4964599,22.9868134 C26.9641808,22.6479862 27.3958309,22.3066367 27.7914102,21.9627648 C28.0519136,21.7363126 28.0695698,21.4838171 27.8515048,21.2329619 L27.8515048,21.2329619 L24.5218188,17.4025964 L20.8940671,20.5561529 L20.1140651,19.6588632 L23.7418168,16.5053067 L22.4502006,15.0194723 L23.3667868,14.222696 Z M22.7220095,20.2037001 C23.9324622,20.3880229 24.9227067,20.611318 25.6940042,20.85555 L25.6940042,20.85555 L25.4052525,22.0043296 C24.5823712,21.7202434 23.5753524,21.4776517 22.3938445,21.2681675 L22.3938445,21.2681675 Z M16.9309458,19.9527999 C18.0135104,19.8925734 18.9995923,19.916218 19.8891914,20.0237337 L19.8891914,20.0237337 L19.8021716,21.2681759 C18.9968846,21.1212469 18.0049379,21.0518832 16.8238092,21.0961557 L16.8238092,21.0961557 Z M33.7488764,17.6309727 C33.9970239,18.6179366 34.1021494,19.5767757 34.0751623,20.4810678 L34.0751623,20.4810678 L32.8986372,20.5890947 C32.9675599,19.7330441 32.9031089,18.8404817 32.7052841,17.9114075 L32.7052841,17.9114075 Z M5.25810511,16.5546612 L6.04267876,17.5661319 L7.29574332,17.7281148 L6.63987074,18.8177584 L6.9280031,20.104765 C6.9280031,20.104765 6.90303286,20.0978077 6.86027407,20.0857402 L6.68581373,20.0360541 C6.61465951,20.0156133 6.53289843,19.9919093 6.44771215,19.9667894 L6.18905945,19.8890287 C5.97692202,19.8237665 5.78826268,19.7611988 5.73529521,19.7301863 L5.72069547,19.7155963 L4.65966401,20.3760452 L4.56926039,19.0720509 L3.62870081,18.1991712 L4.76495864,17.724377 L5.25810511,16.5546612 Z M29.8344741,8.68511663 L30.6815731,9.65959249 L31.1832834,9.22346234 L31.9213498,10.0725106 L31.4196395,10.5086408 L34.7828739,14.3775994 L35.3328256,13.8995337 L36.070892,14.7485819 L31.4493679,18.7660116 L30.7113015,17.9169633 L31.3384394,17.3718006 L27.975205,13.502842 L27.4541981,13.9557464 L26.7161317,13.1066981 L27.2371386,12.6537937 L26.3732654,11.6600213 L27.2609068,10.8884064 L28.12478,11.8821788 L29.7939317,10.4312074 L28.9468327,9.45673151 L29.8344741,8.68511663 Z M34.3955245,5.14373319 L40.9877995,12.727278 C41.524575,13.3447677 41.4745697,13.9302874 40.8474318,14.4754501 L40.8474318,14.4754501 L39.8440111,15.3477104 L38.8131539,14.6684858 C39.1772661,14.3858461 39.5124334,14.1283678 39.81153,13.8683671 C40.0237921,13.6838505 40.0125034,13.4565163 39.7860512,13.1960129 L39.7860512,13.1960129 L38.2595957,11.4400267 L36.6193888,12.8658368 C37.5830254,14.2471806 38.1112903,15.6343274 38.2125705,17.0369255 L38.2125705,17.0369255 L37.0280993,16.9994081 L36.8136323,17.8634049 C36.1530695,17.5906691 35.3721237,17.3548242 34.4720562,17.1378349 L34.4720562,17.1378349 L34.7821857,16.0721063 C35.6138952,16.2299448 36.3264829,16.4066388 36.8935262,16.591279 C36.6957633,15.2725521 36.0697545,13.9873119 34.9890774,12.7246489 L34.9890774,12.7246489 L30.9800348,8.11277305 L34.3955245,5.14373319 Z M33.2410373,14.3966488 L31.5718856,15.8476202 L32.2260808,16.6001857 L33.8952325,15.1492143 L33.2410373,14.3966488 Z M31.8907113,12.8432763 L30.2215595,14.2942478 L30.8757548,15.0468133 L32.5449065,13.5958419 L31.8907113,12.8432763 Z M30.5319981,11.2802557 L28.8628464,12.7312271 L29.5254287,13.4934409 L31.1945804,12.0424694 L30.5319981,11.2802557 Z M36.2383002,9.11479219 L34.655983,10.4902796 L35.9475992,11.9761141 L37.5299164,10.6006267 L36.2383002,9.11479219 Z M9.33763115,7.83525405 L9.78793713,9.03770791 L10.9297035,9.54228907 L9.96839156,10.3976838 L9.84549445,11.6890273 L8.77597677,10.9634908 L7.56549184,11.2510999 L7.86888441,9.99255962 L7.2464844,8.89653617 L8.49912232,8.8134732 L9.33763115,7.83525405 Z M34.2337789,6.80885425 L32.6514617,8.18434165 L33.9346908,9.66052786 L35.517008,8.28504046 L34.2337789,6.80885425 Z M16.8467861,2.28268272 L16.7811875,3.56316497 L17.6224541,4.48614475 L16.4118434,4.85417483 L15.8223326,5.99429178 L15.1273995,4.95585982 L13.8880342,4.74615517 L14.65945,3.72025393 L14.5288553,2.45775095 L15.7025535,2.8632891 L16.8467861,2.28268272 Z M23.1026677,0.312435962 L23.9115924,1.25151579 L25.1897391,1.33831656 L24.492266,2.38803894 L24.7463787,3.60847211 L23.4990222,3.3424767 L22.4221506,3.9720261 L22.3397382,2.72432255 L21.376363,1.92482516 L22.569188,1.4419611 L23.1026677,0.312435962 Z" id="形状结合" fill="#C2C3C6" fill-rule="nonzero" mask="url(#mask-2)"></path>
            </g>
        </g>
    </g>
</svg>