<?xml version="1.0" encoding="UTF-8"?>
<svg width="45px" height="45px" viewBox="0 0 45 45" version="1.1" xmlns="http://www.w3.org/2000/svg" xmlns:xlink="http://www.w3.org/1999/xlink">
    <title>已退款</title>
    <defs>
        <rect id="path-1" x="0" y="0" width="45" height="45"></rect>
    </defs>
    <g id="抵用券" stroke="none" stroke-width="1" fill="none" fill-rule="evenodd">
        <g id="券状态" transform="translate(-30.000000, -45.000000)">
            <g id="已退款" transform="translate(30.000000, 45.000000)">
                <mask id="mask-2" fill="white">
                    <use xlink:href="#path-1"></use>
                </mask>
                <g id="矩形"></g>
                <path d="M32.127253,-2.89618335 C33.6857673,-2.38717407 35.1591049,-1.73716826 36.5376695,-0.964927042 L34.5895813,-0.551102236 C33.7044261,-0.970535608 32.7861667,-1.33702436 31.838335,-1.64611759 C19.6349929,-5.62943799 6.52661502,1.03977136 2.54450012,13.2444489 C-1.43761472,25.4491265 5.23148804,38.5595628 17.4348302,42.5428833 C29.6381723,46.5262037 42.7411782,39.8317217 46.728665,27.6523168 C47.6861397,24.701687 48.0484992,21.5605782 47.782911,18.4472857 C47.572749,16.0113144 46.9861113,13.6701549 46.0750805,11.4894422 L46.9770937,10.5075574 C49.3510605,15.8489158 49.8383949,22.048086 47.8936262,28.0386457 C45.0846757,36.6921417 37.9370298,42.7018929 29.6234723,44.4689941 C25.4287898,45.3606013 21.0536548,45.1547397 16.9636561,43.8052743 C4.08401944,39.6223156 -2.9844061,25.7514926 1.1972829,12.8704452 C4.00623339,4.21694919 11.1538793,-1.79280196 19.4674367,-3.55990314 C23.6726945,-4.45023066 28.037993,-4.22136991 32.127253,-2.89618335 Z M31.4896978,-0.932470349 C32.0989855,-0.735337157 32.6940784,-0.514647809 33.274292,-0.271737121 L32.573943,-0.122602526 C26.8341821,-2.36325513 20.2794899,-2.13010141 14.597844,0.755429468 C3.75309154,6.28435967 -0.586952822,19.5471746 4.94180448,30.3952152 C10.4705618,41.2432558 23.6945542,45.5406394 34.5753301,40.0569015 C44.7504741,34.8956337 49.1780928,22.915285 45.1506516,12.4934242 L45.4589471,12.1593349 C47.3276306,16.865767 47.6218175,22.2286327 45.9169308,27.4198316 C43.3468964,35.3385858 36.7794985,40.8567867 29.1715596,42.473904 C25.31826,43.2953819 21.3159115,43.0792306 17.5732203,41.8475109 C5.76884929,38.0146922 -0.684585901,25.3020755 3.14598731,13.4952089 C5.71602176,5.57645481 12.2834214,0.058261867 19.8913602,-1.55885545 C23.7446581,-2.38034134 27.7470066,-2.16419005 31.4896978,-0.932470349 Z M25.4864043,37.7004408 L25.4612647,38.9406926 L26.3763318,39.8058116 L25.1578721,40.1992329 L24.5517171,41.3046675 L23.8153256,40.3079963 L22.5612617,40.1475437 L23.3326775,39.1216425 L23.1603564,37.8996392 C23.1603564,37.8996392 24.2083501,38.2143918 24.3117579,38.2660333 L24.3179465,38.273017 L25.4864043,37.7004408 Z M33.510492,34.4831929 L34.2054251,35.5216249 L35.419298,35.7235687 L34.6478821,36.7494699 L34.7787448,38.0132339 L33.6047786,37.6064348 L32.4699303,38.1626415 L32.527412,36.9062895 L31.684878,35.9835791 L32.8954887,35.615549 L33.510492,34.4831929 Z M14.472214,22.7168891 L17.9948037,26.769165 L12.0128726,31.9691783 L14.3193301,34.6224542 C14.6380406,34.9890886 14.9807131,35.0130506 15.3473476,34.6943401 L15.3473476,34.6943401 L20.1618373,30.5091681 C20.3355062,30.3582 20.4492042,30.1577293 20.4836347,29.9245304 C20.5122003,29.6456123 20.105456,28.9828446 19.2826982,27.9194529 L19.2826982,27.9194529 L20.4316014,27.4288992 C21.372599,28.7452274 21.8376122,29.6114291 21.8279021,30.0094689 C21.7808601,30.4230218 21.5727607,30.8071889 21.1939556,31.1703573 L21.1939556,31.1703573 L15.8681073,35.8000466 C15.0480039,36.5129516 14.2737431,36.4406865 13.5356767,35.5916382 L13.5356767,35.5916382 L9.17437517,30.5745347 L10.1006097,29.7693714 L11.2496449,31.0911852 L16.2956931,26.7047223 L14.299559,24.4084327 L7.93169692,29.9439307 L7.16846915,29.0659376 L14.472214,22.7168891 Z M38.8630027,18.2737927 C39.3075855,20.5743663 39.1846899,22.9498089 38.5047023,25.1993625 C36.2135023,32.6058444 28.3814124,36.8295893 20.8882984,34.783711 L20.5673897,34.6921829 L20.9428418,34.3806164 C23.7193057,35.1312745 26.6867177,35.0517841 29.3976653,34.1089256 C35.7938356,31.8744153 39.6440959,25.4584626 38.5677243,18.9102374 L38.5117869,18.5933016 L38.8630027,18.2737927 Z M38.8704223,28.5097064 L39.9059203,29.1686694 L41.1164052,28.8810603 L40.814548,30.1405922 L41.43668,31.2353546 L40.1830427,31.319948 L39.3700264,32.3059279 L38.9194523,31.1022131 L37.8019111,30.6056621 L38.755106,29.7743977 L38.8704223,28.5097064 Z M31.6751319,20.7210219 L32.2319624,21.8292507 L29.9742658,23.7918364 C29.453259,24.2447407 28.8756236,24.7299324 28.2497468,25.2570597 C27.62387,25.784187 27.0621887,26.1708146 26.5827382,26.4182037 C26.0961617,26.6379092 25.5668295,26.6915126 24.9922192,26.6150847 C24.7145623,26.5684837 24.5316861,26.5919429 24.425555,26.6842012 C24.2229413,26.8603307 24.2530236,27.5964394 24.5158022,28.8925272 L24.5158022,28.8925272 L23.2952602,28.8524876 C23.0983174,27.6516213 23.1047468,26.7821389 23.3229355,26.2536887 L23.3229355,26.2536887 L20.949381,23.5232266 L19.656512,24.6471004 L18.9184456,23.7980522 L21.0700112,21.9277248 L24.248729,25.5844213 C24.3208706,25.589466 24.4026604,25.5861235 24.5012245,25.6020776 C24.949587,25.6696773 25.348888,25.661352 25.6894792,25.5854887 C26.0963471,25.468951 26.5963553,25.1867523 27.1727296,24.719596 C27.7214201,24.2595657 28.3665935,23.7156641 29.119159,23.0614689 C29.6015728,22.642113 30.0755994,22.2131088 30.5689227,21.7673304 C31.0525976,21.3299391 31.4217544,20.9751578 31.6751319,20.7210219 L31.6751319,20.7210219 Z M24.3780918,13.8856327 L27.6322937,17.6291638 L23.7729834,20.9840111 L25.7607304,23.2706525 C26.2377204,22.6696815 26.689549,22.0397656 27.106568,21.3892921 L27.106568,21.3892921 L28.0220868,22.033266 C27.4263542,22.9068493 26.6376561,23.9481749 25.6283088,25.1643689 L25.6283088,25.1643689 L24.7643739,24.5602492 C24.909539,24.2985463 24.9066375,24.0808605 24.7724436,23.926488 L24.7724436,23.926488 L19.6311401,18.0120949 L24.3780918,13.8856327 Z M29.0552792,5.88906771 L29.3808379,5.99994565 L29.0398628,6.29647165 C27.6846698,5.8596607 26.2974192,5.60231369 24.9048707,5.53192214 C16.5453146,5.11443314 9.40310583,11.545831 8.98264754,19.899994 C8.91027211,21.1548258 9.01305578,22.4015836 9.25037955,23.6461246 L9.3456032,24.112735 L9.0046281,24.409261 C8.27735348,21.4416552 8.4357717,18.3255639 9.46047994,15.4426411 C12.3102226,7.47683848 21.0154428,3.24712928 29.0552792,5.88906771 Z M43.7730027,20.3533991 L43.8634063,21.6573934 L44.8036979,22.5290122 L43.6768243,22.9794067 L43.1839459,24.1503835 L42.3736117,23.129891 L41.143773,22.9774687 L41.7915286,21.9119553 L41.4968146,20.6500705 L42.7200882,20.9897177 L43.7730027,20.3533991 Z M16.9791872,19.9108643 C18.0604907,19.8686732 19.0465725,19.8923178 19.9265234,20.0082207 L19.9265234,20.0082207 L19.8311164,21.2430146 C19.0354777,21.0876984 18.0519181,21.027983 16.8707894,21.0722555 L16.8707894,21.0722555 Z M28.4832379,18.1598808 C28.4898611,18.7131132 28.4629358,19.2277525 28.4108492,19.713447 C29.1398319,19.6556809 29.8469957,19.6507599 30.5239536,19.6890356 L30.5239536,19.6890356 L30.5514519,20.8508678 C28.9475629,20.7205893 27.1720864,20.8411043 25.2057256,21.2291869 L25.2057256,21.2291869 L25.1719216,20.1575316 C25.9168583,20.0012015 26.6315891,19.8880681 27.3257622,19.8097443 C27.3828935,19.2519083 27.4110799,18.7192336 27.391025,18.2284944 L27.391025,18.2284944 Z M5.25810511,16.5546612 L6.04267876,17.5661319 L7.29574332,17.7281148 L6.63987074,18.8177584 L6.9280031,20.104765 C6.9280031,20.104765 6.90303286,20.0978077 6.86027407,20.0857402 L6.68581373,20.0360541 C6.61465951,20.0156133 6.53289843,19.9919093 6.44771215,19.9667894 L6.18905945,19.8890287 C5.97692202,19.8237665 5.78826268,19.7611988 5.73529521,19.7301863 L5.72069547,19.7155963 L4.65966401,20.3760452 L4.56926039,19.0720509 L3.62870081,18.1991712 L4.76495864,17.724377 L5.25810511,16.5546612 Z M25.4350007,16.913683 L22.47298,19.4885283 L23.0684654,20.1735559 L26.0304861,17.5987106 L25.4350007,16.913683 Z M34.6354337,13.1167622 L35.3315645,13.9175691 L33.5176886,15.4943473 L35.4718872,17.7423956 C35.9751143,18.3212921 35.9083347,18.8875153 35.290845,19.4242909 L35.290845,19.4242909 L34.4996864,20.1120346 L33.595077,19.4416381 C33.8601841,19.2789404 34.108517,19.0969461 34.3304273,18.9040423 C34.5619859,18.7027515 34.5951552,18.4875879 34.4190257,18.2849741 L34.4190257,18.2849741 L32.6493438,16.2491879 L30.7582817,17.8930631 L30.0621509,17.0922562 L34.6354337,13.1167622 Z M32.5657282,17.1857673 C32.9992742,18.1132011 33.2633758,19.0016009 33.3471233,19.8773891 L33.3471233,19.8773891 L32.2846754,20.038702 C32.2441246,19.1931198 32.0458589,18.3999417 31.7066524,17.6784641 L31.7066524,17.6784641 Z M24.1853201,15.4760899 L21.2232994,18.0509352 L21.8187848,18.7359628 L24.7808055,16.1611175 L24.1853201,15.4760899 Z M35.0932423,9.16158702 C35.6467921,9.79837323 36.1294615,10.4120794 36.5412504,11.0027056 C38.22132,12.1169845 39.9404854,12.6721663 41.6794502,12.685025 L41.6794502,12.685025 L41.6754814,13.9080894 C40.2687206,13.8097191 38.8917867,13.4143954 37.5627149,12.7233794 C38.228137,14.0929318 38.3591822,15.5882291 37.9545894,17.2273069 L37.9545894,17.2273069 L36.8162782,17.0480287 C37.1600181,15.6312405 37.0775934,14.3477642 36.5522301,13.1783033 C36.0935227,12.2219246 35.3370417,11.1178585 34.2634905,9.88287919 L34.2634905,9.88287919 Z M34.8440443,14.7987193 C35.4433749,15.0399879 36.0485704,15.3269757 36.6583695,15.6777179 L36.6583695,15.6777179 L36.221172,16.6167578 C35.5514019,16.216513 34.9126579,15.8909322 34.3217144,15.6593117 L34.3217144,15.6593117 Z M32.8424863,12.3208145 L33.53023,13.1119731 L30.17263,16.0306903 L29.4848863,15.2395317 L32.8424863,12.3208145 Z M30.9228418,9.06026183 L31.6105855,9.85142045 L29.9124889,11.3275533 L30.482813,11.983636 L31.9589992,10.7004069 L32.6299686,11.472269 L28.654879,14.9277617 L27.9839095,14.1558997 L29.6144681,12.7384767 L29.0441441,12.0823939 L27.0758958,13.793366 L26.3881521,13.0022074 L28.3564004,11.2912353 L27.6434953,10.4711318 L28.5118402,9.71629119 L29.2247452,10.5363946 L30.9228418,9.06026183 Z M35.4430941,6.23190703 L35.9211599,6.78185876 C36.5002502,7.70134647 37.0407475,8.65438265 37.5522999,9.63258019 L37.5522999,9.63258019 L36.4935736,10.1294397 C36.1891769,9.42851985 35.7899995,8.65753975 35.2683578,7.82362536 L35.2683578,7.82362536 L33.4641302,9.39201648 C33.9299636,10.3760788 34.2037134,11.2560915 34.2757313,12.0404415 L34.2757313,12.0404415 L33.1449253,12.1426037 C32.9496847,10.787806 32.2595423,9.25341274 31.0732369,7.55745931 L31.0732369,7.55745931 L32.0300566,6.96285588 C32.3747486,7.47629583 32.6858921,7.95114268 32.9441907,8.40417066 L32.9441907,8.40417066 L35.4430941,6.23190703 Z M9.33763115,7.83525405 L9.78793713,9.03770791 L10.9297035,9.54228907 L9.96839156,10.3976838 L9.84549445,11.6890273 L8.77597677,10.9634908 L7.56549184,11.2510999 L7.86888441,9.99255962 L7.2464844,8.89653617 L8.49912232,8.8134732 L9.33763115,7.83525405 Z M16.8467861,2.28268272 L16.7811875,3.56316497 L17.6224541,4.48614475 L16.4118434,4.85417483 L15.8223326,5.99429178 L15.1273995,4.95585982 L13.8880342,4.74615517 L14.65945,3.72025393 L14.5288553,2.45775095 L15.7025535,2.8632891 L16.8467861,2.28268272 Z M23.1026677,0.312435962 L23.9115924,1.25151579 L25.1897391,1.33831656 L24.492266,2.38803894 L24.7463787,3.60847211 L23.4990222,3.3424767 L22.4221506,3.9720261 L22.3397382,2.72432255 L21.376363,1.92482516 L22.569188,1.4419611 L23.1026677,0.312435962 Z" id="形状结合" fill="#C2C3C6" fill-rule="nonzero" mask="url(#mask-2)"></path>
            </g>
        </g>
    </g>
</svg>