<?xml version="1.0" encoding="UTF-8"?>
<svg width="45px" height="45px" viewBox="0 0 45 45" version="1.1" xmlns="http://www.w3.org/2000/svg" xmlns:xlink="http://www.w3.org/1999/xlink">
    <title>已使用</title>
    <defs>
        <rect id="path-1" x="0" y="0" width="45" height="45"></rect>
    </defs>
    <g id="抵用券" stroke="none" stroke-width="1" fill="none" fill-rule="evenodd">
        <g id="券状态" transform="translate(-95.000000, -45.000000)">
            <g id="已使用" transform="translate(95.000000, 45.000000)">
                <mask id="mask-2" fill="white">
                    <use xlink:href="#path-1"></use>
                </mask>
                <g id="矩形"></g>
                <path d="M32.127253,-2.89618335 C34.2970884,-2.18751719 36.3018216,-1.20555054 38.1155556,-0.000913267683 L35.6766692,-0.000560853996 C34.4631982,-0.655728297 33.1804113,-1.20845899 31.838335,-1.64611759 C19.6349929,-5.62943799 6.52661502,1.03977136 2.54450012,13.2444489 C-1.43761472,25.4491265 5.23148804,38.5595628 17.4348302,42.5428833 C29.6381723,46.5262037 42.7411782,39.8317217 46.728665,27.6523168 C47.6861397,24.701687 48.0484992,21.5605782 47.782911,18.4472857 C47.499084,15.1574687 46.5286058,12.0405783 44.9997663,9.25828588 L44.9998577,6.90072689 C48.9881155,12.9262347 50.2950343,20.6414786 47.8936262,28.0386457 C45.0846757,36.6921417 37.9370298,42.7018929 29.6234723,44.4689941 C25.4287898,45.3606013 21.0536548,45.1547397 16.9636561,43.8052743 C4.08401944,39.6223156 -2.9844061,25.7514926 1.1972829,12.8704452 C4.00623339,4.21694919 11.1538793,-1.79280196 19.4674367,-3.55990314 C23.6726945,-4.45023066 28.037993,-4.22136991 32.127253,-2.89618335 Z M31.4896978,-0.932470349 C32.31849,-0.664317149 33.1210172,-0.352577562 33.8955569,-0.000611214334 L32.8794358,-0.000693562504 C27.0676322,-2.37071011 20.3805481,-2.18142574 14.597844,0.755429468 C3.75309154,6.28435967 -0.586952822,19.5471746 4.94180448,30.3952152 C10.4705618,41.2432558 23.6945542,45.5406394 34.5753301,40.0569015 C44.8741715,34.832889 49.284895,22.6229913 45.0000154,12.1140401 L45.0005536,11.0865689 C47.2706269,16.0407109 47.7528015,21.8298003 45.9169308,27.4198316 C43.3468964,35.3385858 36.7794985,40.8567867 29.1715596,42.473904 C25.31826,43.2953819 21.3159115,43.0792306 17.5732203,41.8475109 C5.76884929,38.0146922 -0.684585901,25.3020755 3.14598731,13.4952089 C5.71602176,5.57645481 12.2834214,0.058261867 19.8913602,-1.55885545 C23.7446581,-2.38034134 27.7470066,-2.16419005 31.4896978,-0.932470349 Z M25.4864043,37.7004408 L25.4612647,38.9406926 L26.3763318,39.8058116 L25.1578721,40.1992329 L24.5517171,41.3046675 L23.8153256,40.3079963 L22.5612617,40.1475437 L23.3326775,39.1216425 L23.1603564,37.8996392 C23.1603564,37.8996392 24.2083501,38.2143918 24.3117579,38.2660333 L24.3179465,38.273017 L25.4864043,37.7004408 Z M33.510492,34.4831929 L34.2054251,35.5216249 L35.419298,35.7235687 L34.6478821,36.7494699 L34.7787448,38.0132339 L33.6047786,37.6064348 L32.4699303,38.1626415 L32.527412,36.9062895 L31.684878,35.9835791 L32.8954887,35.615549 L33.510492,34.4831929 Z M14.472214,22.7168891 L17.9948037,26.769165 L12.0128726,31.9691783 L14.3193301,34.6224542 C14.6114814,34.9585358 14.9237675,35.0066773 15.2561882,34.7668787 L15.3473476,34.6943401 L20.1618373,30.5091681 C20.3355062,30.3582 20.4492042,30.1577293 20.4836347,29.9245304 C20.4976943,29.7872504 20.4063008,29.5569834 20.2117548,29.2317293 L20.1220692,29.0865134 L19.9315658,28.7995242 L19.8777488,28.7219929 L19.8777488,28.7219929 L19.8214625,28.6421418 L19.5716941,28.2994783 L19.2826982,27.9194529 L20.4316014,27.4288992 L20.5133954,27.5438772 L20.5133954,27.5438772 L20.5927191,27.6565161 L20.8853144,28.0836264 L20.9522894,28.1845288 L20.9522894,28.1845288 L21.0167952,28.2830756 L21.2501307,28.6536522 C21.6417085,29.2983461 21.8341851,29.7519137 21.8279021,30.0094689 C21.7867403,30.3713277 21.622269,30.710688 21.3280245,31.0331685 L21.1939556,31.1703573 L15.8681073,35.8000466 C15.0911672,36.4754303 14.3553712,36.4461183 13.6525157,35.719242 L13.5356767,35.5916382 L9.17437517,30.5745347 L10.1006097,29.7693714 L11.2496449,31.0911852 L16.2956931,26.7047223 L14.299559,24.4084327 L7.93169692,29.9439307 L7.16846915,29.0659376 L14.472214,22.7168891 Z M38.8630027,18.2737927 C39.3075855,20.5743663 39.1846899,22.9498089 38.5047023,25.1993625 C36.2135023,32.6058444 28.3814124,36.8295893 20.8882984,34.783711 L20.5673897,34.6921829 L20.9428418,34.3806164 C23.7193057,35.1312745 26.6867177,35.0517841 29.3976653,34.1089256 C35.7938356,31.8744153 39.6440959,25.4584626 38.5677243,18.9102374 L38.5117869,18.5933016 L38.8630027,18.2737927 Z M38.8704223,28.5097064 L39.9059203,29.1686694 L41.1164052,28.8810603 L40.814548,30.1405922 L41.43668,31.2353546 L40.1830427,31.319948 L39.3700264,32.3059279 L38.9194523,31.1022131 L37.8019111,30.6056621 L38.755106,29.7743977 L38.8704223,28.5097064 Z M19.1004849,18.4733864 C19.4387036,19.2521863 19.7067233,20.0449561 19.9142515,20.8628628 L20.031587,21.3567126 L25.6761176,27.8500022 L24.7498832,28.6551656 L20.3382589,23.5801725 C20.354698,23.9498349 20.3625608,24.3269525 20.362221,24.7061815 L20.3556062,25.2759405 L19.2010235,24.551817 C19.1757546,22.7599977 18.8009573,20.997786 18.0700348,19.2575933 L17.8798811,18.8229995 L19.1004849,18.4733864 Z M25.6049396,13.8354954 L26.3681674,14.7134885 L23.7727812,16.9696233 L24.4353635,17.7318371 L26.6641152,15.7944128 L29.1550894,18.6599508 L26.8877445,20.6309235 C27.498302,21.4891791 27.8987406,22.2421238 28.0710248,22.8884965 C29.2866641,22.5863167 30.4534696,22.0186041 31.5777425,21.1926076 L31.9137547,20.9370675 L32.4550721,22.0079643 C31.0674225,23.0617779 29.6425028,23.7414519 28.1622775,24.045725 C28.0756754,24.9231939 27.6093264,25.8678701 26.7699458,26.8874785 L26.5696238,27.1241064 L25.4527523,26.6382265 C26.2925933,25.7726512 26.7750689,24.9636426 26.898918,24.2292361 C26.1701454,24.2839962 25.4408034,24.2569087 24.7101619,24.1584107 L24.2716152,24.0908261 L24.5565834,22.9961527 C25.3174125,23.1309112 26.0761602,23.1658444 26.8244395,23.0913041 C26.6835782,22.6620226 26.4589052,22.1935923 26.132987,21.6905005 L25.96151,21.4360869 L23.8581859,23.2644787 L21.3672118,20.3989407 L23.5187773,18.5286134 L22.856195,17.7663996 L20.4344777,19.8715663 L19.6712499,18.9935732 L22.0929672,16.8884065 L21.3045781,15.9814685 L22.2211643,15.1846923 L23.0095534,16.0916302 L25.6049396,13.8354954 Z M29.0552792,5.88906771 L29.3808379,5.99994565 L29.0398628,6.29647165 C27.6846698,5.8596607 26.2974192,5.60231369 24.9048707,5.53192214 C16.5453146,5.11443314 9.40310583,11.545831 8.98264754,19.899994 C8.91027211,21.1548258 9.01305578,22.4015836 9.25037955,23.6461246 L9.3456032,24.112735 L9.0046281,24.409261 C8.27735348,21.4416552 8.4357717,18.3255639 9.46047994,15.4426411 C12.3102226,7.47683848 21.0154428,3.24712928 29.0552792,5.88906771 Z M43.7730027,20.3533991 L43.8634063,21.6573934 L44.8036979,22.5290122 L43.6768243,22.9794067 L43.1839459,24.1503835 L42.3736117,23.129891 L41.143773,22.9774687 L41.7915286,21.9119553 L41.4968146,20.6500705 L42.7200882,20.9897177 L43.7730027,20.3533991 Z M24.2232952,19.3390685 L22.9304263,20.4629424 L24.0039774,21.6979217 L25.2968464,20.5740479 L24.2232952,19.3390685 Z M34.1710918,5.3727077 L40.4865919,12.6378594 C41.0786238,13.3189142 41.0624509,13.9734933 40.4471686,14.579568 L40.3247845,14.6926332 L39.2152328,15.6571518 L38.1940239,14.9695401 C38.595468,14.6713873 38.9595802,14.3887476 39.2876216,14.1035856 C39.5706377,13.8575635 39.5910951,13.5551093 39.3405908,13.2165753 L39.2655471,13.1233685 L38.0158665,11.6857754 L35.6230941,13.7657808 L38.0134228,16.5155394 L37.0871883,17.3207027 L34.6968596,14.5709441 L32.4295148,16.5419169 C33.2981279,17.7569891 33.8039944,18.9698594 33.9471143,20.1805279 L33.975337,20.4831491 L32.7258502,20.4682708 C32.5936257,19.2305048 32.0538148,18.0111184 31.1064176,16.8101117 L30.8805522,16.5332826 L26.7708642,11.8056274 L34.1710918,5.3727077 Z M5.25810511,16.5546612 L6.04267876,17.5661319 L7.29574332,17.7281148 L6.63987074,18.8177584 L6.9280031,20.104765 C6.9280031,20.104765 6.90303286,20.0978077 6.86027407,20.0857402 L6.68581373,20.0360541 C6.61465951,20.0156133 6.53289843,19.9919093 6.44771215,19.9667894 L6.18905945,19.8890287 C5.97692202,19.8237665 5.78826268,19.7611988 5.73529521,19.7301863 L5.72069547,19.7155963 L4.65966401,20.3760452 L4.56926039,19.0720509 L3.62870081,18.1991712 L4.76495864,17.724377 L5.25810511,16.5546612 Z M26.5099366,17.3513215 L25.1398814,18.5422923 L26.2134326,19.7772716 L27.5834878,18.5863008 L26.5099366,17.3513215 Z M32.6755641,12.2457096 L30.4564606,14.1747468 L31.7396897,15.650933 L33.9587932,13.7218958 L32.6755641,12.2457096 Z M30.6878171,9.95906823 L28.4687136,11.8881054 L29.7267814,13.3353468 L31.9458848,11.4063096 L30.6878171,9.95906823 Z M35.994571,9.36054093 L33.6017986,11.4405463 L34.8850277,12.9167325 L37.2778001,10.8367271 L35.994571,9.36054093 Z M9.33763115,7.83525405 L9.78793713,9.03770791 L10.9297035,9.54228907 L9.96839156,10.3976838 L9.84549445,11.6890273 L8.77597677,10.9634908 L7.56549184,11.2510999 L7.86888441,9.99255962 L7.2464844,8.89653617 L8.49912232,8.8134732 L9.33763115,7.83525405 Z M34.006824,7.07389955 L31.6140515,9.15390488 L32.8721193,10.6011463 L35.2648917,8.52114093 L34.006824,7.07389955 Z M16.8467861,2.28268272 L16.7811875,3.56316497 L17.6224541,4.48614475 L16.4118434,4.85417483 L15.8223326,5.99429178 L15.1273995,4.95585982 L13.8880342,4.74615517 L14.65945,3.72025393 L14.5288553,2.45775095 L15.7025535,2.8632891 L16.8467861,2.28268272 Z M23.1026677,0.312435962 L23.9115924,1.25151579 L25.1897391,1.33831656 L24.492266,2.38803894 L24.7463787,3.60847211 L23.4990222,3.3424767 L22.4221506,3.9720261 L22.3397382,2.72432255 L21.376363,1.92482516 L22.569188,1.4419611 L23.1026677,0.312435962 Z" id="形状结合" fill="#C2C3C6" fill-rule="nonzero" mask="url(#mask-2)"></path>
            </g>
        </g>
    </g>
</svg>