<?xml version="1.0" encoding="UTF-8"?>
<svg width="141px" height="121px" viewBox="0 0 141 121" version="1.1" xmlns="http://www.w3.org/2000/svg" xmlns:xlink="http://www.w3.org/1999/xlink">
    <title>编组 15</title>
    <defs>
        <path d="M104.520317,97.62 L80.4803171,88.44 L54.1013171,99 L25.4573171,88.37 L3.53631705,96.74 C1.56331705,97.47 -0.482682948,95.65 0.101317052,93.61 L13.7663171,46.47 C14.2043171,44.94 15.3003171,43.63 16.7623171,42.97 L38.6833171,32.7 L54.1013171,43.77 L69.1543171,34.23 L93.4103171,44.86 C95.0203171,45.59 96.1903171,46.98 96.5603171,48.65 L107.960317,94.63 C108.470317,96.6 106.490317,98.35 104.520317,97.62 Z" id="path-1"></path>
        <filter x="-12.0%" y="-16.6%" width="124.1%" height="139.2%" filterUnits="objectBoundingBox" id="filter-2">
            <feOffset dx="0" dy="2" in="SourceAlpha" result="shadowOffsetOuter1"></feOffset>
            <feGaussianBlur stdDeviation="4" in="shadowOffsetOuter1" result="shadowBlurOuter1"></feGaussianBlur>
            <feColorMatrix values="0 0 0 0 0.811764706   0 0 0 0 0.811764706   0 0 0 0 0.811764706  0 0 0 0.595470935 0" type="matrix" in="shadowBlurOuter1"></feColorMatrix>
        </filter>
        <linearGradient x1="50%" y1="0%" x2="50%" y2="597.094448%" id="linearGradient-3">
            <stop stop-color="#EAEAEA" offset="0%"></stop>
            <stop stop-color="#D2D2D2" offset="100%"></stop>
        </linearGradient>
        <linearGradient x1="50%" y1="0%" x2="50%" y2="175.87131%" id="linearGradient-4">
            <stop stop-color="#EAEAEA" offset="0%"></stop>
            <stop stop-color="#D2D2D2" offset="100%"></stop>
        </linearGradient>
    </defs>
    <g id="图标" stroke="none" stroke-width="1" fill="none" fill-rule="evenodd">
        <g id="缺省备份-2" transform="translate(-60.000000, -516.000000)">
            <g id="编组-15" transform="translate(60.000000, 516.000000)">
                <g id="编组-2" transform="translate(16.000000, 11.000000)">
                    <g id="Path备份-5" fill-rule="nonzero">
                        <use fill="black" fill-opacity="1" filter="url(#filter-2)" xlink:href="#path-1"></use>
                        <use fill="#F4F5F5" xlink:href="#path-1"></use>
                    </g>
                    <path d="M38.6833171,32.77 L25.4573171,88.37 L3.53631705,96.74 C1.56331705,97.47 -0.482682948,95.65 0.101317052,93.61 L13.7663171,46.47 C14.2043171,44.94 15.3003171,43.63 16.7623171,42.97 L38.6833171,32.77 Z" id="Path备份-6" fill="url(#linearGradient-3)" fill-rule="nonzero"></path>
                    <polygon id="Path备份-7" fill="url(#linearGradient-4)" fill-rule="nonzero" points="80.5503171 88.44 54.1013171 99 54.1013171 43.77 69.1543171 34.23"></polygon>
                    <path d="M54.1013171,0 C67.4743171,0 78.2883171,10.79 78.2883171,24.12 C78.2883171,34.76 62.9433171,55.82 56.6593171,63.98 C55.3443171,65.73 52.7133171,65.73 51.3983171,63.98 C45.1143171,55.82 29.7693171,34.76 29.7693171,24.12 C29.9153171,10.79 40.7293171,0 54.1013171,0 Z" id="Path备份-8" fill="#CD4444" fill-rule="nonzero"></path>
                    <path d="M54.1011361,37.045 C61.3018694,37.045 67.1392712,31.2293897 67.1392712,24.0518098 C67.1392712,16.87423 61.3018694,11.045 54.1011361,11.045 C46.9017647,11.045 41.0643629,16.87423 41.0643629,24.0518098 C41.0643629,31.2293897 46.9017647,37.045 54.1011361,37.045 Z" id="Path备份-9" stroke="#FFB6B0" fill="#F4F5F5" fill-rule="nonzero"></path>
                    <path d="M58.4896074,26.4699647 L58.4896074,19.3674912 L55.9330254,19.3674912 L55.9330254,20.4487632 C55.8498845,20.2579505 54.7898383,19.1342756 53.147806,19.1342756 C50.5704388,19.1342756 48.9076212,21.4028268 48.9076212,24.1166078 C48.9076212,27.0636042 51.1108545,29.0141343 53.4387991,29.0141343 C54.6027714,29.0141343 55.7251732,28.5053004 56.5357968,27.3392226 L56.5773672,27.5936396 C56.8475751,28.7385159 57.7621247,29.2261484 59.0092379,29.2261484 C61.3163972,29.2261484 63,27.1908127 63,24.0318021 C63,18.8162544 59.1963048,15 54.1247113,15 C49.0323326,15 45,19.0070671 45,24.1590106 C45,29.2261484 48.8244804,33 53.8752887,33 C55.4757506,33 57.5334873,32.385159 58.73903,31.4310954 L57.7829099,29.7349823 C56.6189376,30.6254417 55.0600462,31.0282685 53.8752887,31.0282685 C50.0092379,31.0282685 47.0577367,28.1024735 47.0577367,24.1590106 C47.0577367,20.1731449 50.2170901,16.9293286 54.1247113,16.9293286 C58.4272517,16.9293286 60.9630485,20.0671378 60.9630485,24.0954064 C60.9630485,26.1095406 60.1108545,27.5088339 59.2586605,27.5088339 C58.8013857,27.5088339 58.4896074,27.2332155 58.4896074,26.4699647 Z M53.2879121,21.4285714 C54.534066,21.4285714 55.2857143,22.5428571 55.2857143,23.9357143 C55.2857143,25.3714286 54.5538461,26.5714286 53.3274725,26.5714286 C52.1604396,26.5714286 51.4285714,25.3285714 51.4285714,23.9142857 C51.4285714,22.5642857 52.1802198,21.4285714 53.2879121,21.4285714 Z" id="形状" fill="#CD4444" fill-rule="nonzero" transform="translate(54.000000, 24.000000) rotate(-330.000000) translate(-54.000000, -24.000000) "></path>
                    <path d="M20.0808069,63.2848471 L27.2520634,73.5225316 C28.6922894,75.5785978 31.4337812,76.2480308 33.6595405,75.0871456 L52.0286542,65.5064004 C53.3421947,64.8212995 54.8919175,64.7539707 56.259926,65.3225698 L76.2319115,73.6237272 C77.5408676,74.1677818 79.0192362,74.1306677 80.2992438,73.5216177 L93.5291552,67.2265952 L93.5291552,67.2265952" id="路径-5" stroke="#FFB6B0" stroke-linecap="round" stroke-linejoin="round" stroke-dasharray="2,3"></path>
                    <circle id="椭圆形" stroke="#FFB6B0" cx="18.7963171" cy="61" r="2.5"></circle>
                    <circle id="椭圆形备份" stroke="#FFB6B0" cx="95.7963171" cy="66" r="2.5"></circle>
                </g>
                <rect id="矩形备份-9" x="0" y="0.5" width="141" height="120"></rect>
            </g>
        </g>
    </g>
</svg>