<?xml version="1.0" encoding="UTF-8"?>
<svg width="14px" height="14px" viewBox="0 0 14 14" version="1.1" xmlns="http://www.w3.org/2000/svg" xmlns:xlink="http://www.w3.org/1999/xlink">
    <title>形状结合</title>
    <g id="-----F-我的-地址管理" stroke="none" stroke-width="1" fill="none" fill-rule="evenodd">
        <g id="地址管理备份" transform="translate(-333.000000, -139.000000)" fill="#351B0B" fill-rule="nonzero">
            <g id="编组" transform="translate(16.000000, 100.000000)">
                <g id="编组-8" transform="translate(317.000000, 39.000000)">
                    <path d="M8.2125,0.223378084 C8.48864237,0.223378084 8.7125,0.443663931 8.7125,0.715400295 C8.7125,0.987136659 8.48864237,1.20742251 8.2125,1.20742251 L8.2125,1.20742251 L1.5,1.20742251 C1.22385763,1.20742251 1,1.42770835 1,1.69944472 L1,1.69944472 L1,12.5239334 C1,12.7956697 1.22385763,13.0159556 1.5,13.0159556 L1.5,13.0159556 L12.5,13.0159556 C12.7761424,13.0159556 13,12.7956697 13,12.5239334 L13,12.5239334 L13,5.35369368 C13,5.08195732 13.2238576,4.86167147 13.5,4.86167147 C13.7761424,4.86167147 14,5.08195732 14,5.35369368 L14,5.35369368 L14,12.5239334 C14,13.3391425 13.3284271,14 12.5,14 L12.5,14 L1.5,14 C0.671572875,14 0,13.3391425 0,12.5239334 L0,12.5239334 L0,1.69944472 C0,0.884235626 0.671572875,0.223378084 1.5,0.223378084 L1.5,0.223378084 Z M11.73,0 L13.8515,2.08765024 L5.623,10.1843678 L3.3105,10.7743024 C3.08444394,10.8319927 2.84490983,10.7553684 2.69653682,10.5779024 C2.54816381,10.4004364 2.51791328,10.1543767 2.619,9.94721305 L2.619,9.94721305 L3.538,8.06129191 L11.73,0 Z M11.73,1.39193084 L4.366,8.63843396 L3.893,9.60870176 L5.109,9.29872777 L12.437,2.08765024 L11.73,1.39193084 Z" id="形状结合"></path>
                </g>
            </g>
        </g>
    </g>
</svg>