<?xml version="1.0" encoding="UTF-8"?>
<svg width="255px" height="70px" viewBox="0 0 255 70" version="1.1" xmlns="http://www.w3.org/2000/svg" xmlns:xlink="http://www.w3.org/1999/xlink">
    <title>编组 3</title>
    <defs>
        <rect id="path-1" x="0" y="0" width="255" height="70" rx="3"></rect>
    </defs>
    <g id="页面-1" stroke="none" stroke-width="1" fill="none" fill-rule="evenodd">
        <g id="兑换优惠券-领取了" transform="translate(-60.000000, -303.000000)">
            <g id="编组-31备份-6" transform="translate(36.000000, 239.000000)">
                <g id="编组-3" transform="translate(24.000000, 64.000000)">
                    <mask id="mask-2" fill="white">
                        <use xlink:href="#path-1"></use>
                    </mask>
                    <use id="矩形" fill="#F5F5F5" xlink:href="#path-1"></use>
                    <g id="抖音" opacity="0.049999997" mask="url(#mask-2)" fill-rule="nonzero">
                        <g transform="translate(211.500000, 46.500000) rotate(-345.000000) translate(-211.500000, -46.500000) translate(171.000000, 6.000000)">
                            <rect id="矩形" fill="#000000" opacity="0" x="0" y="0" width="81" height="81"></rect>
                            <path d="M74.1498047,33.5311523 C67.5052734,33.5311523 61.0426758,31.3716797 55.7270508,27.3770508 L55.7270508,55.2445313 C55.7270508,69.4749023 44.7635742,81 31.237207,81 C17.7108398,81 6.74736328,69.4749023 6.74736328,55.2445313 C6.74736328,41.0141602 17.7108398,29.4890625 31.237207,29.4890625 C32.5898438,29.4890625 33.9029297,29.6077148 35.184375,29.8291992 L35.184375,44.5895508 C33.9583008,44.1070312 32.653125,43.8618164 31.3400391,43.8618164 C25.3045898,43.8618164 20.4082031,49.003418 20.4082031,55.3552734 C20.4082031,61.6992188 25.3045898,66.8487305 31.3400391,66.8487305 C37.3675781,66.8487305 42.2639648,61.6992187 42.2639648,55.3552734 L42.2639648,0 L55.9248047,0 C55.9248047,10.6391602 64.1276367,19.2612305 74.2447266,19.2612305 L74.2447266,33.5232422 L74.1498047,33.5311523" id="路径" fill="#140B18"></path>
                        </g>
                    </g>
                </g>
            </g>
        </g>
    </g>
</svg>