<?xml version="1.0" encoding="UTF-8"?>
<svg width="11px" height="12px" viewBox="0 0 11 12" version="1.1" xmlns="http://www.w3.org/2000/svg" xmlns:xlink="http://www.w3.org/1999/xlink">
    <title>矩形</title>
    <g id="代金券" stroke="none" stroke-width="1" fill="none" fill-rule="evenodd">
        <g id="代金券列表" transform="translate(-76.000000, -199.000000)" fill-rule="nonzero">
            <g id="编组-12" transform="translate(16.000000, 152.000000)">
                <g id="编组-15" transform="translate(15.000000, 10.000000)">
                    <g id="编组-3" transform="translate(8.000000, 36.000000)">
                        <g id="下箭头" transform="translate(37.000000, 1.500000)">
                            <rect id="矩形" fill="#000000" opacity="0" x="0" y="0" width="11" height="11"></rect>
                            <path d="M2.35355339,4.35355339 L5.14644661,7.14644661 C5.34170876,7.34170876 5.65829124,7.34170876 5.85355339,7.14644661 L8.64644661,4.35355339 C8.84170876,4.15829124 8.84170876,3.84170876 8.64644661,3.64644661 C8.55267842,3.55267842 8.42550146,3.5 8.29289322,3.5 L2.70710678,3.5 C2.43096441,3.5 2.20710678,3.72385763 2.20710678,4 C2.20710678,4.13260824 2.2597852,4.2597852 2.35355339,4.35355339 Z" id="路径" fill="#3A3B3C" transform="translate(5.500000, 5.500000) scale(1, -1) translate(-5.500000, -5.500000) "></path>
                        </g>
                    </g>
                </g>
            </g>
        </g>
    </g>
</svg>