<?xml version="1.0" encoding="UTF-8"?>
<svg width="16px" height="16px" viewBox="0 0 16 16" version="1.1" xmlns="http://www.w3.org/2000/svg" xmlns:xlink="http://www.w3.org/1999/xlink">
    <title>编组 6</title>
    <g id="页面-1" stroke="none" stroke-width="1" fill="none" fill-rule="evenodd">
        <g id="兑换优惠券-领取了" transform="translate(-60.000000, -404.000000)">
            <g id="编组-31备份-6" transform="translate(36.000000, 239.000000)">
                <g id="编组-6" transform="translate(24.000000, 165.000000)">
                    <rect id="矩形" x="0" y="0" width="16" height="16"></rect>
                    <g id="编组-4" transform="translate(0.000000, 1.690592)">
                        <g id="优惠券-卡券-多张卡券备份-2" opacity="0.63936942" transform="translate(9.454523, 4.127676) rotate(-345.000000) translate(-9.454523, -4.127676) translate(4.363613, 1.218496)">
                            <g id="编组-12" transform="translate(-0.000000, 0.000000)">
                                <path
                                    d="M5.98076464,0.500690319 C6.21366092,0.739210967 6.53991424,0.887878788 6.90151347,0.887878788 C7.2631324,0.887878788 7.58940157,0.739194769 7.82230036,0.500651338 L9.68181818,0.500138038 L9.68181818,5.31821583 L7.82309145,5.31834225 C7.59014058,5.07932469 7.26354285,4.93030303 6.90151347,4.93030303 C6.53947924,4.93030303 6.2128776,5.07932869 5.97992612,5.31835187 L0.5,5.31819604 L0.5,0.500057715 Z" id="形状结合" stroke="#CD4444" fill="#FFFFFF"></path>
                                <g id="¥" transform="translate(2.153846, 1.551515)" fill="#CD4444" fill-rule="nonzero">
                                    <polygon id="路径" points="0 0 0.792702108 1.33475936 0.256103758 1.33475936 0.256103758 1.57052882 0.934981973 1.57052882 0.939047112 1.57433155 0.939047112 1.90136661 0.256103758 1.90136661 0.256103758 2.13713607 0.939047112 2.13713607 0.939047112 2.71515152 1.41060324 2.71515152 1.41060324 2.13713607 2.09761173 2.13713607 2.09761173 1.90136661 1.41060324 1.90136661 1.41060324 1.57433155 1.41466838 1.57052882 2.09761173 1.57052882 2.09761173 1.33475936 1.55694824 1.33475936 2.34965035 0 1.813052 0 1.17482517 1.1674391 0.53659835 0"></polygon>
                                </g>
                                <path d="M6.61224661,1.52764624 L6.61224661,2.09634757 L7.10787598,2.09634757 L7.10787598,1.52764624 L6.61224661,1.52764624 Z M6.61224661,2.6650489 L6.61224661,3.23375023 L7.10787598,3.23375023 L7.10787598,2.6650489 L6.61224661,2.6650489 Z M6.61224661,3.80245156 L6.61224661,4.37115288 L7.10787598,4.37115288 L7.10787598,3.80245156 L6.61224661,3.80245156 Z" id="路径-2" fill="#CD4444" fill-rule="nonzero"></path>
                            </g>
                        </g>
                        <g id="优惠券-卡券-多张卡券备份-2" transform="translate(8.363636, 5.582136) rotate(-356.000000) translate(-8.363636, -5.582136) translate(1.675734, 1.085429)">
                            <g id="编组-12" transform="translate(-0.000000, 0.000000)">
                                <path d="M1.23870131,0.971710548 L8.27875968,1.46501088 L12.5746536,1.76443857 L12.1370995,8.02175383 L9.48409552,7.83613176 L0.801143435,7.22907965 L1.23870131,0.971710548 Z" id="形状结合" stroke="#E97B71" fill="#FEFDFD" transform="translate(6.687902, 4.496706) rotate(356.000000) translate(-6.687902, -4.496706) "></path>
                                <g id="¥" transform="translate(3.121469, 2.799737)" fill="#CD4444" fill-rule="nonzero">
                                    <polygon id="路径" points="-1.00981556e-14 -5.66038332e-14 0.962566845 1.6684492 0.310983135 1.6684492 0.310983135 1.96316102 1.13533525 1.96316102 1.14027149 1.96791444 1.14027149 2.37670826 0.310983135 2.37670826 0.310983135 2.67142008 1.14027149 2.67142008 1.14027149 3.39393939 1.71287536 3.39393939 1.71287536 2.67142008 2.54709996 2.67142008 2.54709996 2.37670826 1.71287536 2.37670826 1.71287536 1.96791444 1.7178116 1.96316102 2.54709996 1.96316102 2.54709996 1.6684492 1.89058001 1.6684492 2.85314685 -5.66038332e-14 2.20156314 -5.66038332e-14 1.42657343 1.45929887 0.65158371 -5.66038332e-14"></polygon>
                                </g>
                                <path d="M8.5352406,2.76990061 L8.5352406,3.48077727 L9.13707627,3.48077727 L9.13707627,2.76990061 L8.5352406,2.76990061 Z M8.5352406,4.19165393 L8.5352406,4.90253059 L9.13707627,4.90253059 L9.13707627,4.19165393 L8.5352406,4.19165393 Z M8.5352406,5.61340725 L8.5352406,6.32428391 L9.13707627,6.32428391 L9.13707627,5.61340725 L8.5352406,5.61340725 Z" id="路径-2" fill="#CD4444" fill-rule="nonzero"></path>
                            </g>
                        </g>
                        <g id="编组-12" transform="translate(0.000000, 3.400318)">
                            <path d="M9.08041125,0.500588344 C9.38722446,0.856021192 9.84295688,1.08180679 10.3522702,1.08180679 C10.8615945,1.08180679 11.3173356,0.856011472 11.624149,0.500565392 L14.7727273,0.500077486 L14.7727273,8.22714274 L11.6248937,8.22740032 C11.3180731,7.87145649 10.8620073,7.64529504 10.3522702,7.64529504 C9.84252729,7.64529504 9.38645697,7.87146163 9.07963627,8.22741245 L0.5,8.22711893 L0.5,0.500032397 Z" id="形状结合" stroke="#CD4444" fill="#FFFFFF"></path>
                            <g id="¥" transform="translate(3.230769, 2.327227)" fill="#CD4444" fill-rule="nonzero">
                                <polygon id="路径" points="0 0 1.18905316 2.00209983 0.384155637 2.00209983 0.384155637 2.35574709 1.40247296 2.35574709 1.40857067 2.36145108 1.40857067 2.85199406 0.384155637 2.85199406 0.384155637 3.20564133 1.40857067 3.20564133 1.40857067 4.07264752 2.11590486 4.07264752 2.11590486 3.20564133 3.1464176 3.20564133 3.1464176 2.85199406 2.11590486 2.85199406 2.11590486 2.36145108 2.12200256 2.35574709 3.1464176 2.35574709 3.1464176 2.00209983 2.33542236 2.00209983 3.52447552 0 2.719578 0 1.76223776 1.75112435 0.804897525 0"></polygon>
                            </g>
                            <path d="M9.91836992,2.29142449 L9.91836992,3.14445978 L10.661814,3.14445978 L10.661814,2.29142449 L9.91836992,2.29142449 Z M9.91836992,3.99749507 L9.91836992,4.85053036 L10.661814,4.85053036 L10.661814,3.99749507 L9.91836992,3.99749507 Z M9.91836992,5.70356564 L9.91836992,6.55660093 L10.661814,6.55660093 L10.661814,5.70356564 L9.91836992,5.70356564 Z" id="路径-2" fill="#CD4444" fill-rule="nonzero"></path>
                        </g>
                    </g>
                </g>
            </g>
        </g>
    </g>
</svg>