<?xml version="1.0" encoding="UTF-8"?>
<svg width="338px" height="338px" viewBox="0 0 338 338" version="1.1" xmlns="http://www.w3.org/2000/svg" xmlns:xlink="http://www.w3.org/1999/xlink">
    <title>Wifi</title>
    <defs>
        <rect id="path-1" x="0" y="0" width="320" height="320"></rect>
        <mask id="mask-2" maskContentUnits="userSpaceOnUse" maskUnits="objectBoundingBox" x="0" y="0" width="320" height="320" fill="white">
            <use xlink:href="#path-1"></use>
        </mask>
        <linearGradient x1="64.0223567%" y1="100%" x2="64.0223567%" y2="0%" id="linearGradient-3">
            <stop stop-color="#000000" stop-opacity="0" offset="0%"></stop>
            <stop stop-color="#FFFFFF" stop-opacity="0.20856097" offset="100%"></stop>
        </linearGradient>
        <linearGradient x1="64.0223567%" y1="100%" x2="64.0223567%" y2="0%" id="linearGradient-4">
            <stop stop-color="#6F6F6F" stop-opacity="0" offset="0%"></stop>
            <stop stop-color="#FFFFFF" stop-opacity="0.433102054" offset="100%"></stop>
        </linearGradient>
        <linearGradient x1="64.0223567%" y1="100%" x2="64.0223567%" y2="0%" id="linearGradient-5">
            <stop stop-color="#6F6F6F" stop-opacity="0" offset="0%"></stop>
            <stop stop-color="#FFFFFF" stop-opacity="0.433102054" offset="100%"></stop>
        </linearGradient>
        <linearGradient x1="64.0223567%" y1="100%" x2="64.0223567%" y2="0%" id="linearGradient-6">
            <stop stop-color="#000000" stop-opacity="0" offset="0%"></stop>
            <stop stop-color="#FFFFFF" stop-opacity="0.20856097" offset="100%"></stop>
        </linearGradient>
        <radialGradient cx="50%" cy="0%" fx="50%" fy="0%" r="100%" gradientTransform="translate(0.500000,0.000000),scale(0.131250,1.000000),rotate(90.000000),scale(1.000000,4.177872),translate(-0.500000,-0.000000)" id="radialGradient-7">
            <stop stop-color="#000000" offset="0%"></stop>
            <stop stop-color="#000000" stop-opacity="0" offset="100%"></stop>
        </radialGradient>
        <linearGradient x1="50%" y1="-15.8169067%" x2="50%" y2="117.613451%" id="linearGradient-8">
            <stop stop-color="#FFFFFF" offset="0%"></stop>
            <stop stop-color="#FFFFFF" stop-opacity="0.4" offset="100%"></stop>
        </linearGradient>
        <linearGradient x1="50%" y1="0%" x2="50%" y2="100%" id="linearGradient-9">
            <stop stop-color="#F6F6F6" offset="0%"></stop>
            <stop stop-color="#ACACAC" offset="100%"></stop>
        </linearGradient>
    </defs>
    <g id="秒变大厨" stroke="none" stroke-width="1" fill="none" fill-rule="evenodd">
        <g id="秒变大厨-加载失败" transform="translate(-206.000000, -490.000000)">
            <g id="Wifi" transform="translate(206.000000, 490.000000)">
                <g transform="translate(9.000000, 18.000000)">
                    <g id="分组-5-copy">
                        <use id="矩形" stroke="#DCDEE0" mask="url(#mask-2)" stroke-width="4" opacity="0" stroke-dasharray="10" fill-rule="nonzero" xlink:href="#path-1"></use>
                        <g id="编组-7" transform="translate(4.000000, 14.000000)">
                            <path d="M0,248 L0,92 L40,92 L40,132 L68,132 L68,248 L0,248 Z" id="合并形状" fill="url(#linearGradient-3)" transform="translate(34.000000, 170.000000) scale(-1, 1) translate(-34.000000, -170.000000) "></path>
                            <path d="M81,10 C88.6551593,10 95.1285336,15.0598231 97.2581778,22.0175241 C97.5043343,22.0056649 97.7515056,22 98,22 C106.836556,22 114,29.163444 114,38 C114,46.836556 106.836556,54 98,54 C97.3227507,54 96.6553292,53.9579222 96.0002073,53.8762383 L96,54 L68,54 L68.0008554,53.6519342 C67.0375561,53.8795513 66.0328442,54 65,54 C57.8202983,54 52,48.1797017 52,41 C52,34.1460598 57.3041166,28.5309623 64.0315279,28.0355295 C64.0104428,27.6931058 64,27.3477724 64,27 C64,17.6111593 71.6111593,10 81,10 Z" id="合并形状" fill="url(#linearGradient-4)"></path>
                            <path d="M192.032258,0 C195.736546,0 198.868947,2.41514823 199.899267,5.7361164 L200.012304,5.73104727 L200.012304,5.73104727 L200.258065,5.72727273 C204.533817,5.72727273 208,9.14618918 208,13.3636364 C208,17.5810835 204.533817,21 200.258065,21 C199.930531,21 199.607748,20.979938 199.290909,20.9409917 L199.290323,21 L185.741935,21 L185.742068,20.8339434 C185.276041,20.9425363 184.789985,21 184.290323,21 C180.816273,21 178,18.2221304 178,14.7954545 C178,11.52443 180.566235,8.84460831 183.821187,8.60790416 C183.811524,8.44507389 183.806452,8.27993942 183.806452,8.11363636 C183.806452,3.63259873 187.489271,0 192.032258,0 Z" id="合并形状-copy" fill="url(#linearGradient-5)"></path>
                            <path d="M242,16 L286.462891,16 L286.462891,44 L304,44 L304,198.738281 L242,198.738281 L242,16 Z" id="合并形状" fill="url(#linearGradient-6)"></path>
                        </g>
                    </g>
                    <rect id="Rectangle" fill="url(#radialGradient-7)" opacity="0.150413336" x="0" y="278" width="320" height="42"></rect>
                    <g id="分组-19" transform="translate(53.360000, 104.565664)" fill-rule="nonzero">
                        <g id="编组-5">
                            <path d="M136.465462,3.00100185 C138.122316,0.131246111 141.791858,-0.852004821 144.661614,0.804849429 C147.53137,2.46170368 148.514621,6.13124611 146.857766,9.00100185 L146.857766,9.00100185 L140.625,19.794 L180.64,19.7943356 C198.486308,19.7943356 212.98739,34.1169542 213.275627,51.8945735 L213.28,52.4343356 L213.28,139.434336 C213.28,157.46091 198.666574,172.074336 180.64,172.074336 L180.64,172.074336 L32.64,172.074336 C14.6134258,172.074336 0,157.46091 0,139.434336 L0,139.434336 L0,52.4343356 C0,34.4077614 14.6134258,19.7943356 32.64,19.7943356 L32.64,19.7943356 L72.697,19.794 L66.4654616,9.00100185 C64.8086073,6.13124611 65.7918582,2.46170368 68.661614,0.804849429 C71.5313697,-0.852004821 75.2009122,0.131246111 76.8577664,3.00100185 L85.8577664,18.5894591 C86.0824616,18.9786426 86.2586011,19.3825354 86.3880645,19.7941227 L126.935163,19.7941227 C127.064627,19.3825354 127.240766,18.9786426 127.465462,18.5894591 L127.465462,18.5894591 Z M180.64,28.4343356 L32.64,28.4343356 C19.385166,28.4343356 8.64,39.1795016 8.64,52.4343356 L8.64,52.4343356 L8.64,139.434336 C8.64,152.68917 19.385166,163.434336 32.64,163.434336 L32.64,163.434336 L180.64,163.434336 C193.894834,163.434336 204.64,152.68917 204.64,139.434336 L204.64,139.434336 L204.64,52.4343356 C204.64,39.1795016 193.894834,28.4343356 180.64,28.4343356 L180.64,28.4343356 Z" id="形状结合" fill="url(#linearGradient-8)"></path>
                            <path d="M180.64,46.8048494 C188.371986,46.8048494 194.64,53.0728629 194.64,60.8048494 L194.64,139.804849 C194.64,147.536836 188.371986,153.804849 180.64,153.804849 L32.64,153.804849 C24.9080135,153.804849 18.64,147.536836 18.64,139.804849 L18.64,60.8048494 C18.64,53.0728629 24.9080135,46.8048494 32.64,46.8048494 L180.64,46.8048494 Z M106.865349,104.804849 C98.2899325,104.804849 89.714516,108.173955 83.3831337,114.511082 C81.0589554,116.83737 81.0589554,119.644958 83.3831337,121.971245 C83.9441423,123.09428 85.707312,123.655798 86.8293291,123.655798 C87.9513462,123.655798 89.714516,123.09428 89.714516,121.971245 C94.2827285,117.398887 99.9729581,115.0726 106.30434,115.0726 C112.555579,115.0726 118.886961,117.960405 122.894165,121.971245 C125.218343,124.297532 128.023386,124.297532 130.347564,121.971245 C132.671742,119.644958 132.671742,116.83737 130.347564,114.511082 C124.016182,108.254172 116.001774,104.804849 106.865349,104.804849 Z" id="形状结合" fill="url(#linearGradient-9)"></path>
                        </g>
                    </g>
                </g>
            </g>
        </g>
    </g>
</svg>