<?xml version="1.0" encoding="UTF-8"?>
<svg width="24px" height="25px" viewBox="0 0 24 25" version="1.1" xmlns="http://www.w3.org/2000/svg" xmlns:xlink="http://www.w3.org/1999/xlink">
    <title>矩形</title>
    <g id="商品详情" stroke="none" stroke-width="1" fill="none" fill-rule="evenodd">
        <g transform="translate(-305.000000, -1454.000000)" id="编组-14">
            <g transform="translate(20.000000, 1155.000000)">
                <g id="编组-28备份" transform="translate(14.000000, 100.000000)">
                    <g id="编组-9" transform="translate(0.000000, 38.000000)">
                        <g id="编组-4" transform="translate(271.000000, 161.500000)">
                            <rect id="矩形" x="0" y="0" width="24" height="24"></rect>
                            <path d="M18,2.25 C20.0710678,2.25 21.75,3.92893219 21.75,6 L21.75,6 L21.75,18 C21.75,20.0710678 20.0710678,21.75 18,21.75 L18,21.75 L6,21.75 C3.92893219,21.75 2.25,20.0710678 2.25,18 L2.25,18 L2.25,6 C2.25,3.92893219 3.92893219,2.25 6,2.25 L6,2.25 Z M18,3.75 L6,3.75 C4.75735931,3.75 3.75,4.75735931 3.75,6 L3.75,6 L3.75,18 C3.75,19.2426407 4.75735931,20.25 6,20.25 L6,20.25 L18,20.25 C19.2426407,20.25 20.25,19.2426407 20.25,18 L20.25,18 L20.25,6 C20.25,4.75735931 19.2426407,3.75 18,3.75 L18,3.75 Z M13.2196699,13.2196699 C13.5125631,12.9267767 13.9874369,12.9267767 14.2803301,13.2196699 L14.2803301,13.2196699 L17.5,16.438 L17.5,14.25 L17.5068466,14.1482294 C17.556509,13.7821539 17.8703042,13.5 18.25,13.5 C18.6642136,13.5 19,13.8357864 19,14.25 L19,14.25 L19,18.25 L18.9931534,18.3517706 C18.943491,18.7178461 18.6296958,19 18.25,19 L18.25,19 L14.25,19 L14.1482294,18.9931534 C13.7821539,18.943491 13.5,18.6296958 13.5,18.25 L13.5,18.25 L13.5068466,18.1482294 C13.556509,17.7821539 13.8703042,17.5 14.25,17.5 L14.25,17.5 L16.44,17.5 L13.2196699,14.2803301 L13.1470518,14.1962117 C12.9291973,13.9026002 12.9534034,13.4859365 13.2196699,13.2196699 Z M9.75,5 L9.85177056,5.00684662 C10.2178461,5.05650904 10.5,5.37030423 10.5,5.75 L10.5,5.75 L10.4931534,5.85177056 C10.443491,6.21784612 10.1296958,6.5 9.75,6.5 L9.75,6.5 L7.56,6.5 L10.7803301,9.71966991 L10.8529482,9.80378835 C11.0708027,10.0973998 11.0465966,10.5140635 10.7803301,10.7803301 C10.4874369,11.0732233 10.0125631,11.0732233 9.71966991,10.7803301 L9.71966991,10.7803301 L6.5,7.562 L6.5,9.75 L6.49315338,9.85177056 C6.44349096,10.2178461 6.12969577,10.5 5.75,10.5 C5.33578644,10.5 5,10.1642136 5,9.75 L5,9.75 L5,5.75 L5.00684662,5.64822944 C5.05650904,5.28215388 5.37030423,5 5.75,5 L5.75,5 L9.75,5 Z" id="形状结合" fill="#FFFFFF" fill-rule="nonzero"></path>
                        </g>
                    </g>
                </g>
            </g>
        </g>
    </g>
</svg>