<?xml version="1.0" encoding="UTF-8"?>
<svg width="28px" height="28px" viewBox="0 0 28 28" version="1.1" xmlns="http://www.w3.org/2000/svg" xmlns:xlink="http://www.w3.org/1999/xlink">
    <title>静音</title>
    <g id="商品详情" stroke="none" stroke-width="1" fill="none" fill-rule="evenodd">
        <g id="商品详情-全屏展示" transform="translate(-24.000000, -735.000000)" fill="#FFFFFF" fill-rule="nonzero">
            <g id="编组" transform="translate(24.000000, 735.000000)">
                <g id="编组-20" transform="translate(3.000000, 3.500000)">
                    <path d="M12.9230812,0 C13.5178022,0 14,0.494889225 14,1.10526317 C14,1.15597579 13.9965612,1.20564697 13.9902472,1.25421884 L13.9902472,1.25421884 L13.9902472,19.7457812 C13.9965612,19.7943531 14,19.8440242 14,19.8947658 C14,20.5051108 13.5178022,21 12.9230812,21 C12.6564589,21 12.4122171,20.9007155 12.2242369,20.7355596 L12.2242369,20.7355596 L4.31269227,15.4779947 L4.31269227,15.4736553 L2.33333333,15.4736553 C1.04466892,15.4736553 -7.8357899e-15,14.4289864 0,13.140322 L0,13.140322 L0,7.85964914 C3.00402504e-14,6.57098472 1.04466892,5.52631581 2.33333333,5.52631581 L2.33333333,5.52631581 L4.34003382,5.52686546 L12.2707458,0.225588713 C12.4519046,0.0841835247 12.6780502,0 12.9230812,0 Z M19.0811778,2.75215549 C20.9905334,4.66151101 22.0833333,7.24518034 22.0833333,10 C22.0833333,12.7548197 20.9905334,15.338489 19.0811778,17.2478445 C18.7882846,17.5407377 18.3134109,17.5407377 18.0205177,17.2478445 C17.7276244,16.9549513 17.7276244,16.4800776 18.0205177,16.1871843 C19.6513573,14.5563447 20.5833333,12.3529058 20.5833333,10 C20.5833333,7.64709417 19.6513573,5.44365526 18.0205177,3.81281566 C17.7276244,3.51992245 17.7276244,3.04504871 18.0205177,2.75215549 C18.3134109,2.45926227 18.7882846,2.45926227 19.0811778,2.75215549 Z M16.9197454,6.09171618 C17.413553,6.89684477 17.7467098,7.79469228 17.8974993,8.74674012 C18.0482889,9.69878796 18.0088881,10.6556428 17.7880476,11.5739605 C17.5653524,12.4999909 17.1612632,13.372755 16.6021321,14.1423331 C16.3586634,14.4774389 15.8896362,14.5517255 15.5545304,14.3082569 C15.2194246,14.0647883 15.1451379,13.595761 15.3886066,13.2606552 C15.8324993,12.6496893 16.1531187,11.9572056 16.3296269,11.223234 C16.5045642,10.4957951 16.5357751,9.73783172 16.4159668,8.98139182 C16.2961585,8.22495191 16.0322516,7.51373065 15.6410854,6.87595365 C15.4245242,6.52286142 15.5352044,6.06106608 15.8882967,5.84450488 C16.2413889,5.62794368 16.7031842,5.73862395 16.9197454,6.09171618 Z" id="形状结合"></path>
                </g>
            </g>
        </g>
    </g>
</svg>