<?xml version="1.0" encoding="UTF-8"?>
<svg width="28px" height="28px" viewBox="0 0 28 28" version="1.1" xmlns="http://www.w3.org/2000/svg" xmlns:xlink="http://www.w3.org/1999/xlink">
    <title>缩放</title>
    <g id="商品详情" stroke="none" stroke-width="1" fill="none" fill-rule="evenodd">
        <g id="商品详情-全屏展示-小屏手机" transform="translate(-323.000000, -590.000000)">
            <g id="编组-4" transform="translate(323.000000, 590.000000)">
                <rect id="矩形" x="0" y="0" width="28" height="28"></rect>
                <path d="M21,2.625 C23.4162458,2.625 25.375,4.58375422 25.375,7 L25.375,7 L25.375,21 C25.375,23.4162458 23.4162458,25.375 21,25.375 L21,25.375 L7,25.375 C4.58375422,25.375 2.625,23.4162458 2.625,21 L2.625,21 L2.625,7 C2.625,4.58375422 4.58375422,2.625 7,2.625 L7,2.625 Z M21,4.375 L7,4.375 C5.55025253,4.375 4.375,5.55025253 4.375,7 L4.375,7 L4.375,21 C4.375,22.4497475 5.55025253,23.625 7,23.625 L7,23.625 L21,23.625 C22.4497475,23.625 23.625,22.4497475 23.625,21 L23.625,21 L23.625,7 C23.625,5.55025253 22.4497475,4.375 21,4.375 L21,4.375 Z M20.5416667,15 L20.660399,15.0079877 C21.0874871,15.0659272 21.4166667,15.4320216 21.4166667,15.875 L21.4166667,15.875 L21.4086789,15.9937323 C21.3507395,16.4208205 20.9846451,16.75 20.5416667,16.75 L20.5416667,16.75 L17.987,16.75 L21.7437184,20.5062816 L21.8284396,20.6044197 C22.0826031,20.9469665 22.0543628,21.4330741 21.7437184,21.7437184 C21.4020097,22.0854272 20.8479903,22.0854272 20.5062816,21.7437184 L20.5062816,21.7437184 L16.749,17.988 L16.75,20.5416667 L16.7420123,20.660399 C16.6840728,21.0874871 16.3179784,21.4166667 15.875,21.4166667 C15.3917508,21.4166667 15,21.0249158 15,20.5416667 L15,20.5416667 L15,15.875 L15.0079877,15.7562677 C15.0659272,15.3291795 15.4320216,15 15.875,15 L15.875,15 L20.5416667,15 Z M6.25628157,6.25628157 C6.59799032,5.91457281 7.15200968,5.91457281 7.49371843,6.25628157 L7.49371843,6.25628157 L11.251,10.012 L11.25,7.45833333 L11.2579877,7.33960102 C11.3159272,6.91251286 11.6820216,6.58333333 12.125,6.58333333 C12.6082492,6.58333333 13,6.97508418 13,7.45833333 L13,7.45833333 L13,12.125 L12.9920123,12.2437323 C12.9340728,12.6708205 12.5679784,13 12.125,13 L12.125,13 L7.45833333,13 L7.33960102,12.9920123 C6.91251286,12.9340728 6.58333333,12.5679784 6.58333333,12.125 L6.58333333,12.125 L6.59132105,12.0062677 C6.64926055,11.5791795 7.01535494,11.25 7.45833333,11.25 L7.45833333,11.25 L10.013,11.25 L6.25628157,7.49371843 L6.17156039,7.39558026 C5.91739685,7.05303352 5.94563724,6.56692589 6.25628157,6.25628157 Z" id="形状结合" fill="#FFFFFF" fill-rule="nonzero"></path>
            </g>
        </g>
    </g>
</svg>