<?xml version="1.0" encoding="UTF-8"?>
<svg width="24px" height="25px" viewBox="0 0 24 25" version="1.1" xmlns="http://www.w3.org/2000/svg" xmlns:xlink="http://www.w3.org/1999/xlink">
    <title>矩形</title>
    <g id="商品详情" stroke="none" stroke-width="1" fill="none" fill-rule="evenodd">
        <g transform="translate(-46.000000, -1454.000000)" fill="#FFFFFF" fill-rule="nonzero" id="编组-14">
            <g transform="translate(20.000000, 1155.000000)">
                <g id="编组-28备份" transform="translate(14.000000, 100.000000)">
                    <g id="编组-9" transform="translate(0.000000, 38.000000)">
                        <g id="编组" transform="translate(12.000000, 161.500000)">
                            <g id="编组-20" transform="translate(4.000000, 3.000000)">
                                <path d="M11.991,7.187 L11.9916405,16.9249553 C11.9970524,16.9665883 12,17.0091636 12,17.0526564 C12,17.5758093 11.5866876,18 11.0769268,18 C10.8483933,18 10.6390432,17.914899 10.4779174,17.7733368 L10.4779174,17.7733368 L4.737,13.958 L11.991,7.187 Z M11.0769268,0 C11.5866876,0 12,0.424190765 12,0.947368429 C12,0.990836393 11.9970524,1.03341169 11.9916405,1.07504472 L11.9916405,1.07504472 L11.991,3.631 L1.69737722,13.2403867 C0.784573533,13.1018395 0.0743855613,12.346285 0.00548573643,11.4123955 L0,11.2631331 L0,6.73684212 C2.51778142e-14,5.63227262 0.8954305,4.73684212 2,4.73684212 L2,4.73684212 L3.70628171,4.73690101 L3.70628171,4.73690101 L3.72002899,4.73731325 L10.5177821,0.193361754 C10.6730611,0.0721573069 10.8669002,0 11.0769268,0 Z" id="形状结合"></path>
                                <path d="M14.7857784,2.51182328 C15.0885914,2.2291978 15.5631831,2.24556303 15.8458086,2.54837604 C16.1027408,2.82366059 16.1125733,3.24091097 15.8847297,3.5268403 L15.8092558,3.60840618 L1.31816216,17.2310553 C1.01534915,17.5136807 0.540757492,17.4973155 0.258132019,17.1945025 C0.00119977092,16.919218 -0.00863272305,16.5019676 0.219210852,16.2160382 L0.294684783,16.1344724 L14.7857784,2.51182328 Z" id="直线-2"></path>
                            </g>
                        </g>
                    </g>
                </g>
            </g>
        </g>
    </g>
</svg>