<?xml version="1.0" encoding="UTF-8"?>
<svg width="16px" height="16px" viewBox="0 0 16 16" version="1.1" xmlns="http://www.w3.org/2000/svg" xmlns:xlink="http://www.w3.org/1999/xlink">
    <title>矩形</title>
    <g id="选择城市" stroke="none" stroke-width="1" fill="none" fill-rule="evenodd">
        <g transform="translate(-287.000000, -132.000000)" fill-rule="nonzero" id="定位城市">
            <g transform="translate(0.000000, 88.000000)">
                <g id="刷新" transform="translate(287.000000, 44.000000)">
                    <rect id="矩形" fill="#000000" opacity="0" x="0" y="0" width="16" height="16"></rect>
                    <path d="M8,13.18 C6.3000673,13.1760425 4.71635037,12.3165252 3.78666667,10.8933333 L2.45333333,10.8933333 C3.49778726,13.0013279 5.6474432,14.3345279 8,14.3333341 C11.2415851,14.3054117 13.924378,11.8049446 14.18,8.57333333 L15.3333333,8.57333333 L13.64,6.27333333 L11.9466667,8.57333333 L13.0466667,8.57333333 C12.7879383,11.1724703 10.6118966,13.1587911 8,13.18 Z M8,1.66666667 C4.98138073,1.69053702 2.41269993,3.87181023 1.9,6.84666667 L0.666666672,6.84666667 L2.36,9.15333333 L4.05333333,6.84666667 L3.04666667,6.84666667 C3.56281896,4.52128288 5.61806798,2.86159323 8,2.84666667 C9.47364884,2.84909366 10.8722114,3.497208 11.8266667,4.62 L12.0466667,4.56666667 L13.1933333,4.56666667 C12.0754469,2.77193609 10.114385,1.67686304 8,1.66666667 Z" id="形状" fill="#9A9B9B"></path>
                </g>
            </g>
        </g>
    </g>
</svg>