<?xml version="1.0" encoding="UTF-8"?>
<svg width="20px" height="20px" viewBox="0 0 20 20" version="1.1" xmlns="http://www.w3.org/2000/svg" xmlns:xlink="http://www.w3.org/1999/xlink">
    <title>删除</title>
    <g id="自提门店列表&amp;收货地址" stroke="none" stroke-width="1" fill="none" fill-rule="evenodd">
        <g id="搜索-填写" transform="translate(-323.000000, -55.000000)" fill="#CFCFCF" fill-rule="nonzero">
            <g id="删除" transform="translate(323.000000, 55.000000)">
                <path d="M10,2 C14.4130233,2 18,5.58697674 18,10 C18,14.4130233 14.4130233,18 10,18 C5.58697674,18 2,14.4130233 2,10 C2,5.58697674 5.58697674,2 10,2 Z M7.49679266,6.64338605 C7.27232755,6.42016744 6.90970429,6.42014884 6.68522057,6.64338605 C6.46233685,6.86504186 6.4613508,7.22539535 6.68298801,7.44827907 L6.68298801,7.44827907 L6.68522057,7.45051163 L9.25640676,10.0069651 L6.68493023,12.5652093 L6.61863155,12.6448755 C6.46402297,12.8686732 6.48682997,13.1752889 6.68494884,13.3723163 L6.68494884,13.3723163 L6.76450848,13.4384661 C6.98829124,13.5928158 7.29697778,13.5707659 7.49650233,13.3723163 L7.49650233,13.3723163 L10.0674068,10.8149651 L12.639695,13.3723163 C12.8641601,13.5955721 13.2267834,13.5955721 13.4512485,13.3723163 C13.6741322,13.1506605 13.6751368,12.790307 13.4512671,12.5652093 L13.4512671,12.5652093 L10.8794068,10.0069651 L13.4509767,7.45051163 L13.4532093,7.44827907 L13.5188441,7.36927185 C13.6718879,7.14702911 13.6490956,6.84041344 13.4509767,6.64338605 L13.4509767,6.64338605 L13.3714116,6.5772423 C13.1476157,6.42290853 12.8389292,6.44496951 12.6394047,6.64338605 L12.6394047,6.64338605 L10.0674068,9.19996512 Z" id="形状结合"></path>
            </g>
        </g>
    </g>
</svg>