<?xml version="1.0" encoding="UTF-8"?>
<svg width="20px" height="20px" viewBox="0 0 20 20" version="1.1" xmlns="http://www.w3.org/2000/svg" xmlns:xlink="http://www.w3.org/1999/xlink">
    <title>icon_position</title>
    <g id="选择城市" stroke="none" stroke-width="1" fill="none" fill-rule="evenodd">
        <g transform="translate(-20.000000, -130.000000)" id="定位城市">
            <g transform="translate(0.000000, 88.000000)">
                <g id="定位图标" transform="translate(20.000000, 42.000000)">
                    <rect id="矩形" fill="#D8D8D8" opacity="0" x="0" y="0" width="20" height="20"></rect>
                    <path d="M14.7729708,3.98989873 C17.4090097,6.64309704 17.4090097,10.9447814 14.7729708,13.5979797 L10.6885143,17.709024 C10.3107176,18.08928 9.69619454,18.0912736 9.31593857,17.7134769 L9.31148566,17.709024 L5.22702923,13.5979797 C2.59099026,10.9447814 2.59099026,6.64309704 5.22702923,3.98989873 C7.8630682,1.33670042 12.1369318,1.33670042 14.7729708,3.98989873 Z M10,5.88225099 C8.40231912,5.88225099 7.10714286,7.18585823 7.10714286,8.79393924 C7.10714286,10.4020203 8.40231912,11.7056275 10,11.7056275 C11.5976809,11.7056275 12.8928571,10.4020203 12.8928571,8.79393924 C12.8928571,7.18585823 11.5976809,5.88225099 10,5.88225099 Z" id="icon_position" fill="#979797"></path>
                </g>
            </g>
        </g>
    </g>
</svg>