<?xml version="1.0" encoding="UTF-8"?>
<svg width="17px" height="18px" viewBox="0 0 17 18" version="1.1" xmlns="http://www.w3.org/2000/svg" xmlns:xlink="http://www.w3.org/1999/xlink">
    <title>搜索</title>
    <g id="自提门店列表&amp;收货地址" stroke="none" stroke-width="1" fill="none" fill-rule="evenodd">
        <g id="选择城市" transform="translate(-56.000000, -56.000000)" fill="#CFCFCF" fill-rule="nonzero">
            <g id="编辑区域" transform="translate(0.000000, 44.000000)">
                <g id="编组-2" transform="translate(44.000000, 6.000000)">
                    <g id="搜索" transform="translate(12.000000, 6.500000)">
                        <path d="M7.63375795,14.691358 C3.65923566,14.691358 0.5,11.4382716 0.5,7.345679 C0.5,3.2530864 3.65923568,0 7.63375795,0 C11.6082802,0 14.7675159,3.25308643 14.7675159,7.345679 C14.7675159,11.4382716 11.6082802,14.691358 7.63375795,14.691358 Z M7.63375795,12.5925926 C10.4872611,12.5925926 12.7292994,10.2839506 12.7292994,7.345679 C12.7292994,4.40740738 10.4872611,2.09876542 7.63375795,2.09876542 C4.78025476,2.09876542 2.53821655,4.40740741 2.53821655,7.345679 C2.53821655,10.2839506 4.78025478,12.5925926 7.63375795,12.5925926 Z M13.6464968,12.5925926 L16.5,15.5308642 L15.0732484,17 L12.2197452,14.0617284 L13.6464968,12.5925926 Z" id="形状"></path>
                    </g>
                </g>
            </g>
        </g>
    </g>
</svg>