<?xml version="1.0" encoding="UTF-8"?>
<svg width="20px" height="20px" viewBox="0 0 20 20" version="1.1" xmlns="http://www.w3.org/2000/svg" xmlns:xlink="http://www.w3.org/1999/xlink">
    <title>搜索</title>
    <g id="自提门店列表&amp;收货地址" stroke="none" stroke-width="1" fill="none" fill-rule="evenodd">
        <g id="搜索-填写" transform="translate(-56.000000, -55.000000)" fill="#111111" fill-rule="nonzero">
            <g id="编辑区域" transform="translate(0.000000, 44.000000)">
                <g id="编组-2" transform="translate(44.000000, 6.000000)">
                    <g id="搜索" transform="translate(12.000000, 5.000000)">
                        <path d="M9.18789808,15.8271605 C5.46178343,15.8271605 2.5,12.7654321 2.5,8.91358023 C2.5,5.06172838 5.46178345,2 9.18789808,2 C12.9140127,2 15.8757962,5.0617284 15.8757962,8.91358023 C15.8757962,12.7654321 12.9140127,15.8271605 9.18789808,15.8271605 Z M9.18789808,13.8518519 C11.8630573,13.8518519 13.9649682,11.6790123 13.9649682,8.91358023 C13.9649682,6.14814813 11.8630573,3.97530863 9.18789808,3.97530863 C6.51273884,3.97530863 4.41082802,6.14814815 4.41082802,8.91358023 C4.41082802,11.6790123 6.51273886,13.8518519 9.18789808,13.8518519 Z M14.8248408,13.8518519 L17.5,16.6172839 L16.1624204,18 L13.4872611,15.2345679 L14.8248408,13.8518519 Z" id="形状"></path>
                    </g>
                </g>
            </g>
        </g>
    </g>
</svg>