<?xml version="1.0" encoding="UTF-8"?>
<svg width="12px" height="12px" viewBox="0 0 12 12" version="1.1" xmlns="http://www.w3.org/2000/svg" xmlns:xlink="http://www.w3.org/1999/xlink">
    <title>@</title>
    <g id="订单" stroke="none" stroke-width="1" fill="none" fill-rule="evenodd">
        <g id="订单-订单列表_努力加载中" transform="translate(-141.000000, -699.000000)" fill="#999999" fill-rule="nonzero">
            <g id="编组-4" transform="translate(141.000000, 698.000000)">
                <g id="Label备份" transform="translate(0.000000, 1.000000)">
                    <path d="M9.00662252,7.11461988 L9.00662252,2.6245614 L7.57615894,2.6245614 L7.57615894,3.46081871 C7.44370861,3.19064327 6.64900662,2.49590643 5.48344371,2.49590643 C3.7218543,2.49590643 2.56953642,3.87251462 2.56953642,5.57076023 C2.56953642,7.37192982 4.01324503,8.58128655 5.62913907,8.58128655 C6.54304636,8.58128655 7.36423841,8.20818713 7.90728477,7.43625731 L7.93377483,7.69356725 C8.0794702,8.41403509 8.66225166,8.73567251 9.47019868,8.73567251 C10.9536424,8.73567251 12,7.4748538 12,5.53216374 C12,2.32865497 9.48344371,0 6.0794702,0 C2.66225166,0 0,2.43157895 0,5.59649123 C0,8.69707602 2.54304636,11 5.90728477,11 C6.91390728,11 8.22516556,10.6526316 9.00662252,10.1122807 L8.46357616,9.17309942 C7.7218543,9.6877193 6.68874172,9.93216374 5.90728477,9.93216374 C3.20529801,9.93216374 1.13907285,8.10526316 1.13907285,5.59649123 C1.13907285,3.04912281 3.32450331,1.04210526 6.0794702,1.04210526 C9.01986755,1.04210526 10.8609272,3.01052632 10.8609272,5.57076023 C10.8609272,6.89590643 10.2649007,7.80935673 9.61589404,7.80935673 C9.25827815,7.80935673 9.00662252,7.60350877 9.00662252,7.11461988 Z M5.7615894,3.78245614 C6.80794702,3.78245614 7.48344371,4.55438596 7.48344371,5.51929825 C7.48344371,6.52280702 6.83443709,7.32046784 5.78807947,7.32046784 C4.78145695,7.32046784 4.1192053,6.49707602 4.1192053,5.50643275 C4.1192053,4.55438596 4.78145695,3.78245614 5.7615894,3.78245614 Z" id="形状"></path>
                </g>
            </g>
        </g>
    </g>
</svg>