<?xml version="1.0" encoding="UTF-8"?>
<svg width="60px" height="60px" viewBox="0 0 60 60" version="1.1" xmlns="http://www.w3.org/2000/svg" xmlns:xlink="http://www.w3.org/1999/xlink">
    <title>btn_error</title>
    <g id="首页" stroke="none" stroke-width="1" fill="none" fill-rule="evenodd">
        <g id="首页-广告位示例" transform="translate(-346.000000, -1192.000000)" fill="#FFFFFF" fill-rule="nonzero">
            <g id="btn_error" transform="translate(346.000000, 1192.000000)">
                <path d="M30.0001758,60 C13.4313867,60 0,46.5682617 0,29.9998242 C0,13.4313867 13.4313867,0 30.0001758,0 C46.5686133,0 60,13.4313867 60,30.0001758 C60,46.5686133 46.5686133,60 30.0001758,60 Z M30.0001758,3.74994141 C15.5029102,3.74994141 3.75,15.5029102 3.75,30.0001758 C3.75,44.4970898 15.5028516,56.2500586 30.0001758,56.2500586 C44.4970898,56.2500586 56.2500586,44.4970898 56.2500586,30.0001758 C56.2500586,15.5029102 44.4970898,3.74994141 30.0001758,3.74994141 Z M32.662207,30.0097852 L40.606582,37.9555664 C41.3390625,38.686582 41.3390625,39.8745117 40.606582,40.606582 C39.8744531,41.3389453 38.686582,41.3389453 37.9555664,40.606582 L30.0099023,32.662207 L22.0117383,40.6603125 C21.2731055,41.3989453 20.0770313,41.3989453 19.3396875,40.6603125 C18.6010547,39.9220312 18.6010547,38.7256055 19.3396875,37.9882617 L27.3378516,29.9891016 L19.3934766,22.0447266 C18.6609961,21.3122461 18.6609961,20.1254297 19.3934766,19.3930078 C20.1258398,18.6609961 21.3123047,18.6609961 22.0447852,19.3930078 L29.9891602,27.3374414 L38.0468555,19.2796289 C38.7854883,18.5424023 39.9816797,18.5424023 40.7192578,19.2796289 C41.4575391,20.0179102 41.4575391,21.2144531 40.7192578,21.9530859 L32.6622656,30.0097266 L32.662207,30.0097852 Z" id="形状"></path>
            </g>
        </g>
    </g>
</svg>