<?xml version="1.0" encoding="UTF-8"?>
<svg width="40px" height="40px" viewBox="0 0 40 40" version="1.1" xmlns="http://www.w3.org/2000/svg" xmlns:xlink="http://www.w3.org/1999/xlink">
    <title>icon_more_mendian</title>
    <g id="购物车" stroke="none" stroke-width="1" fill="none" fill-rule="evenodd">
        <g id="购物车-1" transform="translate(-32.000000, -112.000000)">
            <g id="编辑区域" transform="translate(0.000000, 88.000000)">
                <g id="图标_返回" transform="translate(32.000000, 24.000000)">
                    <rect id="bounds" fill-opacity="0.338428442" fill="#1C8FF8" opacity="0" x="0" y="0" width="40" height="40"></rect>
                    <path d="M24.3725331,6.83752361 C25.014551,5.93869844 26.2636512,5.73051508 27.1624764,6.37253306 C27.9921612,6.96516504 28.2333701,8.07507416 27.7606052,8.94927305 L27.6274669,9.16247639 L16.456,19.998 L27.6274669,30.8375236 C28.2200989,31.6672084 28.088299,32.7953523 27.357565,33.4689681 L27.1624764,33.6274669 C26.3327916,34.2200989 25.2046477,34.088299 24.5310319,33.357565 L24.3725331,33.1624764 L12.3725331,21.1624764 C11.9254934,20.5366209 11.8807894,19.7173635 12.2384212,19.0528276 L12.3725331,18.8375236 L24.3725331,6.83752361 Z" id="Shape" fill="#666666" fill-rule="nonzero"></path>
                </g>
            </g>
        </g>
    </g>
</svg>