<?xml version="1.0" encoding="UTF-8"?>
<svg width="34px" height="34px" viewBox="0 0 34 34" version="1.1" xmlns="http://www.w3.org/2000/svg" xmlns:xlink="http://www.w3.org/1999/xlink">
    <title>编组 5</title>
    <defs>
        <linearGradient x1="-31.2551816%" y1="-117.656298%" x2="100%" y2="100%" id="linearGradient-1">
            <stop stop-color="#FD9467" offset="0%"></stop>
            <stop stop-color="#CD4444" offset="100%"></stop>
        </linearGradient>
    </defs>
    <g id="营销—分享领券" stroke="none" stroke-width="1" fill="none" fill-rule="evenodd">
        <g id="分享备份54" transform="translate(-85.000000, -840.000000)">
            <g id="编组-5" transform="translate(85.000000, 840.000000)">
                <rect id="矩形" fill="url(#linearGradient-1)" x="0" y="0" width="34" height="34" rx="17"></rect>
                <g id="编组-18" transform="translate(7.657520, 9.094247)" fill-rule="nonzero">
                    <g id="微信">
                        <path
                            d="M3.24818359,10.814308 C3.19773438,10.9532142 3.14701172,11.0925111 3.12128906,11.294015 C3.33835938,11.2269056 3.53072266,11.113683 3.72119141,11.0016517 C4.09695313,10.7803627 4.46708984,10.5626478 5.02246094,10.6738978 C5.46605469,10.7628822 5.79304687,10.8246595 6.13951172,10.864015 C6.46257812,10.9007533 6.80417969,10.9180775 7.27564453,10.9201478 C7.15527344,10.6119642 7.11201172,10.2432728 7.12041016,9.86805797 C7.13162109,9.36434703 7.23609375,8.84594859 7.37042969,8.44592906 C7.72941406,7.37909313 8.17941406,6.96348766 8.85779297,6.33710094 L8.89523438,6.30247203 C8.97892578,6.22530406 9.02773438,6.18063609 9.07982422,6.13856578 L9.07974609,6.13844859 C9.1296875,6.09794078 9.1840625,6.05905406 9.27966797,5.99217906 C9.75080078,5.66280406 10.2445703,5.40756969 10.7848438,5.23483531 C11.3026172,5.06928844 11.8631641,4.97921031 12.4868555,4.97188609 C12.3983008,4.61006969 12.2696484,4.27044078 12.1071289,3.95469859 C11.5088086,2.79133922 10.4474805,1.94657359 9.21162109,1.46575328 C7.97306641,0.984112656 6.5596875,0.867550156 5.25972656,1.16145641 C4.77773437,1.27038219 4.31142578,1.43596813 3.87585938,1.65999156 C2.93871094,2.14202281 2.22966797,2.76440563 1.74837891,3.4618275 C1.28681641,4.13051891 1.03392578,4.86928844 0.989160156,5.62003063 C0.944472656,6.37096813 1.10755859,7.13528453 1.47763672,7.85481578 C1.87292969,8.62352672 2.50488281,9.34198375 3.37138672,9.93999156 L3.40033203,9.96001109 L3.40033203,9.99559703 C3.40037109,10.3951283 3.32427734,10.6045619 3.24818359,10.814308 Z" id="路径" fill="#CD4444"></path>
                        <path d="M0.742558594,8.51128063 C0.288789062,7.68360484 0,6.72657359 0,5.83143688 C0,5.10366344 0.229003906,4.31428844 0.593671875,3.59192516 C0.979394531,2.82786266 1.51822266,2.13659313 2.09914063,1.67065563 C3.43027344,0.602550156 4.96412109,0.0512610939 6.51494141,0.00342906264 C8.08583984,-0.0451451561 9.67412109,0.422569688 11.0867773,1.39176891 C11.6938477,1.80794078 12.1593945,2.26126109 12.5275391,2.77784313 C12.8950195,3.29380016 13.1650586,3.87266734 13.38125,4.54102672 C13.5144141,4.95155406 13.5558398,4.95604625 13.8034375,4.98227672 C13.8937695,4.99184703 14.0081836,5.00409313 14.1570313,5.03362438 C14.6625781,5.13409313 15.1708789,5.30329234 15.6430273,5.53280406 C16.0949609,5.7524525 16.5146289,6.02792125 16.8680469,6.35217906 C17.1162109,6.57989391 17.3475781,6.8055775 17.5570898,7.05278453 C17.7673242,7.30104625 17.954082,7.56952281 18.1111133,7.88077281 C18.5101953,8.67194469 18.6972852,9.40233531 18.6691211,10.1273158 C18.6409766,10.85214 18.3973438,11.5693275 17.9358594,12.3335072 C17.7843164,12.5842884 17.530918,12.8984486 17.258418,13.1893666 C16.9964453,13.4693275 16.7156836,13.7290931 16.4900195,13.891515 C16.576543,14.2626869 16.6721094,14.5237025 16.7478711,14.7305189 C16.9006055,15.1480384 16.9775977,15.3581752 16.7625,15.7773744 L16.7424023,15.8165736 L16.6997656,15.8129017 C16.3406055,15.7820619 16.1162305,15.637433 15.8688086,15.4781556 L15.7869141,15.4256752 L15.7869141,15.4258314 C15.6662526,15.3492106 15.5433266,15.2762157 15.4183008,15.2069447 C15.3015625,15.1420619 15.1773828,15.0766127 15.0414063,15.0051478 C14.7089648,14.8303822 14.6991992,14.8329213 14.4190039,14.9104408 C14.3576953,14.9273744 14.2841602,14.9478041 14.1815039,14.9733314 C13.5573438,15.1289369 13.3166797,15.1264759 12.8146484,15.1211439 C12.7241602,15.1201869 12.6235742,15.1191322 12.4729102,15.1191322 C11.4648633,15.1191322 10.312832,14.6780189 9.36902344,14.0293666 C8.45345703,13.4001869 7.730625,12.5731947 7.51980469,11.7606752 C7.11203125,11.8510853 6.69630859,11.8714369 6.28542969,11.8489369 C5.85542969,11.8255775 5.43037109,11.7548158 5.02517578,11.668683 C4.38496094,11.5323939 3.87330078,11.8665931 3.38490234,12.1856752 C3.0675,12.3930189 2.75896484,12.5945228 2.42373047,12.6672572 C2.13363281,12.7302455 1.99513672,12.6315541 1.95248047,12.4346986 C1.88855469,12.1404994 2.08117188,11.6115931 2.26220703,11.1145619 C2.35339844,10.8642689 2.44181641,10.6216908 2.49107422,10.4266322 C1.82414063,10.0471205 1.19914063,9.34391734 0.742558594,8.51143688 L0.742558594,8.51128063 L0.742558594,8.51128063 Z" id="路径" stroke="#CD4444" stroke-width="0.8" fill="#FFFFFF"></path>
                        <path d="M13.5532958,4.94751095 C12.0430061,4.94751095 10.1155969,5.59385448 9.20782588,6.31676607 C8.43948996,6.92886353 7.89707546,7.72674373 7.60047859,8.58491272 C7.30402021,9.44271241 7.2314484,10.6380266 7.44370559,11.4907484" id="形状" stroke="#CD4444" stroke-width="0.8"></path>
                        <path d="M8.03005859,4.76391734 C7.88197266,4.59456188 7.78226562,4.35825328 7.78226562,4.06612438 C7.78226562,3.89764781 7.90550781,3.71741344 8.07662109,3.58022594 C8.24773438,3.44315563 8.46964844,3.34587047 8.66308594,3.34587047 C9.11980469,3.34587047 9.40503906,3.56106578 9.52970703,3.83899547 C9.57923828,3.94915172 9.60310547,4.06965953 9.60214844,4.19055797 L9.60214844,4.19081188 C9.60117957,4.31251844 9.57522681,4.4327294 9.52589844,4.54399547 C9.39599609,4.83647594 9.10326172,5.06762828 8.66308594,5.06762828 C8.43998047,5.06762828 8.20207031,4.96090953 8.03005859,4.76391734 Z" id="路径" fill="#CD4444"></path>
                        <path d="M3.84232422,4.76405406 C3.69435547,4.59456188 3.59453125,4.35837047 3.59453125,4.06614391 C3.59453125,3.89766734 3.71777344,3.71743297 3.88900391,3.58024547 C4.05998047,3.44317516 4.28191406,3.34589 4.47546875,3.34589 C4.92662109,3.34589 5.20761719,3.56047984 5.33052734,3.83817516 C5.37931641,3.94844859 5.40285156,4.06899547 5.40189453,4.18962047 C5.40090941,4.31115026 5.37533746,4.43122347 5.32671875,4.54260875 C5.19841797,4.83563609 4.90912109,5.06762828 4.47546875,5.06762828 C4.25236328,5.06762828 4.01435547,4.96102672 3.84232422,4.76405406 L3.84232422,4.76405406 Z" id="路径" fill="#CD4444"></path>
                        <path d="M11.7700195,9.64661266 C11.6674414,9.86534313 11.4391016,10.0329603 11.0784375,10.0329603 C10.711875,10.0329603 10.4917187,9.86518688 10.3961328,9.64604625 L10.4521094,9.62005016 L10.3961328,9.64581188 C10.3567773,9.55547984 10.339043,9.45626109 10.3412695,9.35676891 C10.3434961,9.25788219 10.3658398,9.15823375 10.4057617,9.06712047 C10.5113477,8.82653453 10.7413867,8.63688609 11.0658594,8.64221813 C11.4260352,8.64794078 11.6642578,8.83622203 11.7700195,9.07188609 C11.8107475,9.16273073 11.8319343,9.26111895 11.8322087,9.36067516 C11.8324219,9.45913219 11.8118359,9.55739391 11.7700195,9.64661266 L11.7700195,9.64661266 Z" id="路径" fill="#CD4444"></path>
                        <path d="M14.0614453,9.98366344 C13.8315039,9.89104625 13.657207,9.6755775 13.657207,9.31260875 C13.657207,8.98971813 13.8295117,8.80071422 14.0578711,8.72008922 C14.149707,8.68780406 14.2510938,8.67348766 14.3535742,8.67565563 C14.4558615,8.67790544 14.5572002,8.69581508 14.6540625,8.72876109 C14.9251172,8.82092906 15.1453516,9.02829234 15.1453516,9.31262828 C15.1453516,9.63790172 14.929707,9.87102672 14.6628711,9.975265 C14.5667578,10.0127259 14.4629883,10.0336244 14.3604297,10.0357923 C14.2571289,10.0378822 14.1544727,10.0211244 14.0614453,9.98366344 L14.0614453,9.98366344 Z" id="路径" fill="#CD4444"></path>
                    </g>
                </g>
            </g>
        </g>
    </g>
</svg>