<?xml version="1.0" encoding="UTF-8"?>
<svg width="34px" height="34px" viewBox="0 0 34 34" version="1.1" xmlns="http://www.w3.org/2000/svg" xmlns:xlink="http://www.w3.org/1999/xlink">
    <title>编组 3</title>
    <defs>
        <linearGradient x1="-31.2551816%" y1="-117.656298%" x2="100%" y2="100%" id="linearGradient-1">
            <stop stop-color="#FD9467" offset="0%"></stop>
            <stop stop-color="#CD4444" offset="100%"></stop>
        </linearGradient>
    </defs>
    <g id="营销—分享领券" stroke="none" stroke-width="1" fill="none" fill-rule="evenodd">
        <g id="分享备份54" transform="translate(-254.000000, -840.000000)">
            <g id="编组-3" transform="translate(254.000000, 840.000000)">
                <rect id="矩形备份-2" fill="url(#linearGradient-1)" x="0" y="0" width="34" height="34" rx="17"></rect>
                <g id="图片-产品详情" transform="translate(7.500000, 9.000000)" fill-rule="nonzero"
                    stroke="#CD4444" stroke-width="0.8">
                    <path d="M18.6,0.4 L18.6,15.6 L0.4,15.6 L0.4,0.4 L18.6,0.4 Z" id="路径" fill="#FFFFFF"></path>
                    <path d="M6.91531504,6.39553342 L12.723136,12.3650165 L10.6237321,10.2038219 L12.6684457,8.10215841 L18.5943749,13.7051277 L18.5943749,15.3291173 L0.426903856,15.3291173 L0.426903856,12.7325042 L6.91531504,6.39553342 Z" id="路径"></path>
                    <path d="M14.1904258,3.12507385 C14.6251741,3.12507385 15.0182273,3.30708273 15.302942,3.59974155 C15.59159,3.89644349 15.7692243,4.30657871 15.7692243,4.75908522 C15.7692243,5.21154166 15.5915826,5.62165325 15.3029322,5.91834311 C15.0182178,6.21098753 14.6251691,6.39299773 14.1904258,6.39299773 C13.7556745,6.39299773 13.3626057,6.21097621 13.0778733,5.91832056 C12.7892122,5.62162676 12.6115551,5.21151417 12.6115551,4.7590605 C12.6115551,4.30657081 12.7892036,3.89644853 13.0778596,3.59975276 C13.3625931,3.30708887 13.7556682,3.12507385 14.1904258,3.12507385 Z" id="路径"></path>
                </g>
            </g>
        </g>
    </g>
</svg>