<?xml version="1.0" encoding="UTF-8"?>
<svg width="16px" height="16px" viewBox="0 0 16 16" version="1.1" xmlns="http://www.w3.org/2000/svg" xmlns:xlink="http://www.w3.org/1999/xlink">
    <title>icon_more_mendian</title>
    <g id="---订单详情" stroke="none" stroke-width="1" fill="none" fill-rule="evenodd">
        <g id="订单_自提_已完成" transform="translate(-336.000000, -642.000000)">
            <g id="查看评价" transform="translate(16.000000, 625.000000)">
                <g id="图标_返回" transform="translate(320.000000, 17.000000)">
                    <rect id="bounds" fill-opacity="0.338428442" fill="#1C8FF8" opacity="0" x="0" y="0" width="16" height="16"></rect>
                    <path d="M9.63965485,3.29916774 C9.88040926,2.97816231 10.3488173,2.90381193 10.6858734,3.13310152 C10.9970022,3.34475345 11.0874547,3.74114517 10.9101696,4.0533556 L10.8602432,4.1294988 L6.67098378,7.99928572 L10.8602432,11.8705012 C11.082478,12.1668139 11.0330535,12.569718 10.759031,12.8102924 L10.6858734,12.8668985 C10.3747447,13.0785504 9.9516948,13.0314795 9.69909134,12.770506 L9.63965485,12.7008323 L5.13969854,8.41516553 C4.97206029,8.19164818 4.95529647,7.89905952 5.08940707,7.6617279 L5.13969854,7.58483447 L9.63965485,3.29916774 Z" id="Shape" fill="#979797" fill-rule="nonzero" transform="translate(8.000000, 8.000000) scale(-1, 1) translate(-8.000000, -8.000000) "></path>
                </g>
            </g>
        </g>
    </g>
</svg>