<?xml version="1.0" encoding="UTF-8"?>
<svg width="11px" height="11px" viewBox="0 0 11 11" version="1.1" xmlns="http://www.w3.org/2000/svg" xmlns:xlink="http://www.w3.org/1999/xlink">
    <title>矩形 2</title>
    <g id="点餐" stroke="none" stroke-width="1" fill="none" fill-rule="evenodd">
        <g id="调整菜单-外卖配送" transform="translate(-150.000000, -148.000000)" fill-rule="nonzero">
            <g id="编组-18" transform="translate(148.000000, 146.000000)">
                <g id="编组-11" transform="translate(2.000000, 2.000000)">
                    <rect id="矩形" fill="#000000" opacity="0" x="0" y="0" width="11" height="11"></rect>
                    <path
                        d="M5.47971674,0.5 C5.47971674,0.5 5.69701394,0.618789534 6.04275778,0.794035995 L6.32476111,0.935082567 C7.33579613,1.43403041 9.0107937,2.18843934 9.96146404,2.22436236 C10.0780274,2.86814374 9.98646935,6.5173125 8.88300826,8.27759788 C8.08512135,9.44513048 6.32583603,10.1779968 5.53913455,10.4869325 C5.45805937,10.5187608 5.42029893,10.4824364 5.42029893,10.4824364 C4.81102762,10.2468149 2.77245773,9.31938843 2.10938877,8.27758641 C1.10778209,6.73285062 0.912097379,2.85303817 1.030933,2.22436236 C2.45693851,2.17047784 5.42878405,0.5 5.42878405,0.5 L5.42878405,0.5 Z M7.3249065,3.17229142 L4.97112475,6.24660868 L3.71577449,5.05787267 L3.12732904,5.83669971 L5.08881384,7.72228096 L8.03104103,3.86913667 L7.3249065,3.17229142 Z" id="形状结合" fill="#CD4444"></path>
                </g>
            </g>
        </g>
    </g>
</svg>