<?xml version="1.0" encoding="UTF-8"?>
<svg width="28px" height="16px" viewBox="0 0 28 16" version="1.1" xmlns="http://www.w3.org/2000/svg" xmlns:xlink="http://www.w3.org/1999/xlink">
    <title>右箭头</title>
    <g id="门店列表" stroke="none" stroke-width="1" fill="none" fill-rule="evenodd">
        <g id="门店列表-上拉" transform="translate(-174.000000, -88.000000)" fill="#CFCFCF">
            <g id="编组-9" transform="translate(0.000000, 88.000000)">
                <g id="右箭头备份" transform="translate(188.000000, 8.000000) scale(1, -1) translate(-188.000000, -8.000000) translate(174.000000, 0.000000)">
                    <path d="M1.48492424,7.78786797 L13.8585786,6.02020305 C13.9523834,6.00680238 14.0476166,6.00680238 14.1414214,6.02020305 L26.5150758,7.78786797 C27.3671189,7.90958842 28,8.63930644 28,9.5 C28,10.218491 27.4175479,10.8009431 26.6990569,10.8009431 C26.6374977,10.8009431 26.5760162,10.7965737 26.5150758,10.787868 L14.1414214,9.02020305 C14.0476166,9.00680238 13.9523834,9.00680238 13.8585786,9.02020305 L1.48492424,10.787868 C0.773654403,10.8894779 0.114685114,10.395251 0.0130751369,9.68398114 C0.00436935755,9.62304068 7.53882235e-18,9.56155916 0,9.5 C-1.05404561e-16,8.63930644 0.632881089,7.90958842 1.48492424,7.78786797 Z" id="矩形"></path>
                </g>
            </g>
        </g>
    </g>
</svg>