<?xml version="1.0" encoding="UTF-8"?>
<svg width="141px" height="121px" viewBox="0 0 141 121" version="1.1" xmlns="http://www.w3.org/2000/svg" xmlns:xlink="http://www.w3.org/1999/xlink">
    <title>编组 14</title>
    <defs>
        <linearGradient x1="50%" y1="-55.0161677%" x2="50%" y2="217.727663%" id="linearGradient-1">
            <stop stop-color="#F5F5F5" offset="0%"></stop>
            <stop stop-color="#E1E1E1" offset="100%"></stop>
        </linearGradient>
        <linearGradient x1="101.581016%" y1="34.5162786%" x2="21.3172863%" y2="61.2989429%" id="linearGradient-2">
            <stop stop-color="#F5F5F5" offset="0%"></stop>
            <stop stop-color="#E1E1E1" offset="100%"></stop>
        </linearGradient>
        <linearGradient x1="8.21605281e-13%" y1="37.9298674%" x2="45.5595444%" y2="67.9534231%" id="linearGradient-3">
            <stop stop-color="#F5F5F5" offset="0%"></stop>
            <stop stop-color="#E1E1E1" offset="100%"></stop>
        </linearGradient>
        <linearGradient x1="78.0795997%" y1="-127.9469%" x2="47.5062757%" y2="94.0033707%" id="linearGradient-4">
            <stop stop-color="#F5F5F5" offset="0%"></stop>
            <stop stop-color="#E1E1E1" offset="100%"></stop>
        </linearGradient>
        <linearGradient x1="50%" y1="-55.0161677%" x2="50%" y2="217.727663%" id="linearGradient-5">
            <stop stop-color="#F5F5F5" offset="0%"></stop>
            <stop stop-color="#E1E1E1" offset="100%"></stop>
        </linearGradient>
        <linearGradient x1="176.860212%" y1="35.9057607%" x2="2.10072507e-12%" y2="60.466305%" id="linearGradient-6">
            <stop stop-color="#F5F5F5" offset="0%"></stop>
            <stop stop-color="#E1E1E1" offset="100%"></stop>
        </linearGradient>
        <linearGradient x1="21.2298817%" y1="-87.3380151%" x2="50%" y2="175.87131%" id="linearGradient-7">
            <stop stop-color="#EAEAEA" offset="0%"></stop>
            <stop stop-color="#D2D2D2" offset="100%"></stop>
        </linearGradient>
        <linearGradient x1="50%" y1="-55.0161677%" x2="50%" y2="217.727663%" id="linearGradient-8">
            <stop stop-color="#F5F5F5" offset="0%"></stop>
            <stop stop-color="#E1E1E1" offset="100%"></stop>
        </linearGradient>
        <linearGradient x1="176.860212%" y1="36.1435467%" x2="2.10072507e-12%" y2="60.2897264%" id="linearGradient-9">
            <stop stop-color="#F5F5F5" offset="0%"></stop>
            <stop stop-color="#E1E1E1" offset="100%"></stop>
        </linearGradient>
        <path d="M55,5.0474018 L55,93.9403769 C55,96.7634999 52.6597363,99 49.7908215,99 L5.2459432,99 C2.37829615,99 0,96.726836 0,93.9403769 L0,5.0474018 C0,2.26094269 2.34026369,0 5.2459432,0 L49.7908215,0 C52.6597363,0 55,2.26094269 55,5.0474018 Z" id="path-10"></path>
        <filter x="-23.6%" y="-11.1%" width="147.3%" height="126.3%" filterUnits="objectBoundingBox" id="filter-11">
            <feOffset dx="0" dy="2" in="SourceAlpha" result="shadowOffsetOuter1"></feOffset>
            <feGaussianBlur stdDeviation="4" in="shadowOffsetOuter1" result="shadowBlurOuter1"></feGaussianBlur>
            <feColorMatrix values="0 0 0 0 0.811764706   0 0 0 0 0.811764706   0 0 0 0 0.811764706  0 0 0 0.202879152 0" type="matrix" in="shadowBlurOuter1"></feColorMatrix>
        </filter>
        <linearGradient x1="50%" y1="0%" x2="50%" y2="545.711882%" id="linearGradient-12">
            <stop stop-color="#EAEAEA" offset="0%"></stop>
            <stop stop-color="#D2D2D2" offset="100%"></stop>
        </linearGradient>
        <linearGradient x1="100%" y1="48.1134976%" x2="-14.8092643%" y2="103.43286%" id="linearGradient-13">
            <stop stop-color="#EAEAEA" offset="0%"></stop>
            <stop stop-color="#D2D2D2" offset="100%"></stop>
        </linearGradient>
        <linearGradient x1="89.5282564%" y1="50%" x2="213.61943%" y2="159.63171%" id="linearGradient-14">
            <stop stop-color="#EAEAEA" offset="0%"></stop>
            <stop stop-color="#D2D2D2" offset="100%"></stop>
        </linearGradient>
        <linearGradient x1="50%" y1="0%" x2="50%" y2="175.87131%" id="linearGradient-15">
            <stop stop-color="#EAEAEA" offset="0%"></stop>
            <stop stop-color="#D2D2D2" offset="100%"></stop>
        </linearGradient>
        <linearGradient x1="34.9916295%" y1="-154.938236%" x2="77.9099868%" y2="127.780584%" id="linearGradient-16">
            <stop stop-color="#EAEAEA" offset="0%"></stop>
            <stop stop-color="#D2D2D2" offset="100%"></stop>
        </linearGradient>
        <linearGradient x1="50%" y1="0%" x2="50%" y2="175.87131%" id="linearGradient-17">
            <stop stop-color="#EAEAEA" offset="0%"></stop>
            <stop stop-color="#D2D2D2" offset="100%"></stop>
        </linearGradient>
    </defs>
    <g id="图标" stroke="none" stroke-width="1" fill="none" fill-rule="evenodd">
        <g id="缺省备份-2" transform="translate(-59.000000, -281.000000)">
            <g id="编组-14" transform="translate(59.000000, 281.000000)">
                <g id="编组-6" transform="translate(6.618810, 6.000000)">
                    <g id="48备份">
                        <g id="编组-18">
                            <path d="M62.847,35.0738505 C62.847,40.3573533 58.5689983,44.6381994 53.2328738,44.6381994 C53.1404303,44.6381994 52.3582159,44.6381994 46.6082289,44.6381994 C42.6061355,44.6381994 36.2118883,44.6381994 25.9997237,44.6381994 L21.1236835,44.6381994 C14.7294363,44.7804202 9.62299838,39.6675824 9.62299838,33.5094217 C9.62299838,27.2943727 14.775658,22.1459797 21.2616377,22.4659765 C26.8281598,5.07948349 52.3127052,7.51857023 54.4744614,25.5023906 C59.2587692,26.0997179 62.847,30.1458997 62.847,35.0738505 Z" id="Path" fill="url(#linearGradient-1)" fill-rule="nonzero"></path>
                            <path d="M21.3546901,22 C20.7236901,23.89 20.4076901,25.89 20.4076901,28 C20.4076901,28.84 20.4606901,29.63 20.5656901,30.42" id="Path" stroke="#FFFFFF" fill="#F4F5F5" fill-rule="nonzero"></path>
                            <path d="M125.030751,76.5571906 C125.030751,84.4911162 118.614662,90.9101185 110.610817,90.9101185 C110.47292,90.9101185 109.299826,90.9101185 100.675445,90.9101185 C94.6730463,90.9101185 85.083387,90.9101185 69.7661521,90.9101185 L62.4527623,90.9101185 C52.8621319,91.1140505 45.204,83.4617452 45.204,74.2168282 C45.204,64.8942227 52.9310804,57.1739401 62.6596076,57.6497814 C71.008195,31.5756193 109.230877,35.2269731 112.473396,62.2042626 C119.648889,63.10739 125.030751,69.1767946 125.030751,76.5571906 Z" id="Path" fill="url(#linearGradient-2)" fill-rule="nonzero"></path>
                            <path d="M112.465326,61.7199267 C110.807326,61.7199267 108.71619,62.48 107.38119,63.33" id="Path" stroke="#FFFFFF" fill-rule="nonzero"></path>
                            <path d="M63.332,97.78 C63.332,102.43 59.572,106.19 54.882,106.19 C54.801,106.19 54.114,106.19 49.06,106.19 C45.542,106.19 39.922,106.19 30.946,106.19 L26.661,106.19 C21.041,106.32 16.553,101.83 16.553,96.41 C16.553,90.95 21.081,86.42 26.782,86.71 C31.674,71.42 54.073,73.57 55.973,89.38 C60.178,89.9 63.332,93.46 63.332,97.78 Z" id="Path" fill="url(#linearGradient-3)" fill-rule="nonzero"></path>
                            <g id="编组-22" transform="translate(0.000000, 50.000000)" fill-rule="nonzero">
                                <path d="M14.2964952,25.1010284 L10.1644629,28.5219522 C9.39336475,29.1206138 8.35304074,28.7357599 8.08527802,27.7664981 L6.41285842,18.2876885" id="Path" fill="url(#linearGradient-4)"></path>
                                <path d="M54,0 L51.3545629,2.50867745 L23.6623376,29.0493446 C22.4010728,30.2894294 20.3994367,30.2894294 19.0342858,29.2061369 L8.57690793,20.3259889 L6.48016489,18.5300039 L0.693271156,13.512649 C-0.546045909,12.4008488 -0.0514896305,10.3197868 1.60190858,10.020456 L48.0770301,1.28284642 L54,0 Z" id="Path" fill="url(#linearGradient-5)"></path>
                                <polygon id="Path" fill="url(#linearGradient-6)" points="54 3.41060513e-13 51.3545629 2.50867745 8.66908854 20.1834504 6.44651165 18.4159731 48.1677476 1.12605408"></polygon>
                            </g>
                            <g id="编组-21" transform="translate(86.381190, 18.000000)" fill-rule="nonzero">
                                <path d="M8.97755256,16.5118449 L6.25466684,18.7862391 C5.74683524,19.1802961 5.08417693,18.9018863 4.92852448,18.2251362 L4.01979491,11.6932131" id="Path" fill="url(#linearGradient-7)"></path>
                                <path d="M35,2.27373675e-13 L33.2502518,1.67902548 L14.9406516,19.3858911 C14.1062389,20.2168374 12.8160163,20.1825715 11.9560056,19.4158737 L5.37814124,13.1366611 L4.05860481,11.8645423 L0.420383593,8.31802927 C-0.359117276,7.5341985 -0.00363515302,6.11216672 1.06693993,5.93655436 L31.1611234,0.775264314 L35,2.27373675e-13 Z" id="Path" fill="url(#linearGradient-8)"></path>
                                <polygon id="Path" fill="url(#linearGradient-9)" points="35 0 33.2506646 1.67902548 5.43965905 13.0295803 4.03919986 11.7788777 31.2226412 0.672466836"></polygon>
                            </g>
                            <g id="编组-20" transform="translate(36.647314, 0.000000)">
                                <g id="Path" fill-rule="nonzero">
                                    <use fill="black" fill-opacity="1" filter="url(#filter-11)" xlink:href="#path-10"></use>
                                    <use fill="#F4F5F5" xlink:href="#path-10"></use>
                                </g>
                                <path d="M55,5.69379664 L55,14.2413848 L0.14432994,14.2413848 L0.14432994,5.69379664 C0.14432994,2.55049002 2.08840841,0 4.50218297,0 L50.6726877,0 C53.0559215,0 55,2.55049002 55,5.69379664 Z" id="Path" fill="url(#linearGradient-12)" fill-rule="nonzero"></path>
                                <path d="M55,97.4524118 L55,106 L0.14432994,106 L0.14432994,97.4524118 C0.14432994,94.3091052 2.08840841,91.7586152 4.50218297,91.7586152 L50.6726877,91.7586152 C53.0559215,91.7586152 55,94.3091052 55,97.4524118 Z" id="Path备份-10" fill="url(#linearGradient-13)" fill-rule="nonzero" transform="translate(27.572165, 98.879308) rotate(-180.000000) translate(-27.572165, -98.879308) "></path>
                                <path d="M27.6651826,102.687557 C29.5871867,102.687557 31.1451343,101.128271 31.1451343,99.2076053 C31.1451343,97.2802474 29.5871867,95.7276536 27.6651826,95.7276536 C25.7431785,95.7276536 24.1852309,97.2802474 24.1852309,99.2076053 C24.1852309,101.128271 25.7431785,102.687557 27.6651826,102.687557 Z" id="Path备份-11" fill="#FFFFFF"></path>
                                <path d="M7.64513428,6.72765362 C8.47359581,6.72765362 9.14513428,6.05553823 9.14513428,5.22765362 C9.14513428,4.39688439 8.47359581,3.72765362 7.64513428,3.72765362 C6.81667274,3.72765362 6.14513428,4.39688439 6.14513428,5.22765362 C6.14513428,6.05553823 6.81667274,6.72765362 7.64513428,6.72765362 Z" id="Path备份-12" fill="#FFFFFF"></path>
                            </g>
                        </g>
                        <polygon id="Path" fill="url(#linearGradient-14)" fill-rule="nonzero" points="103.990477 95.2778233 76.1333315 67.4770504 80.4600467 63.1522279 108.302997 90.9624643"></polygon>
                        <path d="M110.552472,101.911741 L96.0780388,87.4420398 C94.869549,86.2307109 94.869549,84.2623016 96.0780388,83.0509727 C97.2865286,81.8491074 99.2568307,81.8491074 100.46532,83.0509727 L114.939754,97.5301379 C116.148244,98.7414667 116.148244,100.709876 114.939754,101.911741 C113.731264,103.12307 111.761908,103.12307 110.552472,101.911741 Z" id="Path" fill="url(#linearGradient-15)" fill-rule="nonzero"></path>
                        <path d="M109.522843,102.839165 L90.9005543,84.214984 C90.4671257,83.7891262 90.4671257,83.0793632 90.9005543,82.6345784 L95.6606981,77.8744346 C96.0931804,77.4391133 96.7944262,77.4391133 97.2420501,77.8744346 L115.865285,96.4986156 C116.297767,96.9339369 116.297767,97.6342364 115.865285,98.0790212 L111.105141,102.839165 C110.657517,103.274486 109.956271,103.274486 109.522843,102.839165 Z" id="Path" fill="url(#linearGradient-16)" fill-rule="nonzero"></path>
                        <path d="M62.8867011,27 C49.3511942,27 38.3811901,37.9681175 38.3811901,51.4967588 C38.3811901,65.0189178 49.3511942,76 62.8763275,76 C76.4118344,76 87.3811901,65.0318825 87.3811901,51.4967588 C87.3811901,37.9681175 76.4118344,27 62.8867011,27 Z M62.8811901,71.8 C52.0520254,71.8 43.2811901,62.8628145 43.2811901,51.8467619 C43.2811901,40.8242331 52.0520254,31.9 62.8811901,31.9 C73.7097088,31.9 82.4811901,40.8371855 82.4811901,51.8532381 C82.4811901,62.8757669 73.6993719,71.8 62.8811901,71.8 Z" id="Shape" fill="url(#linearGradient-17)" fill-rule="nonzero"></path>
                    </g>
                    <path
                        d="M62.1918104,36.1671228 C62.8333567,36 63.474903,36 63.9560627,36 C64.597609,36 65.2391553,36 65.8807016,36 C66.5222479,36.1671228 67.3241808,36.3342456 67.9657271,36.5013685 C68.76766,36.8356141 69.4092063,37.1698597 70.0507526,37.5041054 C71.013072,38.0054739 71.8150049,38.6739651 72.6169378,39.5095792 C73.2584841,40.1780705 73.7396438,41.0136846 74.060417,42.1835444 C74.3811901,43.0191585 74.3811901,44.0218954 74.3811901,45.0246323 C74.2208035,46.0273693 73.9000304,47.0301062 73.4188707,48.0328431 C72.9377109,48.8684572 72.4565512,49.5369485 71.8150049,50.2054398 C71.1734586,50.7068083 70.6922989,51.0410539 69.890366,51.3752995 C69.2488197,51.7095452 68.6072734,51.876668 67.9657271,51.876668 L66.2014748,52.0437908 C65.7203151,52.0437908 65.2391553,52.2109136 64.597609,52.3780365 C64.1164493,52.5451593 63.7956762,52.7122821 63.474903,53.0465277 L61.7106507,55.5533701 L58.6633058,53.8821419 L59.9463984,50.7068083 C60.1067849,50.2054398 60.5879447,49.7040713 60.9087178,49.3698257 C61.3898775,49.03558 61.8710373,48.8684572 62.352197,48.7013344 C62.9937433,48.5342116 63.474903,48.5342116 64.1164493,48.3670888 C64.7579956,48.3670888 65.3995419,48.1999659 66.0410882,48.0328431 C66.6826345,47.8657203 67.1637942,47.6985975 67.8053405,47.3643518 C68.4468868,47.0301062 68.76766,46.5287377 69.0884331,45.8602464 C69.2488197,45.5260008 69.4092063,45.0246323 69.5695929,44.5232639 C69.5695929,44.0218954 69.5695929,43.6876498 69.4092063,43.3534041 C69.2488197,42.8520357 69.0884331,42.51779 68.76766,42.1835444 C68.4468868,41.8492987 68.1261137,41.5150531 67.644954,41.1808075 C67.1637942,40.8465618 66.5222479,40.5123162 65.8807016,40.3451933 C65.3995419,40.1780705 64.9183822,40.1780705 64.4372225,40.1780705 C63.9560627,40.1780705 63.6352896,40.1780705 63.3145164,40.1780705 C63.1541299,40.1780705 62.8333567,40.1780705 62.6729701,40.0109477 C62.352197,39.8438249 62.0314238,39.3424564 62.0314238,39.0082108 L62.1918104,36.1671228 Z M53.8175156,59.3503102 C53.9761794,59.0227785 54.293507,58.6952468 54.6108346,58.3677152 C54.9281622,58.2039493 55.2454898,57.8764176 55.5628174,57.8764176 C56.3561363,57.7126518 57.1494553,57.7126518 57.9427743,58.2039493 C58.2601019,58.3677152 58.5774295,58.6952468 58.8947571,59.0227785 C59.0534209,59.3503102 59.2120847,59.6778419 59.3707485,60.0053736 C59.8467399,61.643032 58.8947571,63.4444563 57.3081191,63.9357539 C56.5148001,64.0995197 55.7214811,63.9357539 54.9281622,63.6082222 C54.6108346,63.4444563 54.293507,63.1169246 53.9761794,62.789393 C53.8175156,62.4618613 53.500188,62.1343296 53.500188,61.8067979 C53.3415242,61.4792662 53.3415242,60.9879687 53.500188,60.660437 C53.500188,60.0053736 53.6588518,59.6778419 53.8175156,59.3503102 Z" id="Shape备份" fill="#CD4444" fill-rule="nonzero" transform="translate(63.881190, 50.000000) rotate(-30.000000) translate(-63.881190, -50.000000) "></path>
                </g>
                <rect id="矩形备份-3" x="0" y="0.5" width="141" height="120"></rect>
            </g>
        </g>
    </g>
</svg>