<?xml version="1.0" encoding="UTF-8"?>
<svg width="20px" height="20px" viewBox="0 0 20 20" version="1.1" xmlns="http://www.w3.org/2000/svg" xmlns:xlink="http://www.w3.org/1999/xlink">
    <title>矩形</title>
    <g id="门店列表" stroke="none" stroke-width="1" fill="none" fill-rule="evenodd">
        <g id="门店列表-上拉" transform="translate(-16.000000, -192.000000)">
            <g id="编组-9" transform="translate(0.000000, 88.000000)">
                <g id="编组-4" transform="translate(16.000000, 104.000000)">
                    <polygon id="矩形" fill="#CD4444" points="0 0 20 0 0 20"></polygon>
                    <g id="收藏" transform="translate(2.000000, 2.000000)" fill-rule="nonzero">
                        <rect id="矩形" fill="#000000" opacity="0" x="0.00360321378" y="1.56250013e-08" width="7.99639679" height="7.99999998"></rect>
                        <path d="M6.10387072,4.81274901 C6.19413549,5.23240373 6.27378087,5.6122178 6.34280688,5.95219125 C6.37466503,6.09561754 6.40386834,6.23904384 6.43041681,6.38247013 C6.45696527,6.52589642 6.48218631,6.6560425 6.50607993,6.77290838 C6.52997354,6.88977425 6.54988488,6.98937585 6.56581396,7.07171316 C6.58174304,7.15405047 6.59236242,7.2058433 6.59767211,7.22709164 C6.61360119,7.33333334 6.58970758,7.40371846 6.52599127,7.43824702 C6.46227496,7.47277557 6.39059411,7.49003984 6.31094872,7.49003984 C6.28440026,7.49003984 6.24590498,7.4807437 6.19546291,7.4621514 C6.14502083,7.4435591 6.10652556,7.42895087 6.07997709,7.4183267 L4.00123251,6.20717132 C3.62424435,6.43027889 3.28176919,6.62948208 2.97380703,6.80478089 C2.84106472,6.87915007 2.70964983,6.95351926 2.57956237,7.02788846 C2.4494749,7.10225765 2.33133424,7.17131475 2.2251404,7.23505977 C2.11894655,7.29880478 2.02735436,7.35192563 1.95036381,7.39442231 C1.87337327,7.436919 1.82160377,7.46347942 1.79505531,7.47410359 C1.74195839,7.50066401 1.68753404,7.50996016 1.63178227,7.50199203 C1.57603049,7.4940239 1.52558842,7.47410358 1.48045603,7.44223108 C1.43532365,7.41035857 1.40213807,7.37184596 1.3808993,7.32669323 C1.35966053,7.2815405 1.35435083,7.23505975 1.36497022,7.18725099 C1.37027991,7.16600266 1.38355414,7.11420983 1.40479292,7.03187251 C1.42603169,6.94953519 1.44992531,6.85126162 1.47647377,6.73705179 C1.50302222,6.62284196 1.53355296,6.49667995 1.56806596,6.35856574 C1.60257897,6.22045153 1.63841939,6.07968128 1.67558723,5.93625498 C1.75523262,5.60690571 1.84549739,5.23505976 1.94638155,4.82071713 C1.63310969,4.5498008 1.35169599,4.30810093 1.10214045,4.09561753 C0.995946603,4.00531209 0.891080177,3.91633466 0.787541171,3.82868526 C0.684002165,3.74103585 0.591082548,3.66135458 0.50878232,3.58964143 C0.426482092,3.51792828 0.358783514,3.45949535 0.305686586,3.41434263 C0.252589657,3.3691899 0.223386348,3.3439575 0.218076657,3.33864542 C0.154360347,3.28021248 0.0999359985,3.21513944 0.0548036114,3.14342629 C0.0096712243,3.07171315 -0.00758527588,2.99867198 0.00303411085,2.92430278 C0.0136534976,2.84993359 0.0428568072,2.79150066 0.0906440397,2.74900398 C0.138431272,2.7065073 0.191528195,2.67994688 0.249934809,2.66932271 L2.71097724,2.44621514 L3.62689919,0.310756976 C3.65875734,0.225763617 3.70388973,0.152722448 3.76229634,0.0916334686 C3.82070296,0.0305444895 3.90034834,0 4.0012325,0 C4.05432943,0 4.10078924,0.0119521901 4.14061193,0.0358565702 C4.18043463,0.0597609504 4.21362021,0.0876493957 4.24016867,0.119521906 C4.26671713,0.151394416 4.28928332,0.183266927 4.30786725,0.215139437 C4.32645118,0.247011947 4.34105283,0.273572372 4.35167221,0.29482071 L5.24370054,2.43027887 L7.70474297,2.66135457 C7.81093682,2.68791499 7.88527251,2.7197875 7.92775006,2.7569721 C7.9702276,2.79415669 7.99146637,2.85258962 7.99146637,2.9322709 C7.99146637,3.00664009 7.96890018,3.07171313 7.92376779,3.12749003 C7.8786354,3.18326692 7.82155621,3.250996 7.75253021,3.33067727 L6.10387072,4.81274901 Z" id="路径" fill="#FFFFFF"></path>
                    </g>
                </g>
            </g>
        </g>
    </g>
</svg>