
<?xml version="1.0" encoding="UTF-8"?>
<svg width="24px" height="24px" viewBox="0 0 24 24" version="1.1" xmlns="http://www.w3.org/2000/svg" xmlns:xlink="http://www.w3.org/1999/xlink">
    <title>ditu-3@2x</title>
    <g id="----订单详情" stroke="none" stroke-width="1" fill="none" fill-rule="evenodd">
        <g id="订单_自提_制作中备份" transform="translate(-311.000000, -445.000000)" fill="#3A3B3C" fill-rule="nonzero">
            <g id="订单详情-自提-样式二" transform="translate(16.000000, 433.000000)">
                <g id="编组" transform="translate(287.000000, 12.000000)">
                    <g id="ditu-3" transform="translate(8.000000, 0.000000)">
                        <path d="M12,14.856785 L7.7574,10.5061012 L8.60579999,9.63534914 L12,13.1165115 L15.3942,9.63534914 L16.2426,10.5054859 L12,14.856785 Z M16.2426,10.5061012 L15.3942,9.63534914 C17.2686455,7.7127796 17.2685933,4.59576706 15.3940834,2.67326357 C13.5195735,0.750760081 10.4804265,0.750760081 8.6059166,2.67326357 C6.73140666,4.59576706 6.73135446,7.7127796 8.60579999,9.63534914 L7.75799999,10.5048705 C5.41499999,8.1018408 5.41499999,4.205302 7.75799999,1.80227229 C10.101,-0.600757428 13.9002,-0.600757428 16.2432,1.80227229 C18.5862,4.205302 18.5862,8.1018408 16.2432,10.5048705 L16.2426,10.5061012 Z M12,7.38493182 C11.5712813,7.38493182 11.1751288,7.15035315 10.9607695,6.7695593 C10.7464101,6.38876545 10.7464101,5.91960807 10.9607695,5.53881422 C11.1751288,5.15802037 11.5712813,4.92344171 12,4.92344171 C12.6627417,4.92344171 13.2,5.47446505 13.2,6.15418676 C13.2,6.83390847 12.6627417,7.38493182 12,7.38493182 Z M8.22599999,17.9219555 C8.06631944,17.7683804 8.00086056,17.5378021 8.05520038,17.3203154 C8.10954019,17.1028288 8.27505353,16.9329547 8.48706868,16.8770688 C8.69908383,16.8211829 8.92394834,16.8881558 9.07379999,17.0518188 L12.1854,20.2425253 L21.7218,10.4617944 L19.2,10.4617944 L19.2,9.23102621 L22.1964,9.23102621 C22.673624,9.22957858 23.1318458,9.42272899 23.4701386,9.76795788 C23.8084315,10.1131868 23.9990467,10.5821764 24,11.0716286 L24,22.1600261 C23.9966923,23.1779256 23.1906765,24.0010135 22.1982,23.999995 L1.8018,23.999995 C1.32483894,24.0011336 0.866987479,23.807819 0.529049635,23.4626079 C0.19111179,23.1173968 0.000794697674,22.6485926 0,22.1594107 L0,11.0710132 C0,10.5813644 0.190532352,10.11196 0.529016777,9.76665111 C0.867501202,9.42134223 1.326189,9.22859375 1.8036,9.23102621 L4.80000001,9.23102621 L4.80000001,10.4617944 L1.8036,10.4617944 C1.64434871,10.4593219 1.49078744,10.5224789 1.37732415,10.6371141 C1.26386086,10.7517493 1.19998176,10.9082784 1.20000001,11.0716286 L1.20000001,19.7889958 L6.82620001,14.0186476 C6.93860368,13.9038057 7.09099089,13.8396325 7.24964806,13.8403254 C7.40830523,13.8410183 7.56015402,13.9065203 7.67159999,14.0223398 C7.90559999,14.2623351 7.90199999,14.6561735 7.6746,14.8887844 L1.26960002,21.4585014 C1.24796791,21.4808085 1.22469969,21.5013812 1.20000001,21.5200387 L1.20000001,22.1600261 C1.20000001,22.4966349 1.46820001,22.7698603 1.8018,22.7698603 L12.9516,22.7698603 L8.2254,17.9225709 L8.22599999,17.9219555 Z M22.1976,22.76925 C22.5278085,22.7706133 22.7970308,22.4980686 22.8,22.1594107 L22.8,11.0882437 C22.7828747,11.1112687 22.7642311,11.1330629 22.7442,11.1534731 L13.0338,21.1132774 L14.5578,22.6763237 C14.586,22.7052462 14.6112,22.7366302 14.6328,22.76925 L22.1988,22.76925 L22.1976,22.76925 Z" id="形状"></path>
                    </g>
                </g>
            </g>
        </g>
    </g>
</svg>