<?xml version="1.0" encoding="UTF-8"?>
<svg width="44px" height="44px" viewBox="0 0 44 44" version="1.1" xmlns="http://www.w3.org/2000/svg" xmlns:xlink="http://www.w3.org/1999/xlink">
    <title>头像备份 4</title>
    <defs>
        <rect id="path-1" x="0" y="0" width="42" height="42" rx="21"></rect>
        <linearGradient x1="-3.74390576e-14%" y1="45.0273644%" x2="83.0047817%" y2="53.2778621%" id="linearGradient-3">
            <stop stop-color="#FB8F65" offset="0%"></stop>
            <stop stop-color="#CD4444" offset="52.4449859%"></stop>
            <stop stop-color="#CD4444" offset="100%"></stop>
        </linearGradient>
        <linearGradient x1="58.5718383%" y1="34.342645%" x2="66.411965%" y2="58.0045411%" id="linearGradient-4">
            <stop stop-color="#FD9467" offset="0%"></stop>
            <stop stop-color="#E66B4E" offset="20.286788%"></stop>
            <stop stop-color="#D04538" offset="100%"></stop>
        </linearGradient>
        <path d="M19.9410096,0.640283045 L15.2716256,0.640283045 L13.6415805,1.50709889 C13.1076733,1.79103469 13.0432849,2.52871641 13.5199308,2.90031394 L19.3755841,7.46533988 C19.7265866,7.73898414 20.2187765,7.74149577 20.5725438,7.47134326 L26.993807,2.56853481 C27.4671351,2.20710629 27.4202569,1.48216645 26.9043514,1.18426359 L25.9620574,0.640283045 L19.9410096,0.640283045 Z" id="path-5"></path>
        <filter x="-10.6%" y="-21.3%" width="121.2%" height="142.7%" filterUnits="objectBoundingBox" id="filter-6">
            <feMorphology radius="0.5" operator="dilate" in="SourceAlpha" result="shadowSpreadOuter1"></feMorphology>
            <feOffset dx="0" dy="0" in="shadowSpreadOuter1" result="shadowOffsetOuter1"></feOffset>
            <feColorMatrix values="0 0 0 0 0.992156863   0 0 0 0 0.580392157   0 0 0 0 0.403921569  0 0 0 1 0" type="matrix" in="shadowOffsetOuter1" result="shadowMatrixOuter1"></feColorMatrix>
            <feMorphology radius="0.25" operator="dilate" in="SourceAlpha" result="shadowSpreadOuter2"></feMorphology>
            <feOffset dx="0" dy="0" in="shadowSpreadOuter2" result="shadowOffsetOuter2"></feOffset>
            <feColorMatrix values="0 0 0 0 0.22745098   0 0 0 0 0.231372549   0 0 0 0 0.235294118  0 0 0 1 0" type="matrix" in="shadowOffsetOuter2" result="shadowMatrixOuter2"></feColorMatrix>
            <feMerge>
                <feMergeNode in="shadowMatrixOuter1"></feMergeNode>
                <feMergeNode in="shadowMatrixOuter2"></feMergeNode>
            </feMerge>
        </filter>
        <linearGradient x1="50%" y1="1.0884994e-12%" x2="50%" y2="100%" id="linearGradient-7">
            <stop stop-color="#FD9467" offset="0%"></stop>
            <stop stop-color="#FB9065" offset="100%"></stop>
        </linearGradient>
        <linearGradient x1="50%" y1="0%" x2="50%" y2="100%" id="linearGradient-8">
            <stop stop-color="#3A3B3C" offset="0%"></stop>
            <stop stop-color="#14171B" offset="100%"></stop>
        </linearGradient>
        <linearGradient x1="24.5789159%" y1="34.522746%" x2="78.5151146%" y2="65.1768493%" id="linearGradient-9">
            <stop stop-color="#F8E3D4" offset="0%"></stop>
            <stop stop-color="#FFC795" offset="100%"></stop>
        </linearGradient>
        <linearGradient x1="36.965327%" y1="3.48346062%" x2="25.5555746%" y2="82.3476017%" id="linearGradient-10">
            <stop stop-color="#F8C89E" offset="0%"></stop>
            <stop stop-color="#FFB985" offset="100%"></stop>
        </linearGradient>
        <linearGradient x1="41.7941548%" y1="2.6386118e-12%" x2="45.6271482%" y2="173.888144%" id="linearGradient-11">
            <stop stop-color="#FEC29D" offset="0%"></stop>
            <stop stop-color="#E88E50" offset="100%"></stop>
        </linearGradient>
        <linearGradient x1="100%" y1="52.9699545%" x2="15.546746%" y2="48.4873533%" id="linearGradient-12">
            <stop stop-color="#461E01" offset="0%"></stop>
            <stop stop-color="#491F02" offset="29.7025064%"></stop>
            <stop stop-color="#6D3005" offset="100%"></stop>
        </linearGradient>
        <linearGradient x1="50%" y1="0%" x2="50%" y2="100%" id="linearGradient-13">
            <stop stop-color="#592806" offset="0%"></stop>
            <stop stop-color="#8D3C04" offset="100%"></stop>
        </linearGradient>
        <linearGradient x1="50%" y1="0%" x2="50%" y2="100%" id="linearGradient-14">
            <stop stop-color="#3A3B3C" offset="0%"></stop>
            <stop stop-color="#27292C" offset="77.4612242%"></stop>
            <stop stop-color="#1A1D20" offset="100%"></stop>
        </linearGradient>
        <linearGradient x1="50%" y1="0%" x2="50%" y2="100%" id="linearGradient-15">
            <stop stop-color="#9B3008" offset="0%"></stop>
            <stop stop-color="#4F1A00" offset="100%"></stop>
        </linearGradient>
        <linearGradient x1="7.55762869e-13%" y1="66.0994991%" x2="123.557813%" y2="66.0994991%" id="linearGradient-16">
            <stop stop-color="#9BE4EC" offset="0%"></stop>
            <stop stop-color="#74CCEB" offset="41.4165816%"></stop>
            <stop stop-color="#2799CE" offset="100%"></stop>
        </linearGradient>
        <linearGradient x1="7.53301191%" y1="100%" x2="88.8202677%" y2="100%" id="linearGradient-17">
            <stop stop-color="#FD9467" offset="0%"></stop>
            <stop stop-color="#E76453" offset="26.5501247%"></stop>
            <stop stop-color="#CD4444" offset="100%"></stop>
        </linearGradient>
        <path d="M3.28030371,23.0946696 L3.28030371,23.0946696 C2.70762834,23.0946696 2.19626935,22.7355689 2.00494748,22.1973467 C1.3593437,20.380954 0,16.1518116 0,12.7418867 C0,8.26997453 3.1948417,0 11.9806564,0 C20.766471,0 23.9613127,7.96367918 23.9613127,12.7418867 C23.9613127,16.3760198 22.6465125,20.488525 22.0168829,22.2495395 C21.8291245,22.7745297 21.3312207,23.1252991 20.7721849,23.1252991 C19.8749873,23.1252991 19.239521,22.2533375 19.5155676,21.4021427 C20.7926441,17.4650835 22.7195023,8.14745639 12.3492919,8.14745639 C1.12999093,8.14745639 3.15656503,17.3284758 4.55799463,21.2996563 C4.8674642,22.1765799 4.21270597,23.0946696 3.28030371,23.0946696 Z" id="path-18"></path>
        <filter x="-112.5%" y="-112.5%" width="325.0%" height="325.0%" filterUnits="objectBoundingBox" id="filter-20">
            <feGaussianBlur stdDeviation="3" in="SourceGraphic"></feGaussianBlur>
        </filter>
        <linearGradient x1="50%" y1="-39.0285225%" x2="50%" y2="100%" id="linearGradient-21">
            <stop stop-color="#FFFFFF" stop-opacity="0" offset="0%"></stop>
            <stop stop-color="#FFFFFF" offset="100%"></stop>
        </linearGradient>
    </defs>
    <g id="订单详情" stroke="none" stroke-width="1" fill="none" fill-rule="evenodd">
        <g id="订单_外卖_配送中" transform="translate(-31.000000, -295.000000)">
            <g id="编组-29" transform="translate(16.000000, 284.000000)">
                <g id="编组-41" transform="translate(15.000000, 11.000000)">
                    <g id="头像备份-4" transform="translate(1.000000, 1.000000)">
                        <mask id="mask-2" fill="white">
                            <use xlink:href="#path-1"></use>
                        </mask>
                        <rect stroke="#FFFFFF" stroke-width="0.5" x="-0.25" y="-0.25" width="42.5" height="42.5" rx="21.25"></rect>
                        <g id="编组-30" mask="url(#mask-2)">
                            <g transform="translate(0.677419, 1.677419)">
                                <g id="肩膀" stroke-width="1" fill="none" transform="translate(0.000000, 23.250754)">
                                    <path d="M19.9410096,0.640283045 L15.2716256,0.640283045 L13.6415805,1.50709889 C13.1076733,1.79103469 13.0432849,2.52871641 13.5199308,2.90031394 L19.3755841,7.46533988 C19.7265866,7.73898414 20.2187765,7.74149577 20.5725438,7.47134326 L26.993807,2.56853481 C27.4671351,2.20710629 27.4202569,1.48216645 26.9043514,1.18426359 L25.9620574,0.640283045 L19.9410096,0.640283045 Z" id="Stroke-47" stroke="#00FFFF" stroke-width="0.5" fill="#D8D8D8"></path>
                                    <path d="M0,5.60226776 L16.3770408,1.64903616 C18.9534963,0.955399704 21.6675758,0.948844983 24.247349,1.63004585 L40.3064516,5.60226776 L40.3064516,21.7996494 L0,21.7996494 L0,5.60226776 Z" id="Stroke-3" fill="url(#linearGradient-3)"></path>
                                    <path d="M15.6085091,0.364617227 L12.2877049,1.448719 C11.8477383,1.60688992 11.5545502,2.02308405 11.5545502,2.48938809 L11.5545502,3.50127841 C11.5545502,3.72689557 11.6518085,3.94166987 11.8215652,4.09083571 L18.86479,10.0126888 L21.165665,9.99688089 L28.8490509,3.8465828 C29.0236613,3.69729444 29.1241145,3.47939593 29.1241145,3.25004197 L29.1241145,2.20520726 C29.1241145,1.78987076 28.8907682,1.40951319 28.5199208,1.22034518 L26.1760624,0.180840015 L15.6085091,0.364617227 Z" id="Stroke-49" fill="url(#linearGradient-4)"></path>
                                    <g id="Stroke-45">
                                        <use fill="black" fill-opacity="1" filter="url(#filter-6)" xlink:href="#path-5"></use>
                                        <use fill="#933C0B" fill-rule="evenodd" xlink:href="#path-5"></use>
                                    </g>
                                    <path d="M25.9620574,0.640283045 L26.4225409,0.906283045 L26.4225409,3.00428304 L20.5725438,7.47134326 C20.2541532,7.71448052 19.8236403,7.73675983 19.4848408,7.53929765 L19.3755841,7.46533988 L14.0105409,3.28228304 L14.0105409,1.31028304 L15.2716256,0.640283045 L25.9620574,0.640283045 Z" id="形状结合" fill="#FDC7B3"></path>
                                    <path d="M26.4228273,1.43316506 L18.1939777,6.20531969 C18.1652097,6.18326033 18.1405038,6.16414029 18.1203853,6.1484558 L14.0105409,3.01992128 L14.0106216,0 L26.4228273,0 L26.4228273,1.43316506 Z" id="形状结合" fill="#EFA885" transform="translate(20.216684, 3.102660) scale(-1, 1) translate(-20.216684, -3.102660) "></path>
                                    <path d="M21.165665,21.1782882 L18.7163543,21.1782882 L18.7163543,8.23150111 C18.7163543,7.8785642 21.165665,7.86200764 21.165665,8.29804859 L21.165665,21.1782882 Z" id="Stroke-51" fill="url(#linearGradient-7)"></path>
                                    <path d="M19.9559095,21.7282482 C20.2519485,21.7282482 20.4919355,21.4882612 20.4919355,21.1922223 L20.4919355,9.05459673 C20.4919355,8.75855778 20.2519485,8.51857079 19.9559095,8.51857079 C19.6598706,8.51857079 19.4198836,8.75855778 19.4198836,9.05459673 L19.4198836,21.1922223 C19.4198836,21.4882612 19.6598706,21.7282482 19.9559095,21.7282482 Z" id="Stroke-53" fill="url(#linearGradient-8)"></path>
                                    <g id="编组" transform="translate(23.105635, 7.253416)" fill="#FFFFFF">
                                        <g id="1024*1024" transform="translate(0.482866, 0.000000)">
                                            <g id="编组-18" transform="translate(0.000000, 3.783300)">
                                                <path d="M0.941879136,0.376293026 C1.18792955,0.376293026 1.39710719,0.533364869 1.47471781,0.752586053 L1.86489673,0.752586053 C1.77762342,0.323176571 1.39753235,0 0.941879136,0 C0.42171789,0 0,0.421187239 0,0.940693964 C0,1.46023929 0.42171789,1.88138793 0.941879136,1.88138793 C1.39753235,1.88138793 1.77762342,1.55821136 1.86489673,1.12884048 L1.47471781,1.12884048 C1.39710719,1.34802306 1.18792955,1.5051335 0.941879136,1.5051335 C0.629774658,1.5051335 0.376767115,1.25240572 0.376767115,0.940693964 C0.376767115,0.628982209 0.629774658,0.376293026 0.941879136,0.376293026" id="Fill-3"></path>
                                                <path d="M3.00436573,1.50512578 C2.6925516,1.50512578 2.43977942,1.25243142 2.43977942,0.940713265 C2.43977942,0.628995114 2.6925516,0.376262144 3.00436573,0.376262144 C3.31617987,0.376262144 3.56895205,0.628995114 3.56895205,0.940713265 C3.56895205,1.25243142 3.31617987,1.50512578 3.00436573,1.50512578 M3.00436573,0 C2.48468838,0 2.0633628,0.421157279 2.0633628,0.940713265 C2.0633628,1.46023065 2.48468838,1.88138793 3.00436573,1.88138793 C3.5240817,1.88138793 3.94536867,1.46023065 3.94536867,0.940713265 C3.94536867,0.421157279 3.5240817,0 3.00436573,0" id="Fill-5"></path>
                                                <polygon id="Fill-7" points="4.05486719 0.0513105798 4.05486719 0.427657213 4.55454656 0.427657213 4.55454656 1.83007735 4.93076302 1.83007735 4.93076302 0.427657213 5.43044239 0.427657213 5.43044239 0.0513105798"></polygon>
                                                <polygon id="Fill-9" points="5.61522115 0.0513105798 5.61522115 0.427657213 6.11490052 0.427657213 6.11490052 1.83007735 6.49111698 1.83007735 6.49111698 0.427657213 6.99079635 0.427657213 6.99079635 0.0513105798"></polygon>
                                                <polygon id="Fill-11" points="7.36035386 1.83007735 7.73675504 1.83007735 7.73675504 0.0513105798 7.36035386 0.0513105798"></polygon>
                                                <path d="M2.04003098,2.6209367 C2.14568558,2.6209367 2.23551715,2.68835859 2.26882678,2.78238626 L2.43634214,2.78238626 C2.3988543,2.59815381 2.23567189,2.45948713 2.04003098,2.45948713 C1.81669006,2.45948713 1.63563419,2.64020561 1.63563419,2.86313036 C1.63563419,3.0860551 1.81669006,3.26677358 2.04003098,3.26677358 C2.23567189,3.26677358 2.3988543,3.1281069 2.43634214,2.94387445 L2.26882678,2.94387445 C2.23551715,3.03790212 2.14568558,3.10532401 2.04003098,3.10532401 C1.90601869,3.10532401 1.79738517,2.99689292 1.79738517,2.86313036 C1.79738517,2.72936779 1.90601869,2.6209367 2.04003098,2.6209367" id="Fill-13"></path>
                                                <path d="M2.9051327,3.10532401 C2.77132619,3.10532401 2.66285949,2.99689292 2.66285949,2.86313036 C2.66285949,2.72936779 2.77132619,2.6209367 2.9051327,2.6209367 C3.0389392,2.6209367 3.14740591,2.72936779 3.14740591,2.86313036 C3.14740591,2.99689292 3.0389392,3.10532401 2.9051327,3.10532401 M2.9051327,2.45948713 C2.68213473,2.45948713 2.50135689,2.64020561 2.50135689,2.86313036 C2.50135689,3.0860551 2.68213473,3.26677358 2.9051327,3.26677358 C3.12813066,3.26677358 3.3089085,3.0860551 3.3089085,2.86313036 C3.3089085,2.64020561 3.12813066,2.45948713 2.9051327,2.45948713" id="Fill-14"></path>
                                                <polygon id="Fill-15" points="3.43209434 2.48001136 3.43209434 2.63161763 3.43209434 3.24282865 3.59397892 3.24282865 3.59397892 2.93722314 3.95910007 2.93722314 3.95910007 2.78561687 3.59397892 2.78561687 3.59397892 2.63161763 4.02407073 2.63161763 4.02407073 2.48001136 3.59397892 2.48001136"></polygon>
                                                <polygon id="Fill-16" points="4.12330377 2.48001136 4.12330377 2.63161763 4.12330377 3.24282865 4.28518835 3.24282865 4.28518835 2.93722314 4.6503095 2.93722314 4.6503095 2.78561687 4.28518835 2.78561687 4.28518835 2.63161763 4.71528016 2.63161763 4.71528016 2.48001136 4.28518835 2.48001136"></polygon>
                                                <polygon id="Fill-17" points="4.81793503 2.48001136 4.81793503 2.63161763 4.81793503 3.09122238 4.81793503 3.24282865 4.9798196 3.24282865 5.40991142 3.24282865 5.40991142 3.09122238 4.9798196 3.09122238 4.9798196 2.93722314 5.34494076 2.93722314 5.34494076 2.78561687 4.9798196 2.78561687 4.9798196 2.63161763 5.40991142 2.63161763 5.40991142 2.48001136 4.9798196 2.48001136"></polygon>
                                                <polygon id="Fill-18" points="6.10112085 2.63161763 6.10112085 2.48001136 5.67102903 2.48001136 5.50914445 2.48001136 5.50914445 2.63161763 5.50914445 3.09122238 5.50914445 3.24282865 5.67102903 3.24282865 6.10112085 3.24282865 6.10112085 3.09122238 5.67102903 3.09122238 5.67102903 2.93722314 6.03615019 2.93722314 6.03615019 2.78561687 5.67102903 2.78561687 5.67102903 2.63161763"></polygon>
                                            </g>
                                            <path d="M4.19667251,1.61194997 C4.30184632,1.36254658 4.20902773,1.15805432 4.0024639,1.07108723 C3.79308154,0.982885479 3.58508914,1.06749897 3.48234777,1.31115343 C3.37840949,1.55770164 3.46184583,1.76836726 3.6712668,1.85656901 C3.87779202,1.9435361 4.09030179,1.86424712 4.19667251,1.61194997 M5.2546654,1.96294357 C5.03829462,2.47610339 4.67972298,2.66944503 4.32690425,2.52086019 C4.13180761,2.43871603 4.03037898,2.29472261 4.03902763,2.10593382 C3.87091943,2.22423066 3.66991545,2.24421688 3.443313,2.14880002 C3.07323557,1.99296149 2.90393045,1.57734062 3.08644021,1.14443436 C3.26779166,0.714421868 3.68084209,0.544037374 4.05377667,0.701071995 C4.24312041,0.780785393 4.36447183,0.90953835 4.41578461,1.076296 L4.48709739,0.907184759 L4.87725205,1.07143449 L4.4855916,2.00029234 C4.42756067,2.13788091 4.46848734,2.20914453 4.54590051,2.24174754 C4.6778697,2.2973077 4.82227133,2.17920378 4.96250307,1.84665307 C5.20790862,1.26469896 4.94682738,0.682166107 4.30995443,0.41397258 C3.67022433,0.14462155 3.05902706,0.400352624 2.80636282,0.999514944 C2.54891094,1.61013655 2.78520451,2.21936915 3.42207747,2.48756267 C3.60281116,2.56364923 3.82223214,2.6121872 4.04041759,2.5993775 L4.02099673,2.90179454 C3.80852557,2.91699642 3.53265668,2.85819525 3.30601562,2.76277839 C2.47698039,2.41367538 2.16597635,1.62105566 2.48508851,0.864241385 C2.80057131,0.115992633 3.58999262,-0.209883145 4.42481936,0.141612041 C5.23092021,0.481107775 5.55806326,1.24336232 5.2546654,1.96294357" id="Fill-19"></path>
                                        </g>
                                    </g>
                                </g>
                                <g id="脑子" stroke-width="1" fill="none" transform="translate(11.278073, 4.747578)">
                                    <path d="M17.3873115,9.18886059 C17.3873115,4.1139754 13.4950113,0 8.69365577,0 C3.89230021,0 0,4.1139754 0,9.18886059 C0,10.2351655 0.165455936,11.2406106 0.470133243,12.1775681 C0.581399749,12.519455 0.711220913,12.8522143 0.858306509,13.1745595 L2.22090649,18.8677937 C2.22090649,18.8677937 6.71709323,21.9041608 8.69341001,21.9041608 C10.6697268,21.9041608 15.3988912,18.8065347 15.3988912,18.8065347 L16.838106,12.4085761 C17.1928563,11.4065002 17.3873115,10.3217858 17.3873115,9.18886059 Z" id="Stroke-13" fill="url(#linearGradient-9)"></path>
                                    <path d="M8.07408484,11.3320312 L7.28055271,14.4968504 L7.28055271,14.4968504 L10.1067588,14.4968504 L9.37405018,11.3342542 C9.30447365,11.0339405 9.03694427,10.8213062 8.72867615,10.8213062 C8.41918149,10.8213062 8.14935608,11.0318293 8.07408484,11.3320312 Z" id="Stroke-21" fill="url(#linearGradient-10)" opacity="0.515113467"></path>
                                    <path d="M8.74225422,14.4968504 L10.1067588,14.4968504 L9.37098559,11.3210265 C9.30320327,11.0284572 9.04257285,10.8213062 8.74225422,10.8213062 L8.74225422,10.8213062 L8.74225422,10.8213062 L8.74225422,14.4968504 Z" id="Stroke-43" fill="url(#linearGradient-11)"></path>
                                    <path d="M10.5368337,8.65738382 C10.5776293,8.70320561 10.7211515,8.84116103 11.2741048,8.84116103 C11.8270582,8.84116103 13.9774324,7.98353405 15.1447784,8.53486568 C15.1447784,8.53486568 14.9604606,7.30968427 13.3016005,7.37094334 C11.6427404,7.43220241 10.0453196,8.10605219 10.5368337,8.65738382 Z" id="Stroke-23" fill="url(#linearGradient-12)"></path>
                                    <path d="M13.9794317,11.1690057 C13.9794317,12.0141578 13.5108937,12.6993223 12.9329649,12.6993223 C12.3550362,12.6993223 11.8864981,12.0141578 11.8864981,11.1690057 C11.8864981,10.3238536 12.3550362,9.63868916 12.9329649,9.63868916 C13.5108937,9.63868916 13.9794317,10.3238536 13.9794317,11.1690057 Z" id="Stroke-25" fill="url(#linearGradient-13)"></path>
                                    <path d="M6.76011914,8.65738382 C6.71932347,8.70320561 6.57580135,8.84116103 6.02284798,8.84116103 C5.46989461,8.84116103 3.31952039,7.98353405 2.15217439,8.53486568 C2.15217439,8.53486568 2.33649218,7.30968427 3.99535229,7.37094334 C5.6542124,7.43220241 7.25163325,8.10605219 6.76011914,8.65738382 Z" id="Stroke-27" fill="url(#linearGradient-12)"></path>
                                    <path d="M5.68513118,11.1690057 C5.68513118,12.0141578 5.21659311,12.6993223 4.63866438,12.6993223 C4.06073566,12.6993223 3.59219759,12.0141578 3.59219759,11.1690057 C3.59219759,10.3238536 4.06073566,9.63868916 4.63866438,9.63868916 C5.21659311,9.63868916 5.68513118,10.3238536 5.68513118,11.1690057 Z" id="Stroke-29" fill="url(#linearGradient-13)"></path>
                                </g>
                                <g id="帽子" stroke-width="1" fill="none" transform="translate(7.184415, 0.000000)">
                                    <path d="M24.6300336,16.938133 L22.8019083,16.938133 L22.8019083,10.4446715 L24.6300336,10.4446715 C25.0455473,10.4446715 25.2997962,10.8269281 25.3823574,11.1947889 C25.4649186,11.5626496 25.6624613,11.9445026 25.6624613,13.588739 C25.6624613,15.2329754 25.5252914,15.6322869 25.3823574,16.1880157 C25.2394234,16.7437445 25.0455473,16.938133 24.6300336,16.938133 Z" id="Stroke-31" fill="url(#linearGradient-14)"></path>
                                    <path d="M1.82812528,16.938133 L0,16.938133 L0,10.4446715 L1.82812528,10.4446715 C2.24363902,10.4446715 2.49788786,10.8269281 2.58044906,11.1947889 C2.66301026,11.5626496 2.860553,11.9445026 2.860553,13.588739 C2.860553,15.2329754 2.72338308,15.6322869 2.58044906,16.1880157 C2.43751505,16.7437445 2.24363902,16.938133 1.82812528,16.938133 Z" id="Stroke-31备份" fill="url(#linearGradient-14)" transform="translate(1.430277, 13.691402) scale(-1, 1) translate(-1.430277, -13.691402) "></path>
                                    <path d="M4.62471518,22.9126873 L4.62471518,22.9126873 C4.08540133,22.9126873 3.60390182,22.574476 3.42370046,22.0676184 C2.81575895,20.3571426 1.53561046,16.3744454 1.53561046,13.1632449 C1.53561046,8.95192888 4.54422975,1.16394072 12.8180096,1.16394072 C21.0917894,1.16394072 24.1004702,8.66352118 24.1004702,13.1632449 C24.1004702,16.5855442 22.8622847,20.4584651 22.2693344,22.1168094 C22.0925736,22.6112314 21.6236691,22.9415403 21.0971961,22.9415403 C20.2522833,22.9415403 19.6538035,22.1203625 19.9138144,21.3187875 C21.116488,17.6111435 22.9310352,8.83657805 13.1652029,8.83657805 C2.59967706,8.83657805 4.50822634,17.4824995 5.82794172,21.2223045 C6.11934814,22.048138 5.5027437,22.9126873 4.62471518,22.9126873 Z" id="Stroke-11" fill="url(#linearGradient-15)"></path>
                                    <path d="M19.4925315,23.5541126 L20.3727404,19.7076595 C19.8480491,19.6568145 18.9860877,19.6221257 17.5795586,19.3329216 C15.7478699,18.9563008 13.7242449,18.4545278 12.8180157,18.4545278 C11.9453939,18.4545278 10.1028304,19.0320171 8.30222988,19.3941807 C6.88820523,19.6786065 5.98619266,19.7378099 5.34366085,19.7742591 C5.37093988,19.8377847 5.39834179,19.9013104 5.42697249,19.9639784 L6.31460827,23.6153717 C6.31460827,23.6153717 10.8107336,26.6517388 12.7870503,26.6517388 C14.7633671,26.6517388 19.4925315,23.5541126 19.4925315,23.5541126 Z" id="Stroke-15" fill="url(#linearGradient-16)"></path>
                                    <g id="编组-8" transform="translate(18.355131, 19.564221)">
                                        <path d="M0.65,2.22085186 C1.00898509,2.22085186 1.3,1.92983695 1.3,1.57085186 C1.3,1.21186677 1.00898509,0.920851861 0.65,0.920851861 C0.291014913,0.920851861 0,1.21186677 0,1.57085186 C0,1.92983695 0.291014913,2.22085186 0.65,2.22085186 Z" id="椭圆形" fill="#1A8FC0"></path>
                                        <path d="M0.75984672,1.50604212 C0.916749332,1.40757217 1.12637651,1.23841093 1.38872824,0.998558384 C1.65107998,0.758705842 1.86070716,0.425853048 2.01760977,0" id="路径-4" stroke="#FFFFFF" stroke-width="0.7" stroke-linecap="round"></path>
                                    </g>
                                    <path d="M5.51109513,20.3154707 C6.20603463,20.2711191 7.00071281,20.2073213 8.30224216,19.9455001 C10.1028427,19.5833364 10.9395301,19.2444284 12.818028,19.2444284 C14.6965259,19.2444284 15.7478822,19.5076202 17.5795709,19.884241 C18.8878586,20.1532296 19.6666312,20.187367 20.2514101,20.2469108 L20.3727527,19.7076472 C19.8480614,19.6568022 18.9861,19.6221134 17.5795709,19.3329094 C15.7478822,18.9562886 14.8064378,18.3565653 12.8180096,18.3565653 C10.8295814,18.3565653 10.1028427,19.0320048 8.30224216,19.3941684 C6.88821752,19.6785943 5.98614351,19.7377977 5.34361169,19.7743081 C5.37095217,19.8378337 5.39835408,19.9012981 5.42698478,19.9640274 L5.51109513,20.3154707 Z" id="Stroke-17" fill="#FFFFFF"></path>
                                    <path d="M5.04385041,20.3125346 C5.92098218,24.3099989 8.92132128,26.3534143 12.7873145,26.3534143 C16.6533078,26.3534143 19.8469376,24.2531103 20.7398353,20.2010039" id="路径" stroke="#5B1D01" stroke-width="0.7"></path>
                                    <g id="编组-8备份" transform="translate(6.363936, 20.674647) scale(-1, 1) translate(-6.363936, -20.674647) translate(5.355131, 19.564221)">
                                        <path d="M0.65,2.22085186 C1.00898509,2.22085186 1.3,1.92983695 1.3,1.57085186 C1.3,1.21186677 1.00898509,0.920851861 0.65,0.920851861 C0.291014913,0.920851861 0,1.21186677 0,1.57085186 C0,1.92983695 0.291014913,2.22085186 0.65,2.22085186 Z" id="椭圆形" fill="#52B5DE"></path>
                                        <path d="M0.75984672,1.50604212 C0.916749332,1.40757217 1.12637651,1.23841093 1.38872824,0.998558384 C1.65107998,0.758705842 1.86070716,0.425853048 2.01760977,0" id="路径-4" stroke="#FFFFFF" stroke-width="0.7" stroke-linecap="round"></path>
                                    </g>
                                    <path d="M11.9050289,25.3585266 L13.7526101,25.3585266 C14.1855594,25.3585266 14.5365343,25.7095014 14.5365343,26.1424508 C14.5365343,26.5754002 14.1855594,26.926375 13.7526101,26.926375 L11.9050289,26.926375 C11.4720795,26.926375 11.1211047,26.5754002 11.1211047,26.1424508 C11.1211047,25.7095014 11.4720795,25.3585266 11.9050289,25.3585266 Z" id="矩形" fill="#5B1D01"></path>
                                    <g id="Stroke-10" transform="translate(0.837353, 0.000000)">
                                        <mask id="mask-19" fill="white">
                                            <use xlink:href="#path-18"></use>
                                        </mask>
                                        <use id="Stroke-9" fill="url(#linearGradient-17)" xlink:href="#path-18"></use>
                                        <circle id="椭圆形" fill="#FBBB65" style="mix-blend-mode: hard-light;" opacity="0.629301525" filter="url(#filter-20)" mask="url(#mask-19)" cx="6.30081271" cy="5.32258065" r="4"></circle>
                                        <path d="M13.5504333,4.38033993 C14.0112736,3.27635629 13.6046121,2.37122887 12.6994415,1.98629891 C11.7819285,1.59586765 10.8705066,1.9704422 10.4204059,3.04886091 C9.9648552,4.14038569 10.3304819,5.07269607 11.2481552,5.46296553 C12.1533257,5.84805728 13.0843033,5.49694421 13.5504333,4.38033993 M18.186567,5.93397481 C17.2382778,8.20536896 15.6672531,9.06114639 14.1210738,8.40341614 C13.2663953,8.03984422 12.8217445,7.40266299 12.8597338,6.56694916 C12.1231908,7.0903827 11.2423847,7.17905089 10.249374,6.75674438 C8.62769698,6.06681529 7.885704,4.22711224 8.68572278,2.31103805 C9.48013133,0.407746325 11.2901518,-0.346580466 12.9243316,0.348526333 C13.7540045,0.701581043 14.285694,1.27129032 14.510584,2.00959858 L14.8229937,1.26093491 L16.5326712,1.98807875 L14.8164217,6.09933774 C14.5621982,6.70836521 14.7414049,7.02371976 15.080904,7.16804827 C15.6590782,7.41398922 16.2919122,6.89136469 16.9063125,5.41927865 C17.9815531,2.84337077 16.8375471,0.264712245 14.0468585,-0.922114656 C11.243667,-2.11460467 8.56550357,-0.982629075 7.45836477,1.66964994 C6.3300674,4.37241157 7.36555554,7.06902467 10.1562442,8.25601338 C10.9482484,8.59288776 11.9095212,8.80743888 12.8658249,8.75113135 L12.7807097,10.0895679 C11.8495719,10.1567163 10.6408078,9.89669842 9.64779706,9.47406831 C6.01477248,7.92900899 4.65196749,4.42062894 6.05035736,1.07065428 C7.43303859,-2.24113482 10.8919858,-3.68361087 14.5500159,-2.12771073 C18.082377,-0.625205677 19.5160311,2.74903947 18.186567,5.93397481" id="Fill-1" fill="#FFFFFF" mask="url(#mask-19)"></path>
                                    </g>
                                </g>
                                <ellipse id="椭圆形" fill="url(#linearGradient-21)" transform="translate(23.834193, 15.048283) scale(1, -1) translate(-23.834193, -15.048283) " cx="23.8341933" cy="15.0482828" rx="1" ry="1"></ellipse>
                                <ellipse id="椭圆形备份-6" fill="url(#linearGradient-21)" transform="translate(15.567770, 15.048283) scale(1, -1) translate(-15.567770, -15.048283) " cx="15.5677697" cy="15.0482828" rx="1" ry="1"></ellipse>
                            </g>
                        </g>
                    </g>
                </g>
            </g>
        </g>
    </g>
</svg>